<?xml version="1.0" standalone="no"?>
<!DOCTYPE svg PUBLIC "-//W3C//DTD SVG 1.1//EN" "http://www.w3.org/Graphics/SVG/1.1/DTD/svg11.dtd" >
<svg xmlns="http://www.w3.org/2000/svg" xmlns:xlink="http://www.w3.org/1999/xlink" version="1.1">
<metadata></metadata>
<defs>
<font id="jaywalkerregular" horiz-adv-x="966" >
<font-face units-per-em="2048" ascent="1638" descent="-410" />
<missing-glyph horiz-adv-x="512" />
<glyph horiz-adv-x="0" />
<glyph horiz-adv-x="682" />
<glyph unicode=" "  horiz-adv-x="512" />
<glyph unicode="&#x09;" horiz-adv-x="512" />
<glyph unicode="&#xa0;" horiz-adv-x="512" />
<glyph unicode="!" horiz-adv-x="485" d="M111 123q0 63 34 98t99 35q133 0 133 -133q0 -60 -37 -96.5t-96 -36.5q-60 0 -96.5 35t-36.5 98zM131 1444l225 -2l-10 -1092l-205 -4z" />
<glyph unicode="&#x22;" horiz-adv-x="788" d="M20 893l146 541h237l-186 -537zM385 891l145 543h238l-186 -543h-197z" />
<glyph unicode="#" horiz-adv-x="1318" d="M84 559h213v315h-213l4 201l207 2v357l211 4l-2 -361l311 2l-2 355l211 -2v-353l215 2l-4 -211h-213v-307h213l4 -211l-219 2v-358l-201 -4l-2 362l-315 2v-352l-203 -4v356l-211 2zM504 561h313l-2 311h-311v-311z" />
<glyph unicode="$" horiz-adv-x="868" d="M43 428l242 -6q-9 -138 29 -195t114 -57q73 0 116.5 54t43.5 155q0 45 -12 81t-42.5 70t-57.5 56.5t-81 62.5q-95 70 -150 118t-98.5 103t-60 111t-16.5 129q0 130 63 216.5t176 115.5l-2 196l246 -4l-2 -188q140 -29 196 -122t58 -245l-238 6q0 34 -2 57t-9 48.5 t-20.5 40.5t-37.5 25t-58 10q-129 0 -129 -156q0 -76 49 -126.5t187 -139.5q282 -183 282 -465q0 -149 -74 -250t-204 -135l4 -199l-250 -4l4 199q-282 61 -266 438z" />
<glyph unicode="%" horiz-adv-x="1224" d="M31 1104q0 180 66 280.5t196 100.5t196 -100.5t66 -280.5t-66 -280.5t-196 -100.5q-73 0 -124.5 27t-81.5 79t-43 119t-13 156zM72 59l940 1395l135 -90l-946 -1391zM201 1108q0 -244 92 -244t92 244t-92 244t-92 -244zM670 328q0 180 66 280.5t196 100.5t196 -100.5 t66 -280.5t-66 -280.5t-196 -100.5q-73 0 -124.5 27t-81.5 79t-43 119t-13 156zM842 332q0 -244 92 -244t92 244q0 243 -92 243t-92 -243z" />
<glyph unicode="&#x26;" horiz-adv-x="960" d="M43 379q0 57 12.5 113t37.5 109t68 98.5t99 74.5q-103 83 -146.5 156.5t-43.5 179.5q0 162 96.5 254t261.5 92h8h8q165 0 262 -92t97 -254l-242 4q0 149 -125 152q-125 -3 -125 -156q0 -30 2 -52.5t8.5 -49t18 -45.5t32 -38t48 -31t67.5 -19t91 -7l4 -190q-90 0 -149 -18 t-91 -58t-44.5 -92t-12.5 -131q0 -99 40.5 -152.5t110.5 -56.5q65 3 107.5 70t44.5 166l-119 2l4 184l457 2l-6 -191h-95q0 -177 -96.5 -295.5t-255.5 -125.5q-12 -2 -33 -2h-8h-8q-34 0 -68 6q-147 23 -232 127t-85 266z" />
<glyph unicode="'" horiz-adv-x="423" d="M20 891l146 543h237l-186 -543h-197z" />
<glyph unicode="(" horiz-adv-x="600" d="M61 672q0 -504 226 -946l221 86q-107 243 -155 447.5t-48 418.5q0 474 211 872q-111 45 -211 88q-116 -185 -180 -444t-64 -522z" />
<glyph unicode=")" horiz-adv-x="600" d="M84 1550q211 -398 211 -872q0 -214 -48 -418.5t-155 -447.5l221 -86q226 442 226 946q0 263 -64 522t-180 444z" />
<glyph unicode="*" horiz-adv-x="1064" d="M20 1073l60 184l360 -124l-8 378h199l-4 -376l360 120l57 -190l-364 -109l229 -307l-168 -110l-211 305l-221 -312l-157 121l229 305z" />
<glyph unicode="+" horiz-adv-x="970" d="M31 492l6 186l332 2v356l239 6l-2 -362l334 2l-6 -186l-330 -2l-2 -357l-235 -4v361z" />
<glyph unicode="," horiz-adv-x="524" d="M20 -289l146 543h237l-186 -543h-197z" />
<glyph unicode="-" horiz-adv-x="616" d="M20 684l576 -2l-4 -190l-565 -5z" />
<glyph unicode="." horiz-adv-x="507" d="M121 123q0 63 34 98t99 35q133 0 133 -133q0 -60 -37 -96.5t-96 -36.5q-60 0 -96.5 35t-36.5 98z" />
<glyph unicode="/" horiz-adv-x="733" d="M20 -322l484 1768h209l-475 -1768h-218z" />
<glyph unicode="0" horiz-adv-x="890" d="M23 717q0 353 105 547t316 194q142 0 237.5 -91t140 -254.5t44.5 -395.5q0 -352 -105.5 -547t-316.5 -195t-316 194.5t-105 547.5zM276 723q0 -551 170 -551t170 551t-170 551t-170 -551z" />
<glyph unicode="1" horiz-adv-x="890" d="M227 1430l363 4v-1434l-238 -4l-4 1247l-117 -4z" />
<glyph unicode="2" horiz-adv-x="890" d="M92 0v190q0 86 14.5 158t37 122.5t60 96.5t71.5 76t83 66q72 53 119 93t76.5 71.5t44 62.5t19 57.5t4.5 65.5q0 109 -33 157t-113 48q-51 0 -84.5 -27t-54.5 -101.5t-21 -199.5l-223 -8q0 248 100 387t283 139q184 0 275.5 -114.5t91.5 -315.5q0 -58 -18 -112.5 t-43.5 -94t-68 -83.5t-75.5 -71t-83.5 -68t-76.5 -63q-54 -47 -82.5 -85.5t-44.5 -99.5t-16 -152l479 8l8 -195z" />
<glyph unicode="3" horiz-adv-x="890" d="M47 379l242 -6q0 -101 38.5 -153t112.5 -50q70 3 111 56.5t41 152.5q0 79 -12.5 131t-44.5 92t-91 58t-149 18v190q70 0 120.5 14t79 35t45 55t21 65t4.5 73q0 68 -29.5 111.5t-95.5 44.5q-125 -3 -125 -150l-241 -6q0 162 96.5 254t261.5 92h8h9q165 0 261.5 -92 t96.5 -254q0 -106 -44 -179t-147 -157q74 -38 125 -105t72 -140t21 -150q0 -161 -85.5 -265.5t-232.5 -127.5q-34 -6 -67 -6h-9h-8q-21 0 -33 2q-162 14 -257 120t-95 277z" />
<glyph unicode="4" horiz-adv-x="890" d="M16 485l488 949h241l-2 -945h119l4 -188h-125v-311l-237 4v305l-484 -4zM254 487h250v480z" />
<glyph unicode="5" horiz-adv-x="890" d="M63 391l240 -6q13 -114 51.5 -166.5t102.5 -52.5q89 0 124 73t35 267q0 109 -29 166t-110 57q-76 0 -112.5 -36t-51.5 -130h-237l-4 871l755 8l-2 -191l-516 -6l2 -371q81 58 207 58q167 0 257.5 -116.5t90.5 -309.5q0 -531 -409 -531q-166 0 -268.5 109t-125.5 307z" />
<glyph unicode="6" horiz-adv-x="890" d="M37 717q0 232 44.5 395.5t140 254.5t237.5 91q160 0 254.5 -112t122.5 -320l-228 8q-18 115 -53 174.5t-96 59.5q-145 0 -166 -402q89 66 227 66q167 0 257.5 -116.5t90.5 -309.5q0 -531 -409 -531q-211 0 -316.5 195t-105.5 547zM289 623q5 -242 43 -349.5t127 -107.5 t124 73t35 267q0 109 -29 166t-110 57q-145 0 -190 -106z" />
<glyph unicode="7" horiz-adv-x="890" d="M90 1427l729 7v-191l-366 -1251l-248 8l364 1241l-473 -4z" />
<glyph unicode="8" horiz-adv-x="890" d="M53 379q0 229 217 397q-102 82 -146 155t-44 179q0 162 96.5 254t261.5 92h8h9q165 0 261.5 -92t96.5 -254q0 -106 -43.5 -179.5t-146.5 -156.5q114 -89 165.5 -185.5t51.5 -209.5q0 -161 -85.5 -265.5t-232.5 -127.5q-34 -6 -67 -6h-9h-8q-20 0 -32 2 q-162 14 -257.5 120t-95.5 277zM295 379q0 -99 40.5 -152.5t110.5 -56.5q70 3 111 56.5t41 152.5q0 82 -36 141t-116 121q-78 -63 -114.5 -122t-36.5 -140zM322 1110q0 -62 28.5 -110.5t95.5 -100.5q68 53 96.5 101.5t28.5 109.5q0 68 -29.5 111.5t-95.5 44.5 q-124 -3 -124 -156z" />
<glyph unicode="9" horiz-adv-x="890" d="M27 928q0 117 25.5 213t75 167t128.5 110.5t180 39.5q142 0 237.5 -91t140 -254.5t44.5 -395.5q0 -352 -105.5 -547t-316.5 -195q-94 0 -164 25t-117.5 75.5t-77 118.5t-46.5 162l227 -6q34 -112 71 -148t107 -36q147 0 168 418q-89 -82 -229 -82q-167 0 -257.5 116.5 t-90.5 309.5zM254 928q0 -103 39 -163t123 -60q145 0 190 106q-6 242 -44.5 349.5t-125.5 107.5q-92 0 -137 -78t-45 -262z" />
<glyph unicode=":" horiz-adv-x="507" d="M121 123q0 63 34 98t99 35q133 0 133 -133q0 -60 -37 -96.5t-96 -36.5q-60 0 -96.5 35t-36.5 98zM121 614q0 134 133 134q60 0 96.5 -37.5t36.5 -96.5q0 -60 -35 -96.5t-98 -36.5t-98 34t-35 99z" />
<glyph unicode=";" horiz-adv-x="432" d="M20 -289l146 543h237l-186 -543h-197zM145 614q0 63 34.5 98.5t99.5 35.5q62 0 97.5 -32.5t35.5 -101.5q0 -60 -37 -96.5t-96 -36.5q-60 0 -97 35t-37 98z" />
<glyph unicode="&#x3c;" horiz-adv-x="1036" d="M31 504v190l880 508l95 -166l-756 -436l756 -438l-95 -166z" />
<glyph unicode="=" horiz-adv-x="970" d="M31 489l905 5l2 -187l-903 -4zM31 870l905 -4l4 -186l-905 4z" />
<glyph unicode="&#x3e;" horiz-adv-x="1036" d="M31 168l755 432l-755 430l94 172l881 -508l-2 -190l-879 -508z" />
<glyph unicode="?" horiz-adv-x="827" d="M20 1051q0 177 95 283t258 120q12 2 33 2h16q32 0 67 -6q147 -23 232.5 -127.5t85.5 -265.5q0 -49 -7 -99.5t-27.5 -110t-52 -107.5t-86 -85.5t-124.5 -50.5l-6 -268h-230l-6 422q90 0 149 18t91 58t44.5 92t12.5 131q0 99 -40.5 152.5t-110.5 56.5q-70 -3 -111 -56.5 t-41 -152.5zM256 123q0 63 34 98t99 35q133 0 133 -133q0 -60 -37 -96.5t-96 -36.5q-60 0 -96.5 35t-36.5 98z" />
<glyph unicode="@" horiz-adv-x="1513" d="M61 602q0 193 43 345.5t128 261.5t218 167t308 58q346 0 520 -219.5t174 -612.5q0 -228 -77.5 -351.5t-252.5 -123.5q-138 0 -198 117q-63 -117 -201 -117q-178 0 -266 121.5t-88 343.5t88 343.5t266 121.5q101 0 160 -62v62h184v-467q0 -190 9 -246.5t50 -56.5 q27 0 47 9.5t32.5 32t20 45.5t10.5 64.5t4 74.5t1 89q0 658 -483 658q-246 0 -367 -171t-121 -487q0 -167 23 -284t78 -203.5t150.5 -128t236.5 -41.5q49 0 104 10l51 -172q-73 -12 -155 -12q-155 0 -274.5 39.5t-199 110t-130 175.5t-72 228.5t-21.5 277.5zM580 592 q0 -150 32 -227.5t111 -77.5q53 0 85 39t44 103.5t12 162.5t-12 162.5t-44 103.5t-85 39q-79 0 -111 -77.5t-32 -227.5z" />
<glyph unicode="A" horiz-adv-x="919" d="M20 41l320 1413h240l319 -1464l-242 -10l-49 262l-301 12l-45 -234zM342 428l227 2l-110 588z" />
<glyph unicode="B" horiz-adv-x="946" d="M121 1434h241q119 0 208 -24t142 -62.5t85.5 -94.5t43.5 -111.5t11 -121.5q0 -191 -117 -289q170 -110 170 -332q0 -81 -28.5 -149.5t-89.5 -125.5t-169.5 -90t-255.5 -34h-235zM362 190q300 0 300 218q0 125 -76 173t-224 48v-439zM362 819q125 0 185.5 46t60.5 163 q0 66 -15.5 108.5t-48.5 66t-75.5 32t-106.5 8.5v-424z" />
<glyph unicode="C" horiz-adv-x="946" d="M61 717q0 232 44.5 395.5t140 254.5t237.5 91q173 0 267 -133.5t124 -390.5l-249 -4q-12 159 -44.5 248.5t-97.5 89.5q-170 0 -170 -551t170 -551q137 0 164 332l248 8q-6 -59 -17.5 -113.5t-31.5 -117.5t-51.5 -114t-73.5 -94.5t-103.5 -67.5t-134.5 -24 q-211 0 -316.5 195t-105.5 547z" />
<glyph unicode="D" d="M121 1434h237h6q148 0 253 -46q107 -47 169.5 -141.5t90.5 -223.5t28 -306t-27.5 -305.5t-90 -222.5t-168 -141t-257.5 -48h-235zM358 1227l4 -1020q49 0 88.5 9t68.5 28t51 42.5t36.5 60t24 73t14.5 87.5t6.5 98.5t1.5 111.5q0 86 -3.5 147t-14 123.5t-31 103 t-52.5 73.5t-80.5 48t-113.5 15z" />
<glyph unicode="E" horiz-adv-x="813" d="M121 1434l608 10l-6 -197l-361 -2l-2 -547l336 7l2 -203l-338 4l-2 -316h379l-8 -198l-598 8z" />
<glyph unicode="F" horiz-adv-x="792" d="M111 1434h10l608 16l-4 -197l-363 -6l-2 -571l338 4l-6 -197l-332 2v-491l-239 2z" />
<glyph unicode="G" d="M61 717q0 232 44.5 395.5t140 254.5t237.5 91q175 0 267.5 -134.5t123.5 -393.5l-249 4q-8 82 -16.5 136t-24 102.5t-40.5 72t-61 23.5q-170 0 -170 -551t170 -551q131 0 162 332l-203 -9l-10 191l473 16q0 -68 -4.5 -132.5t-17.5 -138t-33 -136.5t-53 -122t-76 -100.5 t-104 -66.5t-134 -25q-211 0 -316.5 195t-105.5 547z" />
<glyph unicode="H" horiz-adv-x="970" d="M111 1434l241 6l6 -744l252 6l11 734l241 -4l-24 -1434l-238 4l8 506l-250 -4l4 -504l-241 -8z" />
<glyph unicode="I" horiz-adv-x="483" d="M121 1440l248 -4l-7 -1438l-235 -6z" />
<glyph unicode="J" horiz-adv-x="862" d="M10 221l217 90q14 -44 23.5 -65.5t26.5 -44.5t41.5 -30.5t60.5 -4.5q74 7 99 72q22 59 22 197v34l-15 965l236 18l20 -1063v-16q0 -192 -96 -293q-100 -105 -266 -105q-149 0 -229.5 54t-139.5 192z" />
<glyph unicode="K" horiz-adv-x="948" d="M109 1432l241 4l8 -521l295 531l265 -12l-373 -625l393 -809l-266 -16l-266 594l-39 -66l8 -510l-236 -10z" />
<glyph unicode="L" horiz-adv-x="772" d="M109 2l24 1434l246 -4l-25 -1242l381 7l-6 -209z" />
<glyph unicode="M" horiz-adv-x="1290" d="M104 0l23 1434l274 -2l244 -1045l242 1055l282 8l13 -1450l-234 -8v913l-209 -885l-186 -4l-211 881l-4 -903z" />
<glyph unicode="N" horiz-adv-x="1001" d="M115 16l10 1422l221 -4l313 -885l7 899l221 -2l-6 -1448h-25l-197 2q-44 132 -317 887l-2 -877z" />
<glyph unicode="O" d="M61 717q0 350 104 545.5t312 195.5q215 0 321.5 -193t106.5 -548t-106.5 -548.5t-321.5 -193.5q-208 0 -312 196t-104 546zM315 772q0 -582 170 -582t170 566q0 236 -40.5 379t-129.5 143q-88 0 -129 -139t-41 -367z" />
<glyph unicode="P" horiz-adv-x="925" d="M121 1434h241q149 0 257 -38.5t169 -108.5t89 -156t28 -193q0 -80 -15 -147t-53 -128.5t-98.5 -104t-156 -67.5t-220.5 -26v-465l-237 -6zM362 655q136 0 218 70t82 221q0 89 -23 149.5t-66.5 91.5t-93.5 43.5t-117 12.5v-588z" />
<glyph unicode="Q" horiz-adv-x="976" d="M61 717q0 232 44.5 395.5t140 254.5t237.5 91t237.5 -91t140 -254.5t44.5 -395.5q0 -427 -147 -611l147 -172l-149 -133l-154 193q-59 -19 -119 -19q-211 0 -316.5 195t-105.5 547zM317 729q0 -551 170 -551t170 551q0 116 -8.5 211.5t-27.5 174t-53 122t-81 43.5 t-81 -43.5t-53 -122t-27.5 -174t-8.5 -211.5z" />
<glyph unicode="R" horiz-adv-x="946" d="M121 1434h241q120 0 213.5 -24.5t155 -67t101 -103.5t56.5 -130t17 -151q0 -286 -215 -391q109 -104 162 -263t53 -308l-243 4q0 228 -86.5 366t-213.5 140v-506l-235 -4zM362 696q300 0 300 271q0 70 -16 120.5t-41.5 80.5t-66.5 47t-81.5 22.5t-94.5 5.5v-547z" />
<glyph unicode="S" horiz-adv-x="868" d="M43 430l242 -8q-2 -16 -2 -47q0 -112 37.5 -158.5t107.5 -46.5q73 0 116.5 54t43.5 155q0 45 -12 81t-42.5 70t-57.5 56.5t-81 62.5q-95 70 -150 118t-98.5 103t-60 111t-16.5 129q0 162 96.5 254t261.5 92q109 0 185 -28t116.5 -81.5t57.5 -118t18 -151.5l-238 2 q0 34 -2 57.5t-9 50t-20.5 42.5t-37.5 26.5t-58 10.5q-129 0 -129 -156q0 -76 49 -126.5t187 -139.5q282 -183 282 -465q0 -184 -108.5 -291.5t-292.5 -107.5q-210 0 -302 115q-84 105 -84 297q0 18 1 38z" />
<glyph unicode="T" horiz-adv-x="786" d="M29 1427l725 13l4 -191l-246 -4v-1253l-238 4l-4 1245l-237 -4z" />
<glyph unicode="U" d="M121 389v1045l241 -4v-918q0 -204 22.5 -275t98.5 -71t98.5 71t22.5 275v938l242 2v-1063q0 -209 -98 -311.5t-265 -102.5t-264.5 102.5t-97.5 311.5z" />
<glyph unicode="V" horiz-adv-x="919" d="M20 1427l242 15l197 -1022l198 1030l242 -10l-319 -1460h-240z" />
<glyph unicode="W" horiz-adv-x="1517" d="M20 1423l242 4l168 -1054l221 1040l215 4l221 -1038l168 1065l242 -6l-283 -1434l-241 -4l-213 1018l-215 -1038l-242 4z" />
<glyph unicode="X" horiz-adv-x="940" d="M31 0l305 752l-285 678l254 8l168 -402l162 406l254 -8l-287 -707l307 -731l-254 -6l-190 454l-182 -452z" />
<glyph unicode="Y" horiz-adv-x="901" d="M20 1427l261 11l170 -570l170 570l260 -11l-310 -921v-506l-241 -6v512z" />
<glyph unicode="Z" horiz-adv-x="905" d="M76 1419l747 17l2 -191l-483 -1059l487 -6l-4 -190l-741 10l4 190l477 1051l-483 -8z" />
<glyph unicode="[" horiz-adv-x="673" d="M111 -238v1764l483 4l-4 -195h-238l-6 -1382h252l-4 -197z" />
<glyph unicode="\" horiz-adv-x="733" d="M20 1446h205l488 -1768h-217z" />
<glyph unicode="]" horiz-adv-x="675" d="M84 -47h248l-6 1382h-238l-4 197l483 -6v-1764l-479 -4z" />
<glyph unicode="^" horiz-adv-x="1093" d="M31 961l391 473l123 147l518 -620l-135 -121l-383 448l-373 -442z" />
<glyph unicode="_" horiz-adv-x="638" d="M29 -229l4 186l577 4l-4 -190h-577z" />
<glyph unicode="`" horiz-adv-x="1228" d="M193 1802l118 119l269 -287l-103 -100z" />
<glyph unicode="a" horiz-adv-x="919" d="M20 41l320 1413h240l319 -1464l-242 -10l-49 262l-301 12l-45 -234zM342 428l227 2l-110 588z" />
<glyph unicode="b" horiz-adv-x="946" d="M121 1434h241q119 0 208 -24t142 -62.5t85.5 -94.5t43.5 -111.5t11 -121.5q0 -191 -117 -289q170 -110 170 -332q0 -81 -28.5 -149.5t-89.5 -125.5t-169.5 -90t-255.5 -34h-235zM362 190q300 0 300 218q0 125 -76 173t-224 48v-439zM362 819q125 0 185.5 46t60.5 163 q0 66 -15.5 108.5t-48.5 66t-75.5 32t-106.5 8.5v-424z" />
<glyph unicode="c" horiz-adv-x="946" d="M61 717q0 232 44.5 395.5t140 254.5t237.5 91q173 0 267 -133.5t124 -390.5l-249 -4q-12 159 -44.5 248.5t-97.5 89.5q-170 0 -170 -551t170 -551q137 0 164 332l248 8q-6 -59 -17.5 -113.5t-31.5 -117.5t-51.5 -114t-73.5 -94.5t-103.5 -67.5t-134.5 -24 q-211 0 -316.5 195t-105.5 547z" />
<glyph unicode="d" d="M121 1434h237h6q148 0 253 -46q107 -47 169.5 -141.5t90.5 -223.5t28 -306t-27.5 -305.5t-90 -222.5t-168 -141t-257.5 -48h-235zM358 1227l4 -1020q49 0 88.5 9t68.5 28t51 42.5t36.5 60t24 73t14.5 87.5t6.5 98.5t1.5 111.5q0 86 -3.5 147t-14 123.5t-31 103 t-52.5 73.5t-80.5 48t-113.5 15z" />
<glyph unicode="e" horiz-adv-x="813" d="M121 1434l608 10l-6 -197l-361 -2l-2 -547l336 7l2 -203l-338 4l-2 -316h379l-8 -198l-598 8z" />
<glyph unicode="f" horiz-adv-x="792" d="M111 1434h10l608 16l-4 -197l-363 -6l-2 -571l338 4l-6 -197l-332 2v-491l-239 2z" />
<glyph unicode="g" d="M61 717q0 232 44.5 395.5t140 254.5t237.5 91q175 0 267.5 -134.5t123.5 -393.5l-249 4q-8 82 -16.5 136t-24 102.5t-40.5 72t-61 23.5q-170 0 -170 -551t170 -551q131 0 162 332l-203 -9l-10 191l473 16q0 -68 -4.5 -132.5t-17.5 -138t-33 -136.5t-53 -122t-76 -100.5 t-104 -66.5t-134 -25q-211 0 -316.5 195t-105.5 547z" />
<glyph unicode="h" horiz-adv-x="970" d="M111 1434l241 6l6 -744l252 6l11 734l241 -4l-24 -1434l-238 4l8 506l-250 -4l4 -504l-241 -8z" />
<glyph unicode="i" horiz-adv-x="483" d="M121 1440l248 -4l-7 -1438l-235 -6z" />
<glyph unicode="j" horiz-adv-x="862" d="M10 221l217 90q14 -44 23.5 -65.5t26.5 -44.5t41.5 -30.5t60.5 -4.5q74 7 99 72q22 59 22 197v34l-15 965l236 18l20 -1063v-16q0 -192 -96 -293q-100 -105 -266 -105q-149 0 -229.5 54t-139.5 192z" />
<glyph unicode="k" horiz-adv-x="948" d="M109 1432l241 4l8 -521l295 531l265 -12l-373 -625l393 -809l-266 -16l-266 594l-39 -66l8 -510l-236 -10z" />
<glyph unicode="l" horiz-adv-x="772" d="M109 2l24 1434l246 -4l-25 -1242l381 7l-6 -209z" />
<glyph unicode="m" horiz-adv-x="1290" d="M104 0l23 1434l274 -2l244 -1045l242 1055l282 8l13 -1450l-234 -8v913l-209 -885l-186 -4l-211 881l-4 -903z" />
<glyph unicode="n" horiz-adv-x="1001" d="M115 16l10 1422l221 -4l313 -885l7 899l221 -2l-6 -1448h-25l-197 2q-44 132 -317 887l-2 -877z" />
<glyph unicode="o" d="M61 717q0 350 104 545.5t312 195.5q215 0 321.5 -193t106.5 -548t-106.5 -548.5t-321.5 -193.5q-208 0 -312 196t-104 546zM315 772q0 -582 170 -582t170 566q0 236 -40.5 379t-129.5 143q-88 0 -129 -139t-41 -367z" />
<glyph unicode="p" horiz-adv-x="925" d="M121 1434h241q149 0 257 -38.5t169 -108.5t89 -156t28 -193q0 -80 -15 -147t-53 -128.5t-98.5 -104t-156 -67.5t-220.5 -26v-465l-237 -6zM362 655q136 0 218 70t82 221q0 89 -23 149.5t-66.5 91.5t-93.5 43.5t-117 12.5v-588z" />
<glyph unicode="q" horiz-adv-x="976" d="M61 717q0 232 44.5 395.5t140 254.5t237.5 91t237.5 -91t140 -254.5t44.5 -395.5q0 -427 -147 -611l147 -172l-149 -133l-154 193q-59 -19 -119 -19q-211 0 -316.5 195t-105.5 547zM317 729q0 -551 170 -551t170 551q0 116 -8.5 211.5t-27.5 174t-53 122t-81 43.5 t-81 -43.5t-53 -122t-27.5 -174t-8.5 -211.5z" />
<glyph unicode="r" horiz-adv-x="946" d="M121 1434h241q120 0 213.5 -24.5t155 -67t101 -103.5t56.5 -130t17 -151q0 -286 -215 -391q109 -104 162 -263t53 -308l-243 4q0 228 -86.5 366t-213.5 140v-506l-235 -4zM362 696q300 0 300 271q0 70 -16 120.5t-41.5 80.5t-66.5 47t-81.5 22.5t-94.5 5.5v-547z" />
<glyph unicode="s" horiz-adv-x="868" d="M43 430l242 -8q-2 -16 -2 -47q0 -112 37.5 -158.5t107.5 -46.5q73 0 116.5 54t43.5 155q0 45 -12 81t-42.5 70t-57.5 56.5t-81 62.5q-95 70 -150 118t-98.5 103t-60 111t-16.5 129q0 162 96.5 254t261.5 92q109 0 185 -28t116.5 -81.5t57.5 -118t18 -151.5l-238 2 q0 34 -2 57.5t-9 50t-20.5 42.5t-37.5 26.5t-58 10.5q-129 0 -129 -156q0 -76 49 -126.5t187 -139.5q282 -183 282 -465q0 -184 -108.5 -291.5t-292.5 -107.5q-210 0 -302 115q-84 105 -84 297q0 18 1 38z" />
<glyph unicode="t" horiz-adv-x="786" d="M29 1427l725 13l4 -191l-246 -4v-1253l-238 4l-4 1245l-237 -4z" />
<glyph unicode="u" d="M121 389v1045l241 -4v-918q0 -204 22.5 -275t98.5 -71t98.5 71t22.5 275v938l242 2v-1063q0 -209 -98 -311.5t-265 -102.5t-264.5 102.5t-97.5 311.5z" />
<glyph unicode="v" horiz-adv-x="919" d="M20 1427l242 15l197 -1022l198 1030l242 -10l-319 -1460h-240z" />
<glyph unicode="w" horiz-adv-x="1517" d="M20 1423l242 4l168 -1054l221 1040l215 4l221 -1038l168 1065l242 -6l-283 -1434l-241 -4l-213 1018l-215 -1038l-242 4z" />
<glyph unicode="x" horiz-adv-x="940" d="M31 0l305 752l-285 678l254 8l168 -402l162 406l254 -8l-287 -707l307 -731l-254 -6l-190 454l-182 -452z" />
<glyph unicode="y" horiz-adv-x="901" d="M20 1427l261 11l170 -570l170 570l260 -11l-310 -921v-506l-241 -6v512z" />
<glyph unicode="z" horiz-adv-x="905" d="M76 1419l747 17l2 -191l-483 -1059l487 -6l-4 -190l-741 10l4 190l477 1051l-483 -8z" />
<glyph unicode="{" horiz-adv-x="710" d="M61 516v92v92h29q70 0 94.5 40.5t18.5 131.5q-6 90 -27 304q-13 139 69 240.5t238 101.5q62 0 144 -21q-2 -48 -2 -86t1 -51l1 -14q-58 8 -74 8q-70 0 -98.5 -34.5t-28.5 -113.5l23 -366q0 -101 -32.5 -154t-121.5 -78q89 -25 121.5 -77.5t32.5 -153.5l-23 -367 q0 -79 28.5 -113t98.5 -34q16 0 74 8q-4 -43 0 -152q-78 -20 -144 -20q-156 0 -238 101.5t-69 240.5q21 216 27 303q6 91 -18.5 131.5t-94.5 40.5h-29z" />
<glyph unicode="|" horiz-adv-x="483" d="M121 1440l241 4l-6 -1759l-229 -7z" />
<glyph unicode="}" horiz-adv-x="710" d="M84 -129q58 -8 74 -8q70 0 98.5 34t28.5 113l-23 367q0 101 32.5 153.5t121.5 77.5q-89 25 -121.5 78t-32.5 154l23 366q0 79 -28.5 113.5t-98.5 34.5q-16 0 -74 -8q4 42 0 151q82 21 143 21q156 0 238.5 -101.5t69.5 -240.5q-21 -214 -27 -304q-6 -91 18.5 -131.5 t94.5 -40.5h28v-92v-92h-28q-70 0 -94.5 -40.5t-18.5 -131.5q6 -87 27 -303q13 -139 -69.5 -240.5t-238.5 -101.5q-65 0 -143 20q2 48 2 86t-1 52z" />
<glyph unicode="~" horiz-adv-x="686" d="M31 575h135q0 3 0.5 8t3 17t7.5 21.5t16 17.5t26 8q24 0 64.5 -18t94 -36t109.5 -18q33 0 59 11.5t43.5 33.5t29 44t19 53.5t11 52.5t6.5 51h-137q0 -3 -0.5 -8t-4 -18.5t-9 -23.5t-17 -18t-26.5 -8q-33 0 -128 37t-132 37q-74 0 -122 -67.5t-48 -176.5z" />
<glyph unicode="&#xa1;" horiz-adv-x="485" d="M111 1001q0 60 37 97t96 37q60 0 96.5 -35.5t36.5 -98.5t-34 -98t-99 -35q-133 0 -133 133zM131 -319l10 1097l205 -6l10 -1087z" />
<glyph unicode="&#xa2;" horiz-adv-x="946" d="M61 717q0 201 74.5 328t224.5 163l-4 244l252 -4l-6 -238q234 -55 287 -348l-250 4q-12 92 -47 129t-109 37q-170 0 -170 -315q0 -316 170 -316q76 0 114 36.5t48 127.5l250 8q-8 -53 -25 -101.5t-49 -100.5t-87.5 -91.5t-129.5 -56.5l4 -229l-256 6l6 225 q-149 36 -223 163.5t-74 328.5z" />
<glyph unicode="&#xa3;" horiz-adv-x="862" d="M43 0v190q80 0 148.5 62.5t68.5 169.5q0 41 -29 123l-184 2l6 182h97l-5 10q-4 9 -24.5 48.5t-25.5 52t-19 49.5t-18.5 63t-9.5 68.5t-5 89.5q0 162 96.5 254t261.5 92q88 0 154.5 -19t108 -51t67.5 -81t36 -103t11 -123l-237 8q0 33 -2 56t-9 48t-20.5 40t-37.5 25 t-58 10q-129 0 -129 -156q0 -151 61 -270l55 -109l269 2l-6 -192l-185 2q15 -73 15 -121q0 -134 -74 -238l358 -4l-8 -190z" />
<glyph unicode="&#xa4;" horiz-adv-x="995" d="M27 1100l123 106l159 -202q71 43 193 43q118 0 190 -41l152 196l121 -106l-170 -207q39 -85 39 -240q0 -151 -41 -241l172 -205l-123 -105l-152 195q-69 -41 -188 -41q-126 0 -199 43l-147 -199l-125 107l176 217q-31 80 -31 229q0 143 33 228zM367 653 q0 -144 30.5 -195.5t106.5 -51.5q78 0 106.5 50.5t28.5 196.5q0 143 -28.5 192.5t-106.5 49.5q-76 0 -106.5 -50.5t-30.5 -191.5z" />
<glyph unicode="&#xa5;" horiz-adv-x="1028" d="M84 1415l260 19l170 -566l170 570l260 -11l-276 -827l141 2l-6 -186l-168 -2v-117l168 -2l6 -184l-174 2v-113h-242v113l-186 2l-6 184l192 -2v117l-192 -2l6 184l155 2z" />
<glyph unicode="&#xa6;" horiz-adv-x="483" d="M121 1438l241 6l-4 -668l-231 -4zM123 -317l2 659l237 4v-668z" />
<glyph unicode="&#xa7;" horiz-adv-x="679" d="M43 90h184q-6 -106 22 -151t87 -45q57 0 89 40.5t32 120.5q0 44 -20 80.5t-45.5 60t-80.5 64.5q-73 53 -115 89t-75.5 77.5t-46.5 84t-13 97.5q0 92 43 156t121 92q-90 72 -127 133.5t-37 149.5q0 122 75 193t200 71q83 0 140 -21t88 -61t44.5 -89.5t14.5 -115.5h-181 q0 34 -3 55.5t-12 44t-30 33.5t-53 11q-98 0 -98 -121q0 -56 38.5 -95.5t143.5 -107.5q147 -96 193 -223q5 -13 14 -54q6 -37 6 -73q0 -175 -121 -254q121 -118 121 -277q0 -141 -83 -223t-222 -82q-159 0 -229 86.5t-64 253.5zM246 608q0 -51 30 -87t105 -85q36 12 57 51 t21 99q0 17 -5.5 38.5t-17.5 45t-36 39.5t-56 16q-98 0 -98 -117z" />
<glyph unicode="&#xa8;" horiz-adv-x="1228" d="M207 1638q0 47 26 74t74 27q45 0 72 -24.5t27 -76.5q0 -44 -28 -72t-71 -28q-45 0 -72.5 26.5t-27.5 73.5zM514 1638q0 47 26 74t74 27q45 0 72 -24.5t27 -76.5q0 -44 -28 -72t-71 -28q-45 0 -72.5 26.5t-27.5 73.5z" />
<glyph unicode="&#xa9;" horiz-adv-x="1155" d="M61 717q0 384 127.5 565.5t389.5 181.5q261 0 388.5 -180.5t127.5 -566.5q0 -384 -128 -566t-388 -182q-261 0 -389 181t-128 567zM156 717q0 -347 105 -511.5t317 -164.5q211 0 316 165t105 511q0 347 -104.5 511.5t-316.5 164.5q-213 0 -317.5 -165t-104.5 -511z M262 717q0 266 78.5 411.5t237.5 145.5q259 0 305 -397l-187 4q-12 121 -39 186.5t-79 65.5q-127 0 -127 -416t127 -416q102 0 122 254l187 4q-5 -54 -16 -103.5t-34 -105.5t-55.5 -96.5t-85 -67t-118.5 -26.5q-159 0 -237.5 145.5t-78.5 411.5z" />
<glyph unicode="&#xab;" horiz-adv-x="913" d="M31 569l176 416l221 -4l-172 -412l174 -417l-223 -5zM481 565l176 418l222 -4l-172 -414l176 -411l-226 -2z" />
<glyph unicode="&#xac;" horiz-adv-x="1003" d="M31 680l942 2v-555l-242 4l6 361l-700 2z" />
<glyph unicode="&#xad;" horiz-adv-x="616" d="M20 684l576 -2l-4 -190l-565 -5z" />
<glyph unicode="&#xae;" horiz-adv-x="768" d="M61 1065q0 250 75.5 358.5t246.5 108.5q172 0 248 -108t76 -359t-76.5 -360t-247.5 -109t-246.5 108.5t-75.5 360.5zM119 1065q0 -229 61.5 -326.5t202.5 -97.5t203.5 98.5t62.5 325.5t-62.5 324.5t-203.5 97.5q-140 0 -202 -98t-62 -324zM225 766v608h105q123 0 177 -55 t54 -148q0 -120 -92 -163q47 -44 69.5 -111t22.5 -131h-102q0 96 -38 155.5t-91 59.5v-215h-105zM330 1061q129 0 129 117q0 68 -33.5 90t-95.5 22v-229z" />
<glyph unicode="&#xaf;" horiz-adv-x="1228" d="M170 1538v191h578v-191h-578z" />
<glyph unicode="&#xb0;" horiz-adv-x="454" d="M31 1178q0 134 49.5 209t146.5 75q98 0 147.5 -75t49.5 -209t-50 -209.5t-147 -75.5q-196 0 -196 285zM160 1178q0 -183 67 -183q68 0 68 183q0 182 -68 182q-67 0 -67 -182z" />
<glyph unicode="&#xb1;" horiz-adv-x="970" d="M31 328l905 -4l4 -191l-905 6zM31 825l338 -2l-2 215l241 4l-2 -219l328 -2l6 -186l-336 2l-2 -215h-231l-2 215l-332 2z" />
<glyph unicode="&#xb4;" horiz-adv-x="1228" d="M340 1634l268 287l119 -119l-285 -268z" />
<glyph unicode="&#xb6;" horiz-adv-x="1206" d="M20 1044q0 84 22 151.5t69.5 122.5t132.5 85.5t202 30.5h242l-4 -1438l-233 4l-5 674q-426 0 -426 370zM844 1436l237 -6l4 -1434l-239 4z" />
<glyph unicode="&#xb7;" horiz-adv-x="507" d="M121 602q0 63 34 98t99 35q133 0 133 -133q0 -60 -37 -96.5t-96 -36.5q-60 0 -96.5 35t-36.5 98z" />
<glyph unicode="&#xb8;" horiz-adv-x="1228" d="M309 -285h111q0 -90 69 -96q70 7 70 96q0 72 -28 103.5t-107 31.5v195h108v-123q40 -8 69 -31.5t43 -55.5t20 -61.5t6 -58.5q0 -74 -39.5 -121.5t-106.5 -58.5q-10 -2 -32 -2h-3h-2h-16q-74 8 -118 56.5t-44 125.5z" />
<glyph unicode="&#xbb;" horiz-adv-x="913" d="M31 147l176 418l-176 418l225 -4l176 -414l-180 -413zM481 152l181 417l-181 418l221 -2l181 -416l-176 -413z" />
<glyph unicode="&#xbf;" horiz-adv-x="927" d="M121 47q0 49 7 99.5t27.5 110t52 107.5t86 85.5t124.5 50.5l6 268h229l6 -422q-90 0 -149 -18t-91 -58t-44.5 -92t-12.5 -131q0 -99 41 -152.5t111 -56.5q70 3 111 56.5t41 152.5l241 6q0 -176 -95 -283.5t-257 -119.5q-12 -2 -33 -2h-16q-33 0 -68 6q-147 23 -232 127 t-85 266zM406 981q0 60 37 96.5t96 36.5q60 0 96.5 -35t36.5 -98t-34 -98t-99 -35q-133 0 -133 133z" />
<glyph unicode="&#xc0;" horiz-adv-x="919" d="M20 41l320 1413h240l319 -1464l-242 -10l-49 262l-301 12l-45 -234zM193 1802l118 119l269 -287l-103 -100zM342 428l227 2l-110 588z" />
<glyph unicode="&#xc1;" horiz-adv-x="919" d="M20 41l320 1413h240l319 -1464l-242 -10l-49 262l-301 12l-45 -234zM340 1634l268 287l119 -119l-285 -268zM342 428l227 2l-110 588z" />
<glyph unicode="&#xc2;" horiz-adv-x="919" d="M20 41l320 1413h240l319 -1464l-242 -10l-49 262l-301 12l-45 -234zM193 1624l266 318l266 -318l-109 -90l-157 188l-158 -188zM342 428l227 2l-110 588z" />
<glyph unicode="&#xc3;" horiz-adv-x="919" d="M20 41l320 1413h240l319 -1464l-242 -10l-49 262l-301 12l-45 -234zM145 1532q0 109 48 176.5t122 67.5q37 0 132 -37t128 -37q24 0 38.5 19t16.5 38l3 19h137q-3 -30 -6.5 -51t-11 -52.5t-19 -53.5t-29 -44t-43.5 -33.5t-59 -11.5q-56 0 -109.5 18t-94 36t-64.5 18 t-37 -18t-15 -36l-1 -18h-136zM342 428l227 2l-110 588z" />
<glyph unicode="&#xc4;" horiz-adv-x="919" d="M20 41l320 1413h240l319 -1464l-242 -10l-49 262l-301 12l-45 -234zM207 1638q0 47 26 74t74 27q45 0 72 -24.5t27 -76.5q0 -44 -28 -72t-71 -28q-45 0 -72.5 26.5t-27.5 73.5zM342 428l227 2l-110 588zM514 1638q0 47 26 74t74 27q45 0 72 -24.5t27 -76.5q0 -44 -28 -72 t-71 -28q-45 0 -72.5 26.5t-27.5 73.5z" />
<glyph unicode="&#xc5;" horiz-adv-x="919" d="M20 41l320 1413h240l319 -1464l-242 -10l-49 262l-301 12l-45 -234zM272 1718q0 90 47 141.5t140 51.5t139.5 -51t46.5 -142q0 -90 -46.5 -141t-139.5 -51q-101 0 -144 50t-43 142zM342 428l227 2l-110 588zM381 1718q0 -110 78 -110t78 110q0 111 -78 111t-78 -111z" />
<glyph unicode="&#xc7;" horiz-adv-x="946" d="M61 717q0 232 44.5 395.5t140 254.5t237.5 91q173 0 267 -133.5t124 -390.5l-249 -4q-12 159 -44.5 248.5t-97.5 89.5q-170 0 -170 -551t170 -551q137 0 164 332l248 8q-7 -67 -20 -129t-40.5 -133t-66 -124.5t-99.5 -93.5t-137 -49v-55q40 -8 69 -31.5t43 -55.5 t20 -61.5t6 -58.5q0 -74 -39.5 -121.5t-106.5 -58.5q-10 -2 -32 -2h-3h-2h-16q-73 7 -116.5 58.5t-43.5 129.5l109 -6q0 -90 69 -96q70 7 70 96q0 72 -28 103.5t-107 31.5v130q-182 27 -272.5 219t-90.5 518z" />
<glyph unicode="&#xc8;" horiz-adv-x="813" d="M121 1434l608 10l-6 -197l-361 -2l-2 -547l336 7l2 -203l-338 4l-2 -316h379l-8 -198l-598 8zM193 1802l118 119l269 -287l-103 -100z" />
<glyph unicode="&#xc9;" horiz-adv-x="813" d="M121 1434l608 10l-6 -197l-361 -2l-2 -547l336 7l2 -203l-338 4l-2 -316h379l-8 -198l-598 8zM233 1634l269 287l119 -119l-285 -268z" />
<glyph unicode="&#xca;" horiz-adv-x="813" d="M121 1434l608 10l-6 -197l-361 -2l-2 -547l336 7l2 -203l-338 4l-2 -316h379l-8 -198l-598 8zM156 1624l266 318l266 -318l-108 -90l-158 188l-158 -188z" />
<glyph unicode="&#xcb;" horiz-adv-x="813" d="M121 1434l608 10l-6 -197l-361 -2l-2 -547l336 7l2 -203l-338 4l-2 -316h379l-8 -198l-598 8zM172 1638q0 47 26 74t74 27q45 0 72 -24.5t27 -76.5q0 -44 -28 -72t-71 -28q-45 0 -72.5 26.5t-27.5 73.5zM479 1638q0 47 26 74t75 27q45 0 71.5 -24.5t26.5 -76.5 q0 -44 -27.5 -72t-70.5 -28q-45 0 -73 27t-28 73z" />
<glyph unicode="&#xcc;" horiz-adv-x="483" d="M-25 1802l119 119l268 -287l-102 -100zM121 1442l248 -6l-7 -1436l-235 -10z" />
<glyph unicode="&#xcd;" horiz-adv-x="483" d="M121 1442l248 -6l-7 -1436l-235 -10zM121 1634l268 287l119 -119l-285 -268z" />
<glyph unicode="&#xce;" horiz-adv-x="483" d="M-27 1624l267 318l266 -318l-109 -90l-157 188l-158 -188zM121 1442l248 -6l-7 -1436l-235 -10z" />
<glyph unicode="&#xcf;" horiz-adv-x="483" d="M-10 1638q0 47 26 74t74 27q45 0 71.5 -24.5t26.5 -76.5q0 -44 -27.5 -72t-70.5 -28q-45 0 -72.5 26.5t-27.5 73.5zM121 1442l248 -6l-7 -1436l-235 -10zM295 1638q0 47 26 74t74 27q45 0 72 -24.5t27 -76.5q0 -44 -28 -72t-71 -28q-45 0 -72.5 26.5t-27.5 73.5z" />
<glyph unicode="&#xd0;" d="M25 631v190h96v613h237q152 1 259 -46t169.5 -141.5t90.5 -223.5t28 -306t-27.5 -305.5t-90 -222.5t-168 -141t-257.5 -48h-241v631h-96zM358 1227l2 -406h134v-190h-134l2 -424q49 0 88.5 9t68.5 28t51 42.5t36.5 60t24 73t14.5 87.5t6.5 98.5t1.5 111.5q0 86 -3.5 147 t-14 123.5t-31 103t-52.5 73.5t-80.5 48t-113.5 15z" />
<glyph unicode="&#xd1;" horiz-adv-x="1001" d="M115 16l10 1422l221 -4l313 -885l7 899l221 -2l-6 -1448h-25l-197 2q-44 132 -317 887l-2 -877zM195 1532h135q0 3 0.5 8t3 17t7.5 21.5t16 17.5t26 8q24 0 64.5 -18t94 -36t109.5 -18q33 0 59 11.5t43.5 33.5t29 44t19 53.5t11 52.5t6.5 51h-137q0 -3 -0.5 -8t-4 -18.5 t-9 -23.5t-17 -18t-26.5 -8q-33 0 -128 37t-132 37q-74 0 -122 -67.5t-48 -176.5z" />
<glyph unicode="&#xd2;" d="M61 717q0 350 104 545.5t312 195.5q215 0 321.5 -193t106.5 -548t-106.5 -548.5t-321.5 -193.5q-208 0 -312 196t-104 546zM289 1802l119 119l268 -287l-103 -100zM315 772q0 -582 170 -582t170 566q0 236 -40.5 379t-129.5 143q-88 0 -129 -139t-41 -367z" />
<glyph unicode="&#xd3;" d="M61 717q0 350 104 545.5t312 195.5q215 0 321.5 -193t106.5 -548t-106.5 -548.5t-321.5 -193.5q-208 0 -312 196t-104 546zM295 1634l268 287l119 -119l-285 -268zM315 772q0 -582 170 -582t170 566q0 236 -40.5 379t-129.5 143q-88 0 -129 -139t-41 -367z" />
<glyph unicode="&#xd4;" d="M61 717q0 350 104 545.5t312 195.5q215 0 321.5 -193t106.5 -548t-106.5 -548.5t-321.5 -193.5q-208 0 -312 196t-104 546zM217 1624l266 318l267 -318l-109 -90l-158 188l-157 -188zM315 772q0 -582 170 -582t170 566q0 236 -40.5 379t-129.5 143q-88 0 -129 -139 t-41 -367z" />
<glyph unicode="&#xd5;" d="M61 717q0 350 104 545.5t312 195.5q215 0 321.5 -193t106.5 -548t-106.5 -548.5t-321.5 -193.5q-208 0 -312 196t-104 546zM174 1532h135q0 3 0.5 8t3 17t7.5 21.5t16 17.5t26 8q24 0 64.5 -18t94.5 -36t110 -18q33 0 59 11.5t43.5 33.5t29 44t19 53.5t11 52.5t6.5 51 h-137q-1 -9 -3 -21.5t-16.5 -33.5t-38.5 -21q-34 0 -128.5 37t-131.5 37q-74 0 -122 -67.5t-48 -176.5zM315 772q0 -582 170 -582t170 566q0 236 -40.5 379t-129.5 143q-88 0 -129 -139t-41 -367z" />
<glyph unicode="&#xd6;" d="M61 717q0 350 104 545.5t312 195.5q215 0 321.5 -193t106.5 -548t-106.5 -548.5t-321.5 -193.5q-208 0 -312 196t-104 546zM231 1638q0 47 26 74t75 27q45 0 71.5 -24.5t26.5 -76.5q0 -44 -27.5 -72t-70.5 -28q-45 0 -73 27t-28 73zM315 772q0 -582 170 -582t170 566 q0 236 -40.5 379t-129.5 143q-88 0 -129 -139t-41 -367zM537 1638q0 47 26 74t74 27q45 0 71.5 -24.5t26.5 -76.5q0 -44 -27.5 -72t-70.5 -28q-45 0 -72.5 26.5t-27.5 73.5z" />
<glyph unicode="&#xd7;" horiz-adv-x="858" d="M31 342l245 246l-245 243l159 158l242 -246l242 242l153 -154l-241 -243l241 -246l-161 -145l-234 233l-242 -246z" />
<glyph unicode="&#xd8;" horiz-adv-x="1085" d="M61 57l115 209q-61 180 -61 451q0 350 103.5 545.5t311.5 195.5q152 0 250 -98l70 125l174 -103l-125 -225q59 -171 59 -440q0 -355 -106.5 -548.5t-321.5 -193.5q-137 0 -231 91l-61 -111zM369 772q0 -105 4 -154l291 531q-44 129 -125 129q-88 0 -129 -139t-41 -367z M424 293q44 -103 115 -103q170 0 170 566v53z" />
<glyph unicode="&#xd9;" d="M121 389v1045l241 -4v-918q0 -204 22.5 -275t98.5 -71t98.5 71t22.5 275v938l242 2v-1063q0 -209 -98 -311.5t-265 -102.5t-264.5 102.5t-97.5 311.5zM303 1802l119 119l268 -287l-102 -100z" />
<glyph unicode="&#xda;" d="M121 389v1045l241 -4v-918q0 -204 22.5 -275t98.5 -71t98.5 71t22.5 275v938l242 2v-1063q0 -209 -98 -311.5t-265 -102.5t-264.5 102.5t-97.5 311.5zM307 1634l268 287l119 -119l-284 -268z" />
<glyph unicode="&#xdb;" d="M121 389v1045l241 -4v-918q0 -204 22.5 -275t98.5 -71t98.5 71t22.5 275v938l242 2v-1063q0 -209 -98 -311.5t-265 -102.5t-264.5 102.5t-97.5 311.5zM217 1624l266 318l267 -318l-109 -90l-158 188l-157 -188z" />
<glyph unicode="&#xdc;" d="M121 389v1045l241 -4v-918q0 -204 22.5 -275t98.5 -71t98.5 71t22.5 275v938l242 2v-1063q0 -209 -98 -311.5t-265 -102.5t-264.5 102.5t-97.5 311.5zM229 1638q0 47 26 74t75 27q45 0 71.5 -24.5t26.5 -76.5q0 -44 -27.5 -72t-70.5 -28q-45 0 -73 27t-28 73zM539 1638 q0 47 26 74t74 27q45 0 71.5 -24.5t26.5 -76.5q0 -44 -27.5 -72t-70.5 -28q-45 0 -72.5 26.5t-27.5 73.5z" />
<glyph unicode="&#xdd;" horiz-adv-x="901" d="M20 1427l261 11l170 -570l170 570l260 -11l-310 -921v-506l-241 -6v512zM289 1634l268 287l119 -119l-285 -268z" />
<glyph unicode="&#xde;" horiz-adv-x="925" d="M121 1434l241 4v-207q149 0 257 -38.5t169 -108.5t89 -156t28 -193q0 -80 -15 -147t-53 -128.5t-98.5 -104t-156 -67.5t-220.5 -26v-262l-237 -4zM362 453q136 0 218 69.5t82 220.5q0 89 -23 149.5t-66.5 91.5t-93.5 43.5t-117 12.5v-587z" />
<glyph unicode="&#xe0;" horiz-adv-x="919" d="M20 41l320 1413h240l319 -1464l-242 -10l-49 262l-301 12l-45 -234zM193 1802l118 119l269 -287l-103 -100zM342 428l227 2l-110 588z" />
<glyph unicode="&#xe1;" horiz-adv-x="919" d="M20 41l320 1413h240l319 -1464l-242 -10l-49 262l-301 12l-45 -234zM266 1634l269 287l118 -119l-284 -268zM342 428l227 2l-110 588z" />
<glyph unicode="&#xe2;" horiz-adv-x="919" d="M20 41l320 1413h240l319 -1464l-242 -10l-49 262l-301 12l-45 -234zM193 1624l266 318l266 -318l-109 -90l-157 188l-158 -188zM342 428l227 2l-110 588z" />
<glyph unicode="&#xe3;" horiz-adv-x="919" d="M20 41l320 1413h240l319 -1464l-242 -10l-49 262l-301 12l-45 -234zM195 1532q0 109 48 176.5t122 67.5q37 0 132 -37t128 -37q24 0 38 19t17 38l2 19h137q-3 -30 -6.5 -51t-11 -52.5t-19 -53.5t-29 -44t-43.5 -33.5t-59 -11.5q-56 0 -109.5 18t-94 36t-64.5 18t-37 -18 t-14 -36l-2 -18h-135zM342 428l227 2l-110 588z" />
<glyph unicode="&#xe4;" horiz-adv-x="919" d="M20 41l320 1413h240l319 -1464l-242 -10l-49 262l-301 12l-45 -234zM207 1638q0 47 26 74t74 27q45 0 72 -24.5t27 -76.5q0 -44 -28 -72t-71 -28q-45 0 -72.5 26.5t-27.5 73.5zM342 428l227 2l-110 588zM514 1638q0 47 26 74t74 27q45 0 72 -24.5t27 -76.5q0 -44 -28 -72 t-71 -28q-45 0 -72.5 26.5t-27.5 73.5z" />
<glyph unicode="&#xe5;" horiz-adv-x="919" d="M20 41l320 1413h240l319 -1464l-242 -10l-49 262l-301 12l-45 -234zM272 1718q0 90 47 141.5t140 51.5t139.5 -51t46.5 -142q0 -90 -46.5 -141t-139.5 -51q-101 0 -144 50t-43 142zM342 428l227 2l-110 588zM381 1718q0 -110 78 -110t78 110q0 111 -78 111t-78 -111z" />
<glyph unicode="&#xe7;" horiz-adv-x="946" d="M61 717q0 232 44.5 395.5t140 254.5t237.5 91q173 0 267 -133.5t124 -390.5l-249 -4q-12 159 -44.5 248.5t-97.5 89.5q-170 0 -170 -551t170 -551q137 0 164 332l248 8q-7 -67 -20 -129t-40.5 -133t-66 -124.5t-99.5 -93.5t-137 -49v-55q40 -8 69 -31.5t43 -55.5 t20 -61.5t6 -58.5q0 -74 -39.5 -121.5t-106.5 -58.5q-10 -2 -32 -2h-3h-2h-16q-74 8 -118 56.5t-44 125.5h111q0 -90 69 -96q70 7 70 96q0 72 -28 103.5t-107 31.5v130q-182 27 -272.5 219t-90.5 518z" />
<glyph unicode="&#xe8;" horiz-adv-x="813" d="M121 1434l608 10l-6 -197l-361 -2l-2 -547l336 7l2 -203l-338 4l-2 -316h379l-8 -198l-598 8zM223 1802l119 119l268 -287l-102 -100z" />
<glyph unicode="&#xe9;" horiz-adv-x="813" d="M121 1434l608 10l-6 -197l-361 -2l-2 -547l336 7l2 -203l-338 4l-2 -316h379l-8 -198l-598 8zM246 1634l268 287l119 -119l-285 -268z" />
<glyph unicode="&#xea;" horiz-adv-x="813" d="M121 1434l608 10l-6 -197l-361 -2l-2 -547l336 7l2 -203l-338 4l-2 -316h379l-8 -198l-598 8zM156 1624l266 318l266 -318l-108 -90l-158 188l-158 -188z" />
<glyph unicode="&#xeb;" horiz-adv-x="813" d="M121 1434l608 10l-6 -197l-361 -2l-2 -547l336 7l2 -203l-338 4l-2 -316h379l-8 -198l-598 8zM174 1638q0 47 26 74t74 27q45 0 72 -24.5t27 -76.5q0 -44 -28 -72t-71 -28q-45 0 -72.5 26.5t-27.5 73.5zM481 1638q0 47 26 74t75 27q45 0 71.5 -24.5t26.5 -76.5 q0 -44 -27.5 -72t-70.5 -28q-45 0 -73 27t-28 73z" />
<glyph unicode="&#xec;" horiz-adv-x="483" d="M-25 1802l119 119l268 -287l-102 -100zM121 1442l248 -6l-7 -1436l-235 -10z" />
<glyph unicode="&#xed;" horiz-adv-x="483" d="M121 1442l248 -6l-7 -1436l-235 -10zM121 1634l268 287l119 -119l-285 -268z" />
<glyph unicode="&#xee;" horiz-adv-x="483" d="M-27 1624l267 318l266 -318l-109 -90l-157 188l-158 -188zM121 1442l248 -6l-7 -1436l-235 -10z" />
<glyph unicode="&#xef;" horiz-adv-x="483" d="M-10 1638q0 47 26 74t74 27q45 0 71.5 -24.5t26.5 -76.5q0 -44 -27.5 -72t-70.5 -28q-45 0 -72.5 26.5t-27.5 73.5zM121 1442l248 -6l-7 -1436l-235 -10zM295 1638q0 47 26 74t74 27q45 0 72 -24.5t27 -76.5q0 -44 -28 -72t-71 -28q-45 0 -72.5 26.5t-27.5 73.5z" />
<glyph unicode="&#xf1;" horiz-adv-x="1001" d="M115 16l10 1422l221 -4l313 -885l7 899l221 -2l-6 -1448h-25l-197 2q-44 132 -317 887l-2 -877zM195 1532h135q0 3 0.5 8t3 17t7.5 21.5t16 17.5t26 8q24 0 64.5 -18t94 -36t109.5 -18q33 0 59 11.5t43.5 33.5t29 44t19 53.5t11 52.5t6.5 51h-137q0 -3 -0.5 -8t-4 -18.5 t-9 -23.5t-17 -18t-26.5 -8q-33 0 -128 37t-132 37q-74 0 -122 -67.5t-48 -176.5z" />
<glyph unicode="&#xf2;" d="M61 717q0 350 104 545.5t312 195.5q215 0 321.5 -193t106.5 -548t-106.5 -548.5t-321.5 -193.5q-208 0 -312 196t-104 546zM283 1802l118 119l269 -287l-103 -100zM315 772q0 -582 170 -582t170 566q0 236 -40.5 379t-129.5 143q-88 0 -129 -139t-41 -367z" />
<glyph unicode="&#xf3;" d="M61 717q0 350 104 545.5t312 195.5q215 0 321.5 -193t106.5 -548t-106.5 -548.5t-321.5 -193.5q-208 0 -312 196t-104 546zM289 1634l268 287l119 -119l-285 -268zM315 772q0 -582 170 -582t170 566q0 236 -40.5 379t-129.5 143q-88 0 -129 -139t-41 -367z" />
<glyph unicode="&#xf4;" d="M61 717q0 350 104 545.5t312 195.5q215 0 321.5 -193t106.5 -548t-106.5 -548.5t-321.5 -193.5q-208 0 -312 196t-104 546zM205 1624l266 318l266 -318l-108 -90l-158 188l-158 -188zM315 772q0 -582 170 -582t170 566q0 236 -40.5 379t-129.5 143q-88 0 -129 -139 t-41 -367z" />
<glyph unicode="&#xf5;" d="M61 717q0 350 104 545.5t312 195.5q215 0 321.5 -193t106.5 -548t-106.5 -548.5t-321.5 -193.5q-208 0 -312 196t-104 546zM195 1532h135q0 3 0.5 8t3 17t7.5 21.5t16 17.5t26 8q24 0 64.5 -18t94 -36t109.5 -18q33 0 59 11.5t43.5 33.5t29 44t19 53.5t11 52.5t6.5 51 h-137q0 -3 -0.5 -8t-4 -18.5t-9 -23.5t-17 -18t-26.5 -8q-33 0 -128 37t-132 37q-74 0 -122 -67.5t-48 -176.5zM315 772q0 -582 170 -582t170 566q0 236 -40.5 379t-129.5 143q-88 0 -129 -139t-41 -367z" />
<glyph unicode="&#xf6;" d="M61 717q0 350 104 545.5t312 195.5q215 0 321.5 -193t106.5 -548t-106.5 -548.5t-321.5 -193.5q-208 0 -312 196t-104 546zM207 1638q0 47 26 74t74 27q45 0 72 -24.5t27 -76.5q0 -44 -28 -72t-71 -28q-45 0 -72.5 26.5t-27.5 73.5zM315 772q0 -582 170 -582t170 566 q0 236 -40.5 379t-129.5 143q-88 0 -129 -139t-41 -367zM514 1638q0 47 26 74t74 27q45 0 72 -24.5t27 -76.5q0 -44 -28 -72t-71 -28q-45 0 -72.5 26.5t-27.5 73.5z" />
<glyph unicode="&#xf7;" horiz-adv-x="1077" d="M84 492l4 186l905 4l-4 -186zM406 262q0 63 34 98t99 35q133 0 133 -133q0 -60 -37 -96.5t-96 -36.5q-60 0 -96.5 35t-36.5 98zM406 911q0 63 34 98t99 35q133 0 133 -133q0 -60 -37 -96.5t-96 -36.5q-60 0 -96.5 35t-36.5 98z" />
<glyph unicode="&#xf8;" horiz-adv-x="1085" d="M61 57l115 209q-61 180 -61 451q0 350 103.5 545.5t311.5 195.5q152 0 250 -98l70 125l174 -103l-125 -225q59 -171 59 -440q0 -355 -106.5 -548.5t-321.5 -193.5q-137 0 -231 91l-61 -111zM369 772q0 -105 4 -154l291 531q-44 129 -125 129q-88 0 -129 -139t-41 -367z M424 293q44 -103 115 -103q170 0 170 566v53z" />
<glyph unicode="&#xf9;" d="M121 389v1045l241 -4v-918q0 -204 22.5 -275t98.5 -71t98.5 71t22.5 275v938l242 2v-1063q0 -209 -98 -311.5t-265 -102.5t-264.5 102.5t-97.5 311.5zM193 1802l118 119l269 -287l-103 -100z" />
<glyph unicode="&#xfa;" d="M121 389v1045l241 -4v-918q0 -204 22.5 -275t98.5 -71t98.5 71t22.5 275v938l242 2v-1063q0 -209 -98 -311.5t-265 -102.5t-264.5 102.5t-97.5 311.5zM340 1634l268 287l119 -119l-285 -268z" />
<glyph unicode="&#xfb;" d="M121 389v1045l241 -4v-918q0 -204 22.5 -275t98.5 -71t98.5 71t22.5 275v938l242 2v-1063q0 -209 -98 -311.5t-265 -102.5t-264.5 102.5t-97.5 311.5zM193 1624l266 318l266 -318l-109 -90l-157 188l-158 -188z" />
<glyph unicode="&#xfc;" d="M121 389v1045l241 -4v-918q0 -204 22.5 -275t98.5 -71t98.5 71t22.5 275v938l242 2v-1063q0 -209 -98 -311.5t-265 -102.5t-264.5 102.5t-97.5 311.5zM207 1638q0 47 26 74t74 27q45 0 72 -24.5t27 -76.5q0 -44 -28 -72t-71 -28q-45 0 -72.5 26.5t-27.5 73.5zM514 1638 q0 47 26 74t74 27q45 0 72 -24.5t27 -76.5q0 -44 -28 -72t-71 -28q-45 0 -72.5 26.5t-27.5 73.5z" />
<glyph unicode="&#x178;" horiz-adv-x="901" d="M20 1427l261 11l170 -570l170 570l260 -11l-310 -921v-506l-241 -6v512zM195 1638q0 47 26 74t74 27q45 0 71.5 -24.5t26.5 -76.5q0 -44 -27.5 -72t-70.5 -28q-45 0 -72.5 26.5t-27.5 73.5zM504 1638q0 47 26 74t74 27q45 0 71.5 -24.5t26.5 -76.5q0 -44 -27.5 -72 t-70.5 -28q-45 0 -72.5 26.5t-27.5 73.5z" />
<glyph unicode="&#x2c6;" horiz-adv-x="1228" d="M193 1624l266 318l266 -318l-109 -90l-157 188l-158 -188z" />
<glyph unicode="&#x2dc;" horiz-adv-x="1228" d="M195 1532h135q0 3 0.5 8t3 17t7.5 21.5t16 17.5t26 8q24 0 64.5 -18t94 -36t109.5 -18q33 0 59 11.5t43.5 33.5t29 44t19 53.5t11 52.5t6.5 51h-137q0 -3 -0.5 -8t-4 -18.5t-9 -23.5t-17 -18t-26.5 -8q-33 0 -128 37t-132 37q-74 0 -122 -67.5t-48 -176.5z" />
<glyph unicode="&#x2000;" horiz-adv-x="971" />
<glyph unicode="&#x2001;" horiz-adv-x="1942" />
<glyph unicode="&#x2002;" horiz-adv-x="971" />
<glyph unicode="&#x2003;" horiz-adv-x="1942" />
<glyph unicode="&#x2004;" horiz-adv-x="647" />
<glyph unicode="&#x2005;" horiz-adv-x="485" />
<glyph unicode="&#x2006;" horiz-adv-x="323" />
<glyph unicode="&#x2007;" horiz-adv-x="323" />
<glyph unicode="&#x2008;" horiz-adv-x="242" />
<glyph unicode="&#x2009;" horiz-adv-x="388" />
<glyph unicode="&#x200a;" horiz-adv-x="107" />
<glyph unicode="&#x2010;" horiz-adv-x="616" d="M20 684l576 -2l-4 -190l-565 -5z" />
<glyph unicode="&#x2011;" horiz-adv-x="616" d="M20 684l576 -2l-4 -190l-565 -5z" />
<glyph unicode="&#x2012;" horiz-adv-x="616" d="M20 684l576 -2l-4 -190l-565 -5z" />
<glyph unicode="&#x2013;" horiz-adv-x="950" d="M20 492l5 194l905 -4l-4 -186z" />
<glyph unicode="&#x2014;" horiz-adv-x="2091" d="M20 492l5 186l2046 4l-3 -190h-2048z" />
<glyph unicode="&#x2018;" horiz-adv-x="423" d="M20 891l187 543h196l-145 -543h-238z" />
<glyph unicode="&#x2019;" horiz-adv-x="423" d="M20 891l146 543h237l-186 -543h-197z" />
<glyph unicode="&#x201a;" horiz-adv-x="423" d="M20 -289l146 543h237l-186 -543h-197z" />
<glyph unicode="&#x201c;" horiz-adv-x="784" d="M20 893l183 539l196 2l-145 -539zM381 889l186 549h197l-146 -547z" />
<glyph unicode="&#x201d;" horiz-adv-x="784" d="M20 895l142 539l237 4l-186 -547zM381 891l145 543h238l-189 -539z" />
<glyph unicode="&#x201e;" horiz-adv-x="788" d="M20 -381l148 541l235 6l-186 -545zM385 -381l145 543h238l-186 -543h-197z" />
<glyph unicode="&#x2022;" horiz-adv-x="845" d="M121 555q0 143 76.5 223t224.5 80q142 0 222.5 -72.5t80.5 -230.5q0 -134 -84.5 -217.5t-218.5 -83.5q-136 0 -218.5 79t-82.5 222z" />
<glyph unicode="&#x2026;" horiz-adv-x="1269" d="M20 123q0 60 37.5 96.5t96.5 36.5q60 0 96.5 -35t36.5 -98t-34 -98t-99 -35q-134 0 -134 133zM502 123q0 63 34 98t99 35q133 0 133 -133q0 -60 -37 -96.5t-96 -36.5q-60 0 -96.5 35t-36.5 98zM983 123q0 133 133 133q60 0 96.5 -37t36.5 -96q0 -60 -35 -96.5t-98 -36.5 t-98 34t-35 99z" />
<glyph unicode="&#x202f;" horiz-adv-x="388" />
<glyph unicode="&#x2039;" horiz-adv-x="462" d="M31 569l180 414l221 4l-176 -418l176 -419l-225 2z" />
<glyph unicode="&#x203a;" horiz-adv-x="462" d="M31 152l180 417l-180 418l221 -4l180 -414l-180 -413z" />
<glyph unicode="&#x205f;" horiz-adv-x="485" />
<glyph unicode="&#x20ac;" horiz-adv-x="1062" d="M59 449l4 186h117l-2 82q0 55 2 82l-117 -2l-4 190l138 2q36 226 137 347.5t266 121.5q342 0 404 -528l-250 4q-10 105 -26 175t-48.5 114.5t-79.5 44.5q-120 0 -154 -273l222 4l4 -190l-240 -4l-2 -88q0 -57 2 -84l240 -2l-4 -191l-224 2q39 -276 156 -276 q135 0 162 334l250 6q-6 -59 -17.5 -113.5t-31.5 -117.5t-51.5 -114t-73.5 -94.5t-103.5 -67.5t-134.5 -24q-166 0 -266.5 122t-136.5 349z" />
<glyph unicode="&#x2122;" horiz-adv-x="1236" d="M31 1434l411 4l4 -113l-139 2v-709l-131 -2l-6 711l-135 2zM520 1440h158l137 -600l137 594h164l-4 -816l-123 5v514l-119 -506h-108l-117 495v-512h-121z" />
<glyph unicode="&#x25fc;" horiz-adv-x="1443" d="M0 0v1444h1444v-1444h-1444z" />
</font>
</defs>
</svg>
