<svg xmlns="http://www.w3.org/2000/svg" xmlns:xlink="http://www.w3.org/1999/xlink" version="1.1" x="0px" y="0px" viewBox="0 0 128 160" style="enable-background:new 0 0 128 128;" xml:space="preserve"><g><path d="M64,18h8c1.1044922,0,2-0.8955002,2-2s-0.8955078-2-2-2h-8c-1.1045036,0-2,0.8955002-2,2S62.8954964,18,64,18z"/><path d="M48,18h8c1.104496,0,2-0.8955002,2-2s-0.895504-2-2-2h-8c-1.1045036,0-2,0.8955002-2,2S46.8954964,18,48,18z"/><path d="M80,18h8c1.1044922,0,2-0.8955002,2-2s-0.8955078-2-2-2h-8c-1.1045074,0-2,0.8955002-2,2S78.8954926,18,80,18z"/><path d="M24,18c1.104496,0,2-0.8955002,2-2s-0.895504-2-2-2h-8c-1.1045046,0-2,0.8955002-2,2s0.8954954,2,2,2H24z"/><path d="M96,18h8c0.1991959,0,0.3910904-0.0293007,0.5727921-0.0830002c0.1585999,0.1016006,0.3348999,0.1826,0.5252991,0.2378006   c1.2984009,0.3759995,2.3467026,1.413599,2.7359085,2.7089996c0.2601929,0.8656998,1.0546951,1.4248009,1.9144974,1.4248009   c0.190506,0,0.3843002-0.0279007,0.5766983-0.0855007c1.0546951-0.3169003,1.6542969-1.4272003,1.3418045-2.4829006   c-0.7783051-2.6000996-2.8511047-4.6552992-5.4614029-5.4091997c-0.1841049-0.0527-0.3697052-0.0781002-0.5523071-0.0781002   c-0.1962891,0-0.3886948,0.0293007-0.572197,0.0845003C104.7694931,14.1167002,104.3983917,14,104,14h-8   c-1.1045074,0-2,0.8955002-2,2S94.8954926,18,96,18z"/><path d="M32,18h8c1.104496,0,2-0.8955002,2-2s-0.895504-2-2-2h-8c-1.1045036,0-2,0.8955002-2,2S30.8954964,18,32,18z"/><path d="M2,35.4398994c1.1044962,0,2-0.8950005,2-2v-8c0-1.1044998-0.8955038-2-2-2c-1.1045038,0-2,0.8955002-2,2v8   C0,34.544899,0.8954962,35.4398994,2,35.4398994z"/><path d="M5.6220961,93.2055969C4.5912962,92.4346008,4,91.2666016,4,90v-0.5600967c0-1.1044998-0.8955038-2-2-2   c-1.1045038,0-2,0.8955002-2,2V90c0,0.0038986,0,0.0077972,0,0.0112c0,0.0009995,0,0.0019989,0,0.0025024   c0,0.0038986,0,0.0073013,0,0.0112c0,0,0,0.0014954,0,0.0019989c0,0.0038986,0,0.0077972,0,0.0116959c0,0,0,0.0005035,0,0.0009995   c0,0.0034027,0,0.0068054,0,0.010704c0,0.0004959,0,0.001503,0,0.001503c0,0.0043945,0,0.0077972,0,0.0116959l0.0004963,0.0014038   c0,0.0043945,0,0.0082932,0,0.0121994c0,0.0004959,0,0.0004959,0,0.0004959c0,0.0044022,0,0.0078049,0,0.0112991   c0,0.0009003,0,0.0009003,0,0.0018997c0,0.0034027,0,0.0073013,0,0.0108032c0,0.0009003,0,0.0018997,0,0.0018997   c0,0.0044022,0.0005037,0.0083008,0.0005037,0.0116959c0,0.0005035,0,0.0010071,0,0.001503c0,0.0038986,0,0.0073013,0,0.0112   c0,0,0,0.0005035,0,0.0009995c0,0.0038986,0,0.0078049,0,0.0117035c0,0,0.0004963,0.0014954,0.0004963,0.0019989   c0,0.0038986,0,0.0073013,0,0.0112v0.0014954c0,0.0039063,0,0.0073013,0.0005037,0.0112v0.0010071   c0,0.0038986,0,0.0072937,0,0.0112c0,0.0009995,0,0.0014954,0,0.0024948c0,0.0034027,0,0.0073013,0.0003963,0.0112   c0,0.0005035,0,0.0009995,0,0.0014038c0,0.0039978,0,0.0074005,0,0.0107956v0.001503   c0.0005,0.0038986,0.0005,0.0073013,0.0005,0.0112c0,0.0009995,0,0.001503,0,0.001503   c0,0.0042953,0.0005,0.0082932,0.0005,0.0116959v0.0014038c0,0.0082932,0.0005,0.0156937,0.0005,0.0239944   c0,0,0,0.0009003,0,0.0018997c0.0005,0.0034027,0.0005,0.0073013,0.0005,0.0112c0,0.0005035,0,0.0009995,0,0.001503   c0.0005,0.0083008,0.0005,0.0156021,0.001,0.0233994c0,0.0009995,0,0.001503,0,0.0019989   c0,0.0038986,0.0005,0.0073013,0.0005,0.0112c0,0.0009995,0,0.001503,0,0.001503c0,0.0044022,0.0004,0.0083008,0.0004,0.0121994   v0.0004959c0,0.0039063,0.0005,0.0073013,0.0005,0.0112v0.001503c0.0005,0.0038986,0.0005,0.0077972,0.0005,0.0112   c0,0.0009995,0,0.001503,0,0.0025024c0.0005,0.0038986,0.0005,0.0073013,0.0005,0.0112c0,0,0,0.0004959,0,0.0009995   c0.0005,0.0038986,0.0005,0.0073013,0.001,0.0112c0,0.0004959,0,0.0004959,0,0.0004959c0,0.0044022,0,0.0078049,0.0005,0.0121994   c0,0,0,0.0010071,0,0.0018997c0,0.0039063,0.0005,0.0074005,0.0005,0.0113068v0.0013962   c0.0005,0.0035019,0.0005,0.006897,0.0005,0.0102997c0,0,0,0.001503,0,0.0018997   c0.0004,0.0035019,0.0004,0.0074005,0.0009,0.0108032c0,0.0009995,0,0.0018997,0,0.0023956   c0,0.0038986,0.0005,0.0074005,0.0005,0.0112991c0,0.0004044,0,0.0009003,0,0.0014038   c0.0005,0.0038986,0.0005,0.0073013,0.001,0.0108032c0,0.0004959,0,0.0008926,0,0.0013962   c0,0.0034027,0,0.0074005,0.0005,0.0112991c0,0,0,0.0014038,0,0.0018997c0.0005,0.0038986,0.0005,0.0073013,0.001,0.0112   c0,0.0005035,0,0.0009995,0,0.001503c0.0004,0.0077972,0.0009,0.0155945,0.0014,0.0233994c0,0.0004959,0,0.0009995,0,0.0019989   c0,0.0034027,0.0005,0.0073013,0.0005,0.0106964c0,0.0010071,0,0.001503,0.0005,0.0025024   c0.0005,0.0073013,0.001,0.0150986,0.0015,0.0229034c0,0.0004959,0,0.0009995,0,0.0019989   c0,0.0033951,0.0005,0.0073013,0.0005,0.0106964C0.019,90.5497971,0.019,90.5503006,0.019,90.5507965   c0,0.0044022,0.0004963,0.0078049,0.0004963,0.0117035v0.0005035c0.0005037,0.0038986,0.001,0.0072937,0.001,0.0112   c0,0.0004959,0,0.0009995,0,0.0014954c0.0005037,0.0038986,0.0005037,0.0073013,0.001,0.0112c0,0,0,0.001503,0,0.0019989   c0.0005037,0.0038986,0.0005037,0.0073013,0.001,0.0112c0,0.0005035,0,0.0005035,0,0.0005035   c0.0004,0.0038986,0.0004,0.0077972,0.0009,0.0112c0,0,0,0.0014954,0,0.0019989c0.0005,0.0038986,0.0005,0.0073013,0.001,0.0112   c0,0,0,0.0009995,0,0.0019989c0.0005,0.0038986,0.0005,0.0073013,0.001,0.0112c0,0.0005035,0,0.0009995,0,0.0014038   c0.0005,0.0034943,0.0005,0.006897,0.001,0.0107956v0.0009995c0.0005,0.0038986,0.0005,0.0078049,0.0009,0.0112   c0,0,0,0.001503,0,0.0024033c0.0005,0.0035019,0.001,0.0074005,0.001,0.0107956l0.0005,0.0014038   c0,0.0039978,0.0005,0.006897,0.0005,0.0108032c0.0005,0.0004959,0.0005,0.0009995,0.0005,0.0009995   c0,0.0038986,0.0005,0.0077972,0.001,0.0116959c0,0,0,0.0009995,0,0.0018997c0.0005,0.0035019,0.0005,0.0074005,0.0009,0.0112991   v0.0014038c0.0005,0.0038986,0.001,0.0074005,0.0015,0.0112991v0.0004959c0,0.0039063,0.0005,0.0073013,0.001,0.0112   c0,0.0005035,0,0.0014038,0,0.0014038c0.0005,0.0044022,0.001,0.0078964,0.001,0.0118027c0,0,0,0.0009003,0.0004,0.0013962   c0,0.0038986,0.0005,0.0074005,0.001,0.0108032v0.0013962c0.0005,0.0035019,0.0005,0.0074005,0.001,0.0108032   c0,0,0,0.0013962,0,0.0018997c0.0005,0.0038986,0.001,0.0074005,0.0015,0.0112991c0,0.0004959,0,0.0013962,0,0.0013962   C0.0395963,90.794899,0.04,90.7987976,0.04,90.8022003v0.0004959c0.0004963,0.0035019,0.001,0.0069046,0.0014963,0.0108032   c0,0,0,0.0014038,0,0.0024033c0.0005037,0.0033951,0.001,0.006897,0.001,0.0107956   C0.043,90.8271027,0.043,90.8281021,0.043,90.828598c0.0004963,0.0038986,0.0008963,0.0078049,0.0008963,0.0112v0.0005035   c0.0005,0.0038986,0.001,0.0077972,0.0015,0.0112991v0.0013962c0.0005,0.0039063,0.001,0.0074005,0.0015,0.0113068   c0,0.0003967,0,0.0013962,0,0.0013962c0.0005,0.0044022,0.001,0.0083008,0.0014,0.0117035c0,0.0004959,0,0.0004959,0,0.0004959   c0.0005,0.0038986,0.0005,0.0077972,0.001,0.0112991c0,0.0004044,0.0005,0.0009003,0.0005,0.0014038   c0,0.0038986,0.0005,0.0077972,0.001,0.0112991c0,0,0,0.0009003,0.0005,0.0018997c0.0005,0.0034027,0.0005,0.0073013,0.0009,0.0112   c0,0,0.0005,0.0009995,0.0005,0.0014954c0,0.0034027,0.0005,0.0068054,0.001,0.0103073v0.0013962   c0.0005,0.0038986,0.001,0.0073013,0.0015,0.0112991c0,0,0,0.0009003,0.0005,0.0014038   c0,0.0038986,0.0005,0.0077972,0.0009,0.0116959c0,0,0,0.0005035,0.0005,0.0009995   c0.0005,0.0038986,0.0005,0.0078049,0.0015,0.0117035c0,0.0038986,0.0005,0.0077972,0.001,0.011795   c0.0005,0.0004044,0.0005,0.0009003,0.0005,0.0014038c0.0004,0.0038986,0.0009037,0.0077972,0.0014,0.0112v0.001503   c0.0005037,0.0038986,0.001,0.0072937,0.0015037,0.0112v0.0004959c0.0004963,0.0034027,0.001,0.0074005,0.0014963,0.0112991   c0,0.0004044,0,0.0014038,0,0.0014038c0.0004,0.0043945,0.0009,0.0077972,0.0014,0.0116959c0,0,0.0005,0.0009995,0.0005,0.001503   c0.001,0.0077972,0.002,0.0150986,0.0029,0.0230026v0.0013962c0.0005,0.0034027,0.001,0.0073013,0.0015,0.0112991   c0,0,0.0005,0.0009003,0.0005,0.0014038c0.001,0.0077972,0.0019,0.0151978,0.0029,0.022995   c0.0005,0.0009003,0.0005,0.0009003,0.0005,0.0018997c0.0005,0.0034027,0.001,0.0073013,0.0015,0.0108032   c0,0.0009003,0,0.0009003,0,0.0018997c0.0009,0.0038986,0.0014,0.0073013,0.0019,0.0112v0.0004959   c0.0005,0.0035019,0.001,0.0074005,0.0015,0.0113068c0,0,0,0.0009003,0,0.0013962   c0.001,0.0034027,0.0015,0.0074005,0.0019,0.0108032c0,0.0009003,0,0.0013962,0,0.0018997   c0.0005037,0.0038986,0.001,0.0073013,0.002,0.0112991c0,0,0,0.0003967,0,0.0009003   C0.084,91.1563034,0.0844963,91.160202,0.085,91.1635971v0.0014038c0.0008963,0.0035019,0.0013963,0.0074005,0.0018963,0.0112991   c0,0.0005035,0,0.0009003,0,0.0013962c0.001,0.0039063,0.0015,0.0074005,0.002,0.0113068v0.0009003   c0.0005,0.0038986,0.0014,0.0078964,0.0019,0.011795c0.0005,0.0038986,0.001,0.0078049,0.0015,0.0112   c0.0005,0.0009995,0.0005,0.001503,0.0005,0.0024033c0.0005,0.0035019,0.001,0.006897,0.0014,0.0107956   c0.0005,0.0005035,0.0005,0.0009995,0.0005,0.0014038c0.0005,0.0035019,0.001,0.006897,0.0015,0.0107956l0.0005,0.0010071   c0.0005,0.0038986,0.001,0.0067978,0.0014,0.0106964l0.0005,0.0019989c0.0005,0.0038986,0.001,0.0073013,0.0015,0.010704   c0.0005,0.0009995,0.0005,0.0014954,0.0005,0.0018997c0.0005,0.0039978,0.001,0.0074005,0.0019,0.0112991   c0.0005037,0.0038986,0.001,0.0073013,0.0015037,0.0112c0.0004963,0.0009995,0.0004963,0.0009995,0.0004963,0.0019989   c0.0005037,0.0034027,0.001,0.0073013,0.0019,0.0106964c0,0,0,0.001503,0,0.0020065   c0.0015,0.0077972,0.0025,0.014595,0.004,0.0223999c0,0.0004959,0,0.0009995,0.0004,0.0019989   c0.0005,0.0033951,0.001,0.0067978,0.0015,0.0106964c0.0005,0.0005035,0.0005,0.0009995,0.0005,0.0019989   c0.0015,0.0073013,0.0024,0.0146027,0.0039,0.0223999c0,0.0005035,0,0.0009995,0,0.001503   c0.001,0.0034027,0.0015,0.0073013,0.002,0.0112c0.0004,0.0004959,0.0004,0.0009995,0.0004,0.0009995   c0.0005,0.0038986,0.0015,0.0077972,0.002,0.0117035v0.0004959c0.001,0.0034027,0.0015,0.0073013,0.0019037,0.0112   c0,0.0005035,0.0004963,0.0005035,0.0004963,0.0005035c0.0005037,0.0038986,0.001,0.0077972,0.002,0.0116959v0.001503   c0.001,0.0038986,0.0015038,0.0077972,0.0024,0.0112c0,0.0004959,0,0.0004959,0,0.0004959   c0.0015,0.0078049,0.003,0.0157013,0.0044,0.0240021c0,0,0,0.0003967,0,0.0009003   c0.001,0.0038986,0.0015,0.0074005,0.002,0.0112991c0.0005,0.0004044,0.0005,0.0009003,0.0005,0.0009003   c0.0005,0.0038986,0.0014,0.0079041,0.0019,0.0118027c0.001,0.0038986,0.0015,0.0077972,0.0025,0.0112   c0,0.0009995,0,0.0009995,0,0.0018997c0.0009,0.0035019,0.0014,0.0074005,0.0024,0.0112991v0.0004959   c0.0005,0.0039063,0.0015,0.0078049,0.002,0.0117035H0.144c0.0004963,0.0038986,0.0014963,0.0077972,0.002,0.0117035   l0.0004963,0.0009995c0.0005037,0.0038986,0.0014,0.0077972,0.0019,0.0112c0,0.0004959,0,0.0009995,0.0005,0.0014954   c0.0015,0.0078049,0.003,0.0150986,0.0044,0.0223999c0,0.0005035,0,0.001503,0,0.001503   c0.001,0.0038986,0.002,0.0077972,0.0025,0.0112v0.0014954c0.0019,0.0073013,0.0034,0.0146027,0.0048,0.0225067l0.0005,0.0013962   c0.0005,0.0038986,0.0015,0.0073013,0.002,0.0108032c0,0.0009003,0.0005,0.0013962,0.0005,0.0018997   c0.0005,0.0038986,0.0014037,0.0072937,0.0024037,0.0112c0,0,0,0,0,0.0004959   c0.0004963,0.0034027,0.0014963,0.0069046,0.002,0.0108032c0.0004963,0.0004959,0.0004963,0.0009003,0.0004963,0.0013962   c0.0004,0.0035019,0.0014,0.0074005,0.0024,0.0108032c0,0,0,0.0013962,0,0.0018997   c0.001,0.0034027,0.002,0.006897,0.0024,0.0107956c0,0.0005035,0,0.0010071,0.0005,0.0010071   c0.0005,0.0038986,0.0015,0.0072937,0.002,0.0112l0.0005,0.0004959c0.0005,0.0038986,0.0014,0.0073013,0.0024,0.0112   c0,0.0005035,0,0.0009995,0,0.001503c0.001,0.0038986,0.002,0.0073013,0.0025,0.0112c0,0,0,0.0004959,0.0004,0.0004959   c0.0005,0.0038986,0.0015,0.0078049,0.002,0.0112c0,0,0.0005,0.0005035,0.0005,0.0009995   c0.001,0.0034027,0.0014,0.0073013,0.0024,0.0112c0,0,0,0.0005035,0,0.0009995c0.001,0.0039063,0.002,0.0078049,0.003,0.0112   c0,0.0005035,0,0.0005035,0,0.0005035c0.0014,0.0077972,0.0034,0.0156021,0.0048,0.0234985   c0.0005,0.0004044,0.0005,0.0009003,0.0005,0.0009003c0.001,0.0044022,0.0015,0.0077972,0.0025,0.0112991   c0,0.0004044,0.0005,0.0009003,0.0005,0.0009003c0.0014,0.0078049,0.0034,0.0157013,0.0048,0.0230026   c0.0005,0.0004959,0.0005,0.0009995,0.0005,0.0014954c0.001,0.0034027,0.002,0.0073013,0.0025,0.010704   c0,0.0004959,0.0005,0.0009995,0.0005,0.001503c0.0014,0.0077972,0.0034,0.0150986,0.0053,0.0228958v0.0005035   c0.001,0.0043945,0.002,0.0077972,0.003,0.0116959v0.0005035c0.0019,0.0077972,0.0039,0.0155945,0.0058,0.0233994v0.0004959   c0.001,0.0038986,0.0015,0.0074005,0.0025,0.0117035l0.0004,0.0004959c0.002,0.0078049,0.004,0.0161057,0.0059038,0.0240021   c0.0004963,0.0034027,0.002,0.0077972,0.0023963,0.0112c0.0005,0.0005035,0.0005,0.0009995,0.0005,0.0009995   c0.001,0.0038986,0.002,0.0078049,0.003,0.0117035c0.0009,0.0038986,0.0019,0.0077972,0.0029,0.0116959c0,0,0,0,0,0.0005035   c0.001,0.0033951,0.0019,0.0073013,0.0029,0.0112c0,0,0,0.0004959,0,0.0009995c0.002,0.0077972,0.0039,0.0156021,0.0059,0.0233994   h0.0005c0.0009037,0.0038986,0.0014,0.0074005,0.0024,0.0112991C0.25,91.9810028,0.25,91.9813995,0.25,91.9819031   c0.001,0.0034943,0.002,0.0074005,0.0028962,0.0107956l0.0005,0.0014038c0.002,0.0074005,0.0034,0.0146942,0.0054,0.0224991   c0,0,0.0005,0.0004959,0.0005,0.0009995c0.001,0.0034027,0.0019,0.0073013,0.0029,0.0112c0,0,0.0005,0.0004959,0.0005,0.0009995   c0.0019,0.0073013,0.0039,0.0150986,0.0059,0.0223999c0,0.0004959,0,0.0004959,0,0.0004959   C0.2694963,92.0566025,0.271,92.060997,0.272,92.0644989v0.0004044c0.0018962,0.0078964,0.0038962,0.0156937,0.0062962,0.022995   v0.0009995c0.001,0.0038986,0.002,0.0078049,0.003,0.0112c0.0004,0.0005035,0.0004,0.0005035,0.0004,0.0005035   c0.002,0.0083008,0.0044,0.016098,0.0064,0.0233994v0.0004959c0.001,0.0034027,0.0019037,0.0073013,0.0034,0.0112v0.0010071   c0.0024,0.0077972,0.0044,0.0151978,0.0064,0.022995l0.0004,0.0005035c0.001,0.0033951,0.002,0.0073013,0.003,0.0112   l0.0005,0.0009995c0.0009,0.0033951,0.0019,0.0073013,0.0029,0.0112l0.0005,0.0004959   c0.001,0.0034027,0.0019,0.0073013,0.0029,0.0112c0,0,0,0,0,0.0005035c0.0015,0.0034027,0.0024,0.0067978,0.0034,0.0106964   L0.312,92.2080002c0.001,0.0034027,0.002,0.0073013,0.0028962,0.0108032l0.0005,0.0009003   c0.001,0.0038986,0.002,0.0073929,0.003,0.0107956v0.0005035c0.0014,0.0038986,0.0024,0.0072937,0.0034,0.0112   c0,0.0004959,0,0.0004959,0,0.0004959c0.0014,0.0044022,0.0024,0.0078049,0.0034,0.0117035   c0.0005,0,0.0005,0.0004959,0.0005,0.0004959c0.0019,0.0078049,0.0044,0.0150986,0.0063037,0.0223999   c0.0004963,0.0005035,0.0004963,0.0009995,0.0004963,0.001503c0.001,0.0034027,0.0025038,0.0073013,0.0034,0.0107956   c0,0,0,0.0004044,0,0.0009003c0.0025,0.0074005,0.0049,0.0152054,0.0069,0.0225067l0.0005,0.0009995   c0.0009,0.0033951,0.0024,0.0072937,0.0034,0.0106964v0.0009995c0.0024,0.0078049,0.0049,0.0150986,0.0073037,0.0229034   c0.001,0.0038986,0.0023963,0.0077972,0.0033962,0.0112991l0.0005,0.0009003c0.001,0.0038986,0.002,0.0074005,0.0034,0.0112991   v0.0004959c0.001,0.0034027,0.0025,0.0068054,0.0034,0.010704c0,0.0004959,0,0.0004959,0,0.0004959   c0.0015,0.0039063,0.0025,0.0078049,0.004,0.0112c0,0.0005035,0,0.0005035,0,0.0005035   c0.0024,0.0077972,0.0048,0.0156021,0.0073037,0.0230026v0.0003967c0.0013963,0.0039978,0.0023963,0.0074005,0.0038963,0.0112991   c0,0.0005035,0,0.0005035,0,0.0005035c0.0014,0.0038986,0.0024,0.0077972,0.0034,0.0116959c0.0005,0,0.0005,0,0.0005,0   c0.0024,0.0078049,0.0049,0.0150986,0.0073,0.0229034v0.0009995c0.0015,0.0034027,0.0025,0.0073013,0.0039037,0.0107956v0.0004044   C0.3974963,92.4849014,0.3998963,92.4926987,0.4022962,92.5l0.0005,0.0009995c0.001,0.0038986,0.0025,0.0073013,0.0035,0.0112   c0.0004,0,0.0004,0,0.0004,0.0005035c0.0025,0.0072937,0.0049,0.0150986,0.0074,0.0219955c0,0,0,0.0009003,0.0005,0.0014038   C0.4154963,92.5395966,0.417,92.5429993,0.418,92.5468979l0.0004962,0.0005035c0.0024,0.0077972,0.0048,0.0150986,0.0073,0.0228958   h0.0005c0.0009,0.0039063,0.0024,0.0078049,0.0034,0.0112c0,0,0.0005,0.0005035,0.0005,0.0009995   c0.0024,0.0073013,0.0053,0.0147018,0.0078037,0.0220032v0.0005035c0.0014963,0.0038986,0.0028962,0.0077972,0.0038963,0.0112   c0,0.0004959,0.0005,0.0004959,0.0005,0.0004959c0.0024,0.0077972,0.0049,0.0150986,0.0078,0.0229034   c0.0015,0.0039978,0.0024,0.0074005,0.0039,0.0107956c0,0.0005035,0,0.0009995,0.0005,0.001503   c0.0015,0.0038986,0.0024037,0.0073013,0.0039,0.0106964v0.0005035c0.0015038,0.0038986,0.0024,0.0073013,0.0039,0.0112   c0.0015,0.0033951,0.0029,0.0073013,0.0039,0.0112c0.0005,0,0.0005,0.0004959,0.0005,0.0004959   c0.0015,0.0039063,0.0024,0.0074005,0.0039,0.0113068v0.0004959c0.0029,0.0073013,0.0054,0.0146027,0.0083038,0.021904   l0.0004962,0.0009995c0.001,0.0038986,0.0024,0.0072937,0.0039,0.0106964c0,0.0005035,0,0.0005035,0,0.0005035   c0.0029,0.0077972,0.0054,0.0146942,0.0083,0.0219955v0.001503c0.0015,0.0033951,0.0029,0.0067978,0.0044,0.0106964v0.0005035   c0.0029038,0.0073013,0.0054,0.0147018,0.0083,0.0224991c0,0,0,0,0,0.0004959c0.0015,0.0034027,0.0029,0.0068054,0.0044,0.010704   c0,0.0004959,0,0.0004959,0,0.0004959c0.0028999,0.0078049,0.0057999,0.0151062,0.0088,0.0223999c0,0,0,0,0,0.0005035   C0.519,92.8271027,0.52,92.8305969,0.5214962,92.8345032C0.522,92.8345032,0.522,92.8349991,0.522,92.8349991   c0.0028962,0.0077972,0.0057963,0.0150986,0.0082963,0.0223999c0,0,0.0005,0,0.0005,0.0005035   c0.0014,0.0033951,0.0024,0.0072937,0.0039,0.0107956c0,0,0.0005,0.0004044,0.0005,0.0009003   c0.0014,0.0034027,0.0029,0.0074005,0.0044,0.0108032c0.0014037,0.0038986,0.0029,0.0073013,0.0043,0.0112   c0.0015,0.0038986,0.003,0.0073013,0.004,0.0112c0,0,0.0004,0.0004959,0.0004,0.0009995   c0.0015,0.0034027,0.003,0.0067978,0.0044,0.0107956c0.0015,0.0039063,0.003,0.0073013,0.0044,0.0112   c0.0015,0.0039063,0.003,0.0073013,0.0044,0.010704L0.562,92.9375c0.0014963,0.0038986,0.0028962,0.0073013,0.0038963,0.0106964   c0.0005,0.0005035,0.0005,0.0005035,0.0005,0.0005035c0.0029,0.0074005,0.0059,0.0147018,0.0088,0.0214996   c0,0.0005035,0.0005,0.0009995,0.0005,0.001503c0.0014,0.0038986,0.0024,0.0067978,0.0039,0.0102005l0.0005,0.0009995   c0.0029038,0.0072937,0.0058,0.0141983,0.0088,0.0214996l0.0005,0.0009995c0.0014,0.0033951,0.0029,0.0067978,0.0039,0.0102005   c0.0005,0.0004959,0.0005,0.0009995,0.0005,0.0009995c0.0034,0.0077972,0.0058,0.0141983,0.0087,0.0214996   C0.603,93.0385971,0.603,93.0391006,0.603,93.0395966c0.0014963,0.0029068,0.003,0.0068054,0.0043963,0.0097046   c0,0.0004959,0.0005,0.0009995,0.0005,0.0014954c0.0015,0.0039063,0.0029,0.0068054,0.0044,0.0102005v0.0005035   c0.0015,0.0034027,0.0029,0.0064011,0.0044,0.0102997l0.0005,0.0013962c0.0015,0.003006,0.0029,0.0064011,0.0044,0.0098038   c0,0,0.0005,0.0009995,0.0005,0.0019989c0.0014,0.0034027,0.0029038,0.0063019,0.0044,0.0097046   c0,0,0,0.0004959,0.0005037,0.0009995c0.0008963,0.0028992,0.0023963,0.0063934,0.0038963,0.0093002   c0,0,0.0003999,0.0013962,0.0003999,0.0018997c0.0015,0.0029984,0.003,0.0063934,0.0044,0.0097961l0.0005,0.001503   c0.0015,0.0033951,0.003,0.0067978,0.0044,0.009697c0,0,0.0005,0.001503,0.0005,0.0019989   C0.6425962,93.1327972,0.644,93.1356964,0.645,93.1387024l0.0004963,0.0009003   c0.0015038,0.0034943,0.0029,0.0074005,0.0044,0.0102997c0,0,0.0005,0.0014954,0.001,0.0019989   c0.0014,0.0033951,0.0029,0.0067978,0.0044,0.009697c0,0,0,0.0009995,0.0005,0.0009995   c0.0014,0.0038986,0.0029,0.0068054,0.0044,0.0102997v0.0004044c0.0014,0.0035019,0.0029,0.006897,0.0044,0.0102997   l0.0009,0.0014954c0.001,0.0034027,0.003,0.0068054,0.0039,0.0097046c0.0005,0.0009995,0.0005,0.0009995,0.001,0.0019989   c0.0029,0.0067978,0.0059,0.0136032,0.0093,0.0205002v0.0009995c0.0015,0.0034027,0.0034,0.0073013,0.0049,0.0102005   l0.0005,0.0009995c0.0029038,0.0067978,0.0058,0.0141983,0.0092,0.0210037l0.0005,0.0009995   c0.0015,0.0033951,0.003,0.0067978,0.0044,0.0102005l0.001,0.0014954c0.0029,0.0067978,0.0059,0.0131989,0.0088037,0.0200043   c0.0004963,0.0004959,0.0004963,0.0014954,0.001,0.0019989c0.0013962,0.0028992,0.0028962,0.0062943,0.0043963,0.009201   c0,0.0009995,0.0004,0.0014954,0.0004,0.0014954c0.002,0.0038986,0.003,0.0067978,0.0049,0.0102997   c0,0.0004044,0,0.0004044,0,0.0004044c0.0015,0.0038986,0.003,0.006897,0.0044,0.0102997   c0.0005,0.0004959,0.0005,0.0004959,0.001,0.0009995c0.0015,0.0033951,0.0029038,0.0067978,0.0044,0.009697   C0.7294962,93.328598,0.73,93.328598,0.73,93.3295975c0.0018962,0.0034027,0.0033962,0.0063019,0.0048962,0.0098038   l0.0005,0.0009003c0.0014,0.0029984,0.0029,0.0064011,0.0043,0.0097961c0,0.0005035,0,0.0005035,0,0.0005035   c0.002,0.0038986,0.0035,0.0067978,0.0049,0.0102005c0,0,0.0005,0.0009995,0.001,0.0019989   c0.0015,0.0028992,0.0029,0.0063019,0.0044038,0.0093002c0.0004963,0.0004959,0.0004963,0.0009003,0.001,0.0013962   c0.001,0.003006,0.0028962,0.0064011,0.0043963,0.0093002c0,0,0,0.0005035,0,0.0009995   c0.0019,0.0034027,0.0029,0.0063019,0.0049,0.0098038c0,0.0009003,0.0004,0.0013962,0.0009,0.0018997   c0.0015,0.0034027,0.003,0.0064011,0.0044,0.0097961c0,0.0005035,0.0005,0.0010071,0.0005,0.0014038   C0.7675962,93.4096985,0.769,93.4131012,0.771,93.4160004c0,0.0004959,0,0.0004959,0,0.0004959   c0.0018962,0.0034027,0.0033962,0.0068054,0.0048962,0.0103073l0.0005,0.0013962   c0.0019,0.0029984,0.0034,0.0064011,0.0049,0.0098038l0.0004,0.0014954c0.002,0.0034027,0.0035,0.0063019,0.0049,0.009201   c0,0,0,0.0005035,0,0.0009995c0.002,0.0028992,0.0034038,0.0058975,0.0049,0.0093002   C0.792,93.4599991,0.792,93.4604034,0.7924963,93.4614029c0.0014,0.0029984,0.0029,0.0058975,0.0044,0.0087967   c0.0005,0.0009995,0.0005,0.001503,0.001,0.0025024c0.0014,0.0028992,0.0034,0.0062943,0.0048,0.009201v0.0004959   c0.0015,0.0029984,0.003,0.0064011,0.0049,0.0093002c0,0.0009995,0.0005,0.001503,0.0005,0.0019989   C0.8100963,93.4971008,0.811,93.5,0.813,93.5028992c0,0.0009995,0.0004962,0.001503,0.001,0.0019989   c0.0013962,0.0034027,0.0028962,0.0063019,0.0043963,0.0097046c0.0003999,0,0.0003999,0.0004959,0.0003999,0.0009995   c0.0015,0.0029984,0.003,0.0058975,0.0044,0.0087967c0.0005,0.0005035,0.001,0.001503,0.001,0.001503   c0.0015,0.0033951,0.0034,0.0067978,0.0049,0.009697c0,0.0009995,0.0005,0.001503,0.0005,0.0019989   c0.0019,0.0034027,0.0034038,0.0063019,0.0049,0.0098038C0.835,93.5474014,0.835,93.5478973,0.835,93.5478973   c0.0018963,0.0034027,0.0033963,0.0063019,0.0047963,0.0097046c0,0,0.0005,0.0004959,0.0005,0.0009995   c0.002,0.0033951,0.0035,0.0063019,0.0049,0.0097961c0.0005,0.0004044,0.0005,0.0009003,0.001,0.0014038   c0.0015,0.0033951,0.0029,0.0064011,0.0049,0.0097961c0,0,0,0.0005035,0.0005,0.0009995   C0.853,93.5835037,0.8544962,93.5868988,0.856,93.589798c0,0,0.0003963,0.0009995,0.0008962,0.001503   c0.0015,0.0028992,0.003,0.0064011,0.0049,0.0093002c0,0.0009995,0.0005,0.0009995,0.0005,0.0018997   c0.002,0.0029984,0.0034,0.0064011,0.0049,0.0093002c0.0005,0.0004959,0.0005,0.0009995,0.0005,0.0009995   c0.0019,0.0034027,0.0034,0.0063019,0.0049,0.0097961c0,0,0.0004038,0.0004044,0.0004038,0.0009003   c0.002,0.003006,0.0034962,0.0064011,0.0048962,0.0093002c0,0,0.001,0.001503,0.001,0.0020065   c0.002,0.0028992,0.0034,0.0062943,0.0049,0.0091934c0.0005,0.0005035,0.0005,0.0009995,0.001,0.0020065   c0.0014,0.0028992,0.0029,0.0058975,0.0048,0.0087967c0,0,0,0.0004959,0,0.0009995   c0.002,0.0028992,0.0035,0.0063019,0.0049,0.009201c0.0005037,0.0009995,0.001,0.0014954,0.001,0.0014954   c0.002,0.0039063,0.0034,0.0064011,0.0049,0.0098038c0.0005,0.0005035,0.001,0.0013962,0.001,0.0013962   c0.0034,0.0069046,0.0068,0.0132065,0.0102,0.0196075c0.0005,0.0004959,0.0005,0.0013962,0.001,0.0018997   c0.0015,0.0028992,0.0029,0.0058975,0.0049,0.0093002l0.001,0.0018997c0.0014,0.0029984,0.0029,0.0058975,0.0048,0.0087967   c0,0.0005035,0.0005,0.0009995,0.0005,0.001503c0.0015,0.0028992,0.0034,0.0058975,0.0049,0.0087967   c0,0,0.0005,0.0009995,0.001,0.0018997c0.0015,0.0029984,0.0029,0.0058975,0.0049,0.0087967   c0,0.0010071,0.0005,0.001503,0.0009,0.0025024C0.937,93.7451019,0.939,93.748497,0.9403962,93.751503   c0,0,0.0005,0.0009003,0.0005,0.0013962c0.0015,0.0029984,0.0029,0.0054016,0.0044,0.0083008   c0.0005,0.0005035,0.001,0.001503,0.0015,0.0019989c0.0014,0.0028992,0.0029,0.0057983,0.0044,0.0088043   c0.0005,0.0009003,0.0009,0.0013962,0.0014,0.0023956c0.0015,0.0028992,0.0035,0.0058975,0.0049,0.0088043   c0,0.0004959,0.0005038,0.0014954,0.001,0.0023956c0.0015038,0.0025024,0.0029,0.0048981,0.0039001,0.0074005   c0.0005,0.0005035,0.001,0.0014038,0.0015,0.0024033c0.0014,0.0024948,0.0029,0.005394,0.0044,0.0077972   c0.0005,0.001503,0.0014,0.0025024,0.0019,0.0034027c0.0015,0.0029984,0.0029,0.0058975,0.0044,0.0083008   c0.0005,0.0009995,0.001,0.0014954,0.0015,0.0024948c0.0014,0.0024033,0.0024,0.0049057,0.0039038,0.0073013   c0,0,0.001,0.001503,0.0013962,0.0024033c0.0015,0.0029984,0.003,0.0058975,0.0044,0.0083008   c0.0005,0.0009995,0.001,0.0014954,0.0015,0.0024948c0.0015,0.0028992,0.0029,0.0059052,0.0049,0.0088043   c0.0005,0.0009995,0.001,0.0013962,0.0015,0.0023956c0.0009,0.0025024,0.0024,0.0048981,0.0039001,0.0073013   C0.998,93.857399,0.9984962,93.8579025,0.999,93.858902c0.0014963,0.0028992,0.003,0.0054016,0.0043963,0.0083008   c0.0005,0.0009995,0.0009999,0.0018997,0.0015,0.0028992c0.0014,0.0024948,0.0029,0.0054016,0.0049,0.0077972   c0.0005,0.001503,0.0009,0.0025024,0.0014,0.0034027c0.0015,0.0019989,0.0024999,0.0043945,0.0038999,0.006897   c0.0005001,0.0009995,0.001,0.0018997,0.0020001,0.0028992C1.0180962,93.8936005,1.0194962,93.8960037,1.021,93.8983994   C1.0214962,93.8993988,1.022,93.9003983,1.0228963,93.9019012c0.0014999,0.0023956,0.0029999,0.0047989,0.0043999,0.0077972   c0.0005001,0.0009003,0.001,0.0018997,0.0015,0.0028992c0.0015,0.0024033,0.0029,0.0049057,0.0044,0.0073013   c0.0005001,0.0009995,0.001,0.0019989,0.0015,0.0029984c0.0014,0.0024033,0.0029,0.0047989,0.0039001,0.0073013   c0.0009999,0.0009995,0.0014037,0.0018997,0.0019,0.0028992c0.0015038,0.0024033,0.003,0.0054016,0.0049,0.0083008   c0.0005001,0.0009995,0.001,0.0019989,0.0015,0.0028992c0.0014,0.0025024,0.0029,0.0049057,0.0039001,0.0074005   c0.0009999,0.0009003,0.0014,0.0018997,0.0019,0.0034027c0.0015,0.0018997,0.003,0.0038986,0.0039001,0.0063019   c0.0005,0.0009995,0.0015,0.0019989,0.002,0.0029984c0.0015,0.0023956,0.0029,0.0053024,0.0044037,0.0077972   c0.0004963,0.0014038,0.0014963,0.0024033,0.0018963,0.0038986c0.0015,0.0018997,0.003,0.0044022,0.0044,0.0068054   c0.0005,0.0014954,0.001,0.0024948,0.002,0.0033951c0.001,0.0025024,0.0024,0.0044022,0.0034,0.0064011   c0.001,0.0009995,0.0015,0.0018997,0.0020001,0.0034027c0.0014,0.0023956,0.0029,0.0048981,0.0044,0.0073013   c0.0009037,0.0014954,0.0014,0.0024948,0.0019037,0.0033951c0.0014963,0.003006,0.0028963,0.0054016,0.0048963,0.0078049   c0.0005,0.0009995,0.001,0.0019989,0.0015,0.0029984c0.0014,0.0023956,0.0024,0.0044022,0.0039001,0.0067978   c0.0005,0.0005035,0.0008999,0.001503,0.0014,0.0025024c0.0014999,0.0028992,0.0029999,0.0053024,0.0049,0.0083008   c0.0005,0.0009003,0.0009999,0.0013962,0.0015,0.0028992c0.0019038,0.0023956,0.0034,0.0054016,0.0049037,0.0077972   c0.0003963,0.0009995,0.0008963,0.0019989,0.0018963,0.0028992c0.001,0.0019989,0.0025001,0.0044022,0.0034,0.0064011   c0.001,0.0009995,0.0015,0.0024033,0.0025001,0.0038986c0.0014,0.0024033,0.0029,0.0049057,0.0039001,0.0068054   c0.0009999,0.0009995,0.0014,0.0024948,0.0019,0.0033951c0.002,0.0025024,0.003,0.0049057,0.0049,0.0074005   c0.0005038,0.0014038,0.001,0.0024033,0.002,0.0038986c0.0009,0.0018997,0.0024,0.0039063,0.0034001,0.005806   c0.0009999,0.0009995,0.0014,0.0024948,0.0023999,0.0033951c0.0015,0.0025024,0.0025001,0.0044022,0.0039001,0.0069046   c0.0005,0.0009995,0.0015,0.0023956,0.0024999,0.0038986c0.0014,0.0023956,0.0029,0.0048981,0.0039001,0.0073013   c0.001,0.0009995,0.0019,0.0024948,0.0024037,0.0033951c0.001,0.0019989,0.0024962,0.0038986,0.0033963,0.0054016   c0.0009999,0.0019989,0.002,0.0038986,0.0035,0.0058975c0.0009,0.0014038,0.0019,0.0034027,0.0029,0.0048065   c0.001,0.0014954,0.0015,0.0024948,0.0024,0.0038986c0.0014999,0.0024948,0.0029999,0.0048981,0.0043999,0.0074005   c0.0005001,0.0009003,0.0015,0.0028992,0.0025001,0.0038986C1.165,94.1439972,1.166,94.1455002,1.1664963,94.1470032   c0.0015037,0.0023956,0.0029,0.0043945,0.0043999,0.0067978c0.001,0.0014954,0.0015,0.0025024,0.0024,0.0038986   c0.001,0.0019989,0.002,0.0028992,0.0025001,0.0044022c0.0014,0.0024948,0.0029,0.0043945,0.0044,0.0067978   c0.0009999,0.001503,0.0019,0.0029984,0.0029,0.0044022c0.0005,0.0014954,0.0014999,0.0029984,0.0023999,0.0043945   c0.0015038,0.0025024,0.003,0.0044022,0.0040001,0.0069046c0.0008999,0.0013962,0.0019,0.0028992,0.0029,0.0044022   c0.0009999,0.0013962,0.0019,0.0028992,0.0029,0.0043945c0.0009999,0.0018997,0.0024999,0.0044022,0.0038999,0.0063019   c0.001,0.001503,0.002,0.0028992,0.0029,0.0044022c0.001,0.0019989,0.002,0.0033951,0.003,0.0054016   c0.0014,0.0018997,0.0024,0.0033951,0.0034,0.0052948c0.001,0.001503,0.0019001,0.0035019,0.0029,0.0044022   c0.001,0.0019989,0.0025001,0.0038986,0.0034,0.0054016c0.001,0.0019989,0.0025001,0.0038986,0.0035001,0.0058975   c0.0008999,0.0014038,0.0014,0.0024033,0.0023999,0.0038986c0.0015,0.0018997,0.0024,0.0038986,0.0039001,0.0057983   c0.0009999,0.0020065,0.002,0.0039063,0.0034038,0.0054016C1.2284962,94.2471008,1.2294962,94.248497,1.2304963,94.25   c0.0014,0.0019989,0.0023999,0.0038986,0.0038999,0.0058975c0.001,0.0014038,0.0019,0.0034027,0.0029,0.0047989   c0.001,0.001503,0.002,0.003006,0.0029,0.0044022c0.0015,0.0019989,0.0025001,0.0038986,0.0039001,0.0059052   c0.0009999,0.0014954,0.002,0.0033951,0.0029999,0.005394C1.248,94.277298,1.249,94.278801,1.25,94.2802963   c0.0014962,0.0019073,0.0028962,0.0044022,0.0038962,0.0068054c0.001,0.0009995,0.002,0.0024948,0.0029,0.0038986   c0.001,0.001503,0.002,0.0028992,0.003,0.0048981c0.0008999,0.0009995,0.0014,0.0019989,0.0019,0.0034027   c0.002,0.0025024,0.0034,0.0048981,0.0054001,0.0077972c0.0005,0.0009995,0.0009999,0.0019989,0.0019038,0.0029984   c0.0014962,0.0029068,0.0034962,0.0053024,0.0048962,0.0078049c0.001,0.0013962,0.0015,0.0018997,0.0025001,0.0033951   c0.0008999,0.001503,0.0019,0.0034027,0.0029,0.0049057c0.0014999,0.0018997,0.0029,0.0043945,0.0038999,0.0062943   c0.001,0.001503,0.0024,0.0029068,0.0034,0.0044022c0.0005001,0.001503,0.001,0.0025024,0.0020001,0.0034027   c0.0019,0.0029984,0.0034038,0.0054016,0.0052999,0.0083008l0.0015,0.0024948   c0.0015,0.0018997,0.0025001,0.0034027,0.0034,0.0053024c0.001,0.001503,0.0025001,0.0029984,0.0034001,0.0048981   c0.0015,0.0019989,0.0024999,0.0038986,0.0039999,0.0064011c0.0004001,0.0005035,0.0014,0.0014038,0.0019,0.0024033   c0.0015,0.0028992,0.0034001,0.0058975,0.0054001,0.0083008c0.001,0.0009995,0.001,0.0019989,0.0019,0.0028992   c0.0020001,0.0035019,0.0044,0.006897,0.0069001,0.0102997c0,0,0,0.0004959,0.0005,0.0004959   c0.0009,0.0018997,0.0019,0.0039063,0.0034,0.0054016c0.0005001,0.0009003,0.0009,0.0018997,0.0014,0.0024033   c0.0020001,0.0028992,0.0039001,0.0058975,0.0059,0.0087967C1.334,94.4096985,1.3344963,94.410202,1.335,94.4111023   c0.0023962,0.0029984,0.0043962,0.0064011,0.0062962,0.0093002c0.0005001,0.0004959,0.001,0.0009995,0.001,0.0019989   c0.0015,0.0013962,0.0024,0.0033951,0.0034,0.0047989c0.001,0.0009995,0.0015,0.0019989,0.002,0.0029984   c0.0019001,0.0028992,0.0039001,0.0057983,0.0058,0.0088043c0,0,0.001,0.0009003,0.0015038,0.0018997   c0.0018963,0.0033951,0.0043962,0.0064011,0.0062962,0.0097961c0.0005001,0.0005035,0.001,0.0005035,0.001,0.0014038   c0.0039001,0.005394,0.0078,0.0112991,0.0117037,0.0167007l0.001,0.0013962   c0.002,0.0034027,0.0043962,0.006897,0.0067962,0.0102997l0.0005,0.0005035   c0.0039001,0.0062943,0.0078,0.0116959,0.0117038,0.0174942l0.0004961,0.0009995   c0.003,0.0039063,0.0054001,0.0073013,0.0074,0.0108032c0.0003999,0.0003967,0.0003999,0.0003967,0.0009,0.0009003   c0.0038999,0.0054016,0.0078,0.0112991,0.0117999,0.0166016c0,0,0.0004038,0.0014954,0.0009,0.0019989   c0.0025038,0.0034027,0.0049,0.0067978,0.0074,0.0102005v0.0004959c0.0043,0.0059052,0.0082999,0.0117035,0.0122,0.017601   c0,0,0,0,0.0003999,0.0005035c0.0025038,0.0033951,0.0049,0.0067978,0.0074,0.0106964c0,0,0.0005,0.0005035,0.0009,0.0009995   c0.0064,0.0093002,0.0132037,0.019104,0.0201,0.028801c0.4892,0.6913986,1.0843999,1.302803,1.7621999,1.8096008   c0.3593001,0.2689972,0.7797999,0.3989029,1.1963,0.3989029c0.6093001,0,1.2104001-0.2773056,1.6034999-0.8022003   C6.6874962,95.1205978,6.5062962,93.8672028,5.6220961,93.2055969z"/><path d="M8.8803959,96c0,1.1044998,0.8955002,2,2,2H12v-4h-1.1196041C9.7758961,94,8.8803959,94.8955002,8.8803959,96z"/><path d="M10,16c0-1.1044998-0.895504-2-2-2c-0.0039039,0-0.0078039,0-0.0112038,0c-0.0010004,0-0.0020003,0-0.0030003,0   c-0.0033998,0-0.0077958,0-0.0112,0c-0.0005002,0-0.0009999,0-0.0015001,0c-0.0033998,0-0.0072999,0-0.0102,0   c-0.0009999,0-0.0014997,0-0.0024996,0c-0.0039001,0-0.0073004,0-0.0112004,0c-0.0009999,0-0.0014,0-0.0023999,0   c-0.0033998,0-0.0064001,0-0.0097961,0.0004997H7.9350963c-0.0035,0-0.0074,0-0.0113001,0c-0.0005002,0-0.0019002,0-0.0029001,0   c-0.0033998,0-0.0063,0-0.0103002,0c-0.0004001,0-0.0004001,0-0.0004001,0c-0.0043998,0-0.0078998,0-0.0117998,0   c-0.0008998,0-0.0018997,0-0.0018997,0c-0.0049005,0-0.0083003,0.0005007-0.0122004,0.0005007c0,0-0.0004997,0-0.0009999,0   c-0.0033998,0-0.0072961,0-0.0106997,0c-0.0005002,0-0.0015001,0-0.0015001,0c-0.0044003,0-0.0083003,0-0.0121999,0.0004997   c-0.0005002,0-0.0010004,0-0.0015001,0c-0.003396,0-0.0072999,0-0.0102,0c-0.0009999,0-0.0015001,0-0.0025001,0   c-0.0033998,0-0.0072999,0-0.0112,0.0004997H7.8314962c-0.0034003,0-0.0073004,0-0.0107002,0c-0.0004997,0-0.0004997,0-0.0004997,0   c-0.0044003,0-0.0082965,0-0.0117002,0.0004005c-0.0009999,0-0.0019999,0-0.0029001,0c-0.0035,0-0.0074,0-0.0107999,0   c-0.0005002,0-0.0009999,0-0.0014,0C7.79,14.0029001,7.7865963,14.0029001,7.783196,14.0029001   c-0.0015001,0-0.0018997,0-0.0029001,0c-0.0033998,0-0.0073996,0.0004997-0.0112958,0.0004997H7.7675962   c-0.0034003,0-0.0069003,0-0.0103002,0.0004997c-0.0009999,0-0.0014,0-0.0019002,0c-0.0039001,0-0.0077996,0-0.0116997,0   c-0.0005002,0-0.0009999,0-0.0015001,0c-0.0039001,0.0005007-0.0072999,0.0005007-0.0107999,0.0005007H7.73   C7.7260962,14.0049,7.7226963,14.0049,7.7182961,14.0049c0,0-0.0009999,0-0.0019999,0   c-0.0039001,0.0004997-0.0078001,0.0004997-0.0117002,0.0004997c-0.0033998,0-0.0072999,0.0005007-0.0112,0.0005007   c-0.0009999,0-0.0019999,0-0.0019999,0c-0.0043964,0-0.0083003,0.0003996-0.0122004,0.0003996H7.6786962   c-0.0034003,0-0.0072999,0.0004997-0.0106959,0.0004997c-0.0010004,0-0.0020003,0-0.0020003,0   c-0.0044036,0.0005007-0.0078039,0.0005007-0.011704,0.0005007c0,0-0.0009999,0-0.0019999,0   c-0.0029001,0.0004997-0.0068002,0.0004997-0.0096998,0.0004997c-0.0010004,0-0.0015001,0-0.0025001,0   c-0.0034003,0.0004997-0.0072999,0.0004997-0.0112,0.0009995c-0.0005002,0-0.0015001,0-0.0015001,0   c-0.0039001,0-0.0078001,0-0.0112,0.0005007c0,0-0.0005002,0-0.0009999,0c-0.0039001,0-0.0073004,0.0004997-0.0117002,0.0004997   H7.6015959c-0.0038996,0.0004997-0.0077996,0.0004997-0.0117998,0.0004997c0,0,0,0-0.0004001,0   c-0.0035,0.0004005-0.0073962,0.0004005-0.0107999,0.0009003c-0.0009999,0-0.0015001,0-0.0023999,0   c-0.0034003,0-0.0078001,0.0004997-0.0113001,0.0004997c-0.0004001,0-0.0014,0-0.0014,0   c-0.0039001,0.0005007-0.0072999,0.0005007-0.0103002,0.0005007c-0.0004997,0.0004997-0.0014,0.0004997-0.0023999,0.0004997   c-0.0033998,0-0.0072999,0.0004997-0.0107961,0.0004997c-0.0009041,0-0.001904,0-0.001904,0   c-0.0039001,0.0004997-0.0072999,0.0004997-0.0107999,0.0004997l-0.0014,0.0005007   c-0.0038962,0-0.0072999,0.0003996-0.0113001,0.0003996c-0.0008998,0-0.0014,0-0.0023999,0   c-0.0072999,0.0004997-0.0151,0.0010004-0.0229001,0.0015001c0,0-0.0014997,0-0.0019999,0.0004997   c-0.0044003,0-0.0078001,0.0005007-0.0117002,0.0005007c0,0,0,0-0.0004997,0   c-0.0034003,0.0004997-0.0073004,0.0004997-0.0107002,0.0009995c-0.0009999,0-0.0015001,0-0.0025001,0   c-0.0033998,0-0.0072999,0.0005007-0.0112,0.0009003c-0.0004997,0-0.0009999,0-0.0015001,0   c-0.0038996,0-0.0067997,0.0004997-0.0106997,0.0004997H7.4369998c-0.0039039,0.0005007-0.0078039,0.0010004-0.0112038,0.0010004   c-0.0009999,0-0.0015001,0-0.0015001,0c-0.0043998,0.0004997-0.008296,0.0009995-0.0121999,0.0009995   C7.408196,14.0220003,7.4042959,14.0220003,7.4003959,14.0225c0,0-0.0014997,0-0.0019999,0   c-0.0039001,0.0003996-0.0072999,0.0003996-0.0117002,0.0009003c0,0,0,0-0.0004997,0   C7.3827963,14.0239,7.3788962,14.0239,7.3754959,14.0243998c0,0-0.0014958,0-0.0024958,0   c-0.0034041,0.0005007-0.0073042,0.0005007-0.0112042,0.0010004c-0.0004997,0-0.0009999,0-0.0014,0   c-0.0035,0.0004997-0.0068998,0.0004997-0.0107999,0.0009995c-0.0004997,0-0.0004997,0-0.0004997,0   c-0.0044003,0.0005007-0.0083003,0.0009003-0.0122004,0.0009003c-0.0004997,0-0.0009999,0-0.0018959,0   c-0.0035038,0.0004997-0.0069041,0.0010004-0.0108042,0.0010004c0,0-0.0004997,0-0.0009999,0.0004997   c-0.0039001,0-0.0072999,0.0004997-0.0111961,0.0010004c-0.0009999,0-0.0015039,0-0.0015039,0   c-0.0086999,0.0004997-0.0155997,0.0014992-0.0233998,0.0018997c-0.0009999,0-0.0015001,0-0.0023999,0   c-0.0039001,0.0004997-0.0074,0.0009995-0.0113001,0.0015001c0,0-0.0004997,0-0.0008998,0   c-0.0034962,0-0.0074,0.0004997-0.0108004,0.0009995c-0.0004997,0-0.0014,0-0.0014,0   c-0.0039997,0.0005007-0.008296,0.0010004-0.0117998,0.0010004c0,0-0.0008998,0-0.0014,0   c-0.0033998,0.0003996-0.0068998,0.0009003-0.0107999,0.0014h-0.0014c-0.0035,0.0004997-0.0078001,0.0004997-0.0113001,0.0009995   c-0.0005002,0-0.0008998,0-0.0019002,0C7.2177958,14.0381002,7.214396,14.0386,7.2103963,14.0390997H7.21   C7.2060962,14.0396004,7.2025962,14.0396004,7.1986961,14.04c-0.0005002,0-0.0014,0-0.0023999,0.0004997   c-0.0039001,0-0.0072961,0.0005007-0.0112,0.0010004H7.1845961c-0.0039001,0.0004997-0.0068998,0.0009995-0.0107999,0.0009995   c-0.0009003,0.0005007-0.0014,0.0005007-0.0014,0.0005007c-0.004396,0.0004997-0.0083003,0.0004997-0.0121999,0.0008993   c0,0-0.0005002,0-0.0010004,0c-0.0033998,0.0005007-0.0072999,0.0010004-0.0112996,0.0015001H7.1469998   c-0.0039039,0.0005007-0.0074039,0.0010004-0.011704,0.0015001H7.1337962c-0.0039001,0.0005007-0.0072999,0.0010004-0.0112,0.0014   c0,0,0,0-0.0005002,0c-0.0039001,0.0005007-0.0074,0.0005007-0.0113001,0.0010004c-0.0008998,0-0.0014,0.0004997-0.0014,0.0004997   C7.1010962,14.0508003,7.0932961,14.0513,7.0853963,14.0522003c0,0-0.0009003,0-0.0013962,0.0004997   c-0.0039039,0-0.0078039,0.0004997-0.011704,0.0010004H7.0717959c-0.0039001,0.0004997-0.0072999,0.0009995-0.0113001,0.0014992   c0,0-0.0008998,0-0.0014,0c-0.0033998,0.0005007-0.0077996,0.0010004-0.0112,0.0014c-0.0004997,0-0.0009999,0-0.0014997,0.0005007   c-0.003396,0-0.0073004,0.0004997-0.0112,0.0009995c0,0-0.0005002,0-0.0010004,0.0005007   c-0.0039001,0.0004997-0.0072999,0.0004997-0.0112996,0.0009995c-0.0004001,0.0004997-0.0008965,0.0004997-0.0014,0.0004997   c-0.0078001,0.0009003-0.0156002,0.0019007-0.0234962,0.0029001H6.9965959   c-0.0038996,0.0005007-0.0077996,0.0010004-0.0116997,0.0015001c-0.0038962,0.0004005-0.0078001,0.0009003-0.0118003,0.0014   l-0.0014,0.0004997C6.9677958,14.0669003,6.9638963,14.0674,6.96,14.0678997   c-0.0044041,0.0005007-0.0083041,0.0009003-0.0122042,0.0014c-0.0004997,0-0.0004997,0-0.0004997,0   c-0.0039001,0.0005007-0.0078001,0.0010004-0.0118003,0.0019999c0,0-0.0008998,0-0.0014,0   c-0.0077996,0.0010004-0.0155997,0.0019007-0.0235,0.0029001c-0.0003996,0.0005007-0.0008998,0.0005007-0.0014,0.0005007   c-0.0077996,0.0009995-0.0155997,0.0019999-0.0229998,0.0028992c0,0-0.0014,0.0005007-0.0019002,0.0005007   c-0.0039001,0.0004997-0.0077996,0.0009995-0.0116997,0.0015001c-0.0039001,0.0009995-0.0079002,0.0015001-0.0118003,0.0018997   c-0.0004001,0-0.0004001,0-0.0004001,0c-0.004396,0.0004997-0.0082998,0.0010004-0.0123,0.0019999H6.8476963   c-0.0079002,0.0010004-0.0166001,0.0024004-0.0240002,0.0033998c-0.0005002,0-0.0005002,0-0.0014,0   c-0.0074,0.0015001-0.0156999,0.0025005-0.0235,0.0039005c-0.0005002,0-0.0005002,0-0.0005002,0   C6.7938962,14.0913,6.79,14.0917997,6.7860961,14.0928001H6.7855959c-0.0038996,0.0004997-0.0072999,0.0009995-0.0112,0.0014   l-0.0014997,0.0004997C6.7690001,14.0951996,6.7650962,14.0957003,6.7611961,14.0962   c0,0.0004997-0.0005002,0.0004997-0.0005002,0.0004997c-0.0039001,0.0005007-0.0077996,0.0010004-0.0116959,0.0014   l-0.000504,0.0005007c-0.0039001,0.0004997-0.0078001,0.0009995-0.0117002,0.0014992   c0,0.0005007-0.0004997,0.0005007-0.0004997,0.0005007c-0.0088,0.0009995-0.0160999,0.0023994-0.0244002,0.0038996H6.7113962   c-0.0078001,0.0015001-0.0156002,0.0024004-0.023396,0.0039005H6.6864963   c-0.0078001,0.0015001-0.0160999,0.0029001-0.0234003,0.0038996c-0.0004997,0.0004997-0.0009999,0.0004997-0.0009999,0.0004997   C6.658196,14.1133003,6.6542959,14.1138,6.6503959,14.1147003H6.6498961   c-0.0082998,0.0015001-0.0156002,0.0029993-0.0238962,0.0043993c-0.000504,0-0.000504,0-0.000504,0   c-0.0082998,0.0015001-0.0165997,0.0030003-0.0239,0.0039005c-0.0004997,0.0004997-0.0009999,0.0004997-0.0009999,0.0004997   C6.5922961,14.125,6.585,14.1265001,6.5766959,14.1279001c-0.0004997,0,0,0-0.0004997,0   C6.5640001,14.1299,6.552196,14.1323004,6.54,14.1343002c0,0-0.0004039,0.0004997-0.0009041,0.0004997   c-0.0077996,0.0014-0.0156999,0.0029001-0.0239997,0.0044003H6.514596c-0.0078001,0.0014-0.0155959,0.0029001-0.0233998,0.0044003   c0,0-0.0005002,0.0003996-0.0009999,0.0003996c-0.0205002,0.0038996-0.04,0.0079002-0.0605001,0.0117998H6.4291959   c-0.0077996,0.0018997-0.0155997,0.0033998-0.0233998,0.0047998c-0.0004997,0-0.0004997,0-0.0004997,0   c-0.0088,0.0019999-0.0161004,0.0035-0.0240002,0.0049c0,0-0.0004001,0.0005007-0.0009003,0.0005007   c-0.0038996,0.0004997-0.0077996,0.0014992-0.0116997,0.0024996c-0.0083003,0.0014-0.0162001,0.0033998-0.0240002,0.0047998   H6.3441963c-0.0083003,0.0019999-0.0161004,0.0035-0.0239,0.0054007H6.3197961   c-0.0077963,0.0019999-0.0160999,0.0033998-0.0239,0.0053997c-2.0995998,0.4598999-3.8974998,1.7509995-5.0277996,3.5073004   c-0.5943,0.9277-0.3261999,2.1616001,0.6006,2.7593002c0.3348999,0.2162991,0.7103999,0.3192997,1.082,0.3192997   c0.6566999,0,1.3003037-0.3232002,1.6825998-0.9165001C5.3817964,18.6928997,6.6400962,18,8,18C9.104496,18,10,17.1044998,10,16z"/><path d="M2,51.4398994c1.1044962,0,2-0.8950005,2-2v-8c0-1.1044998-0.8955038-2-2-2c-1.1045038,0-2,0.8955002-2,2v8   C0,50.544899,0.8954962,51.4398994,2,51.4398994z"/><path d="M2,67.4399033c1.1044962,0,2-0.8950043,2-2v-8.0000038c0-1.1044998-0.8955038-2-2-2c-1.1045038,0-2,0.8955002-2,2   v8.0000038C0,66.544899,0.8954962,67.4399033,2,67.4399033z"/><path d="M2,83.4399033c1.1044962,0,2-0.8950043,2-2v-8c0-1.1044998-0.8955038-2-2-2c-1.1045038,0-2,0.8955002-2,2v8   C0,82.544899,0.8954962,83.4399033,2,83.4399033z"/><g><path d="M79.6830978,76.8100967c0.0912933-0.6718979,0.5170975-1.2519989,1.1309052-1.540596l3.7225876-1.7514038    l-18.5248947-3.8495941l5.7934952,17.1620941l1.7046051-4.0541992c0.2480011-0.5888977,0.762207-1.0243988,1.384697-1.1713943    c0.1519012-0.0357056,0.3061981-0.0531998,0.4589996-0.0531998c0.4731979,0,0.9365082,0.1679001,1.302803,0.482399    l11.9105988,10.2256012l3.5137024-3.6035004L80.3622971,78.5967026    C79.8476944,78.1548004,79.5917969,77.482399,79.6830978,76.8100967z"/><path d="M120,30H24c-4.3999043,0-8,3.6001015-8,8v68c0,4.3999023,3.6000957,8,8,8h96c4.3998947,0,8-3.6000977,8-8V38    C128,33.6001015,124.3998947,30,120,30z M67,54c0-1.1044998,0.8954926-2,2-2c1.1044922,0,2,0.8955002,2,2v6    c0,1.1044998-0.8955078,2-2,2c-1.1045074,0-2-0.8955002-2-2V54z M56.3285942,71.972702l-6,1    c-0.1107979,0.0185013-0.2216988,0.0278015-0.3309975,0.0278015c-0.9600029,0-1.8072014-0.6934052-1.9703026-1.6719055    c-0.1815987-1.0892944,0.5541992-2.1195984,1.6441002-2.3013l6-1c1.0825005-0.1815948,2.1201019,0.5541992,2.3013,1.644104    C58.1542931,70.7606964,57.4184952,71.7910004,56.3285942,71.972702z M59.414093,62.4141006    C59.0238953,62.8046989,58.5116959,63,58,63c-0.5117035,0-1.0239067-0.1953011-1.4141045-0.5858994l-6-6    c-0.7812004-0.7807999-0.7812004-2.0474014,0-2.8282013c0.7803001-0.7812004,2.0479012-0.7812004,2.8281975,0l6,6    C60.1952934,60.3666992,60.1952934,61.6333008,59.414093,62.4141006z M96.4320908,89.9228973l-6.3115005,6.4731064    C89.7300034,96.7968979,89.2099991,97,88.6880035,97c-0.46241,0-0.9263077-0.1596985-1.3023071-0.482399l-11.2524033-9.6606979    l-2.6889954,6.3955002c-0.3222046,0.7665939-1.0888062,1.2524948-1.9160004,1.2231979    c-0.8310013-0.0298004-1.5566025-0.5708008-1.8227005-1.358902l-8.6005974-25.4770966    c-0.2290001-0.6791992-0.0772057-1.4291992,0.3978958-1.9658051c0.4761047-0.5360947,1.2045975-0.777298,1.903801-0.6317978    l27.8076973,5.778801c0.8422012,0.1747971,1.4779968,0.8691025,1.5791016,1.7236023    c0.100502,0.8544998-0.3564987,1.6777954-1.1352997,2.0439987L85.3119965,77.5737l10.9906998,9.4356003    c0.4189987,0.3598022,0.6708984,0.8768997,0.6953049,1.4291992C97.0224915,88.9901962,96.817894,89.527298,96.4320908,89.9228973z    "/></g></g><text x="0" y="143" fill="#000000" font-size="5px" font-weight="bold" font-family="'Helvetica Neue', Helvetica, Arial-Unicode, Arial, Sans-serif">Created by priyanka</text><text x="0" y="148" fill="#000000" font-size="5px" font-weight="bold" font-family="'Helvetica Neue', Helvetica, Arial-Unicode, Arial, Sans-serif">from the Noun Project</text></svg>