<svg xmlns="http://www.w3.org/2000/svg" width="700" height="403" viewBox="0 0 699.5 403.2"><style>.a{fill:#468FCD;}.b{fill:#36C4E5;}.c{fill:#70C05D;}.d{fill:#D1D3D4;}.e{fill:#A955A1;}.f{fill:#F29C1F;}</style><path d="M249.5 258l8.8 27.7c0.6 1.8 2.2 3 4.1 3l29.1 0.2c4.2 0 5.9 5.4 2.5 7.9l-23.6 16.9c-1.5 1.1-2.2 3.1-1.6 4.9l8.8 27.7c1.3 4-3.3 7.3-6.7 4.8l-23.4-17.3c-1.5-1.1-3.6-1.1-5.1 0l-23.6 16.9c-3.4 2.4-8-0.9-6.7-4.9l9.2-27.6c0.6-1.8 0-3.8-1.5-4.9l-23.4-17.3c-3.4-2.5-1.6-7.9 2.6-7.8l29.1 0.2c1.9 0 3.6-1.2 4.2-3l9.2-27.6C242.6 254 248.3 254 249.5 258z" class="a"/><path d="M548.1 389c0 7.8-6.3 14.2-14.2 14.2 -7.8 0-14.2-6.3-14.2-14.2 0-7.8 6.3-14.2 14.2-14.2C541.8 374.8 548.1 381.1 548.1 389z" class="b"/><circle cx="526" cy="218" r="14.1" class="c"/><path d="M397.3 224.2l4.2 15.3c0.3 1 1.2 1.7 2.2 1.7l15.9 0.8c2.3 0.1 3.1 3.1 1.2 4.4l-13.3 8.7c-0.9 0.6-1.3 1.6-1 2.6l4.2 15.3c0.6 2.2-2 3.9-3.8 2.5l-12.4-9.9c-0.8-0.6-1.9-0.7-2.8-0.1l-13.3 8.7c-1.9 1.3-4.3-0.7-3.5-2.8l5.6-14.9c0.4-1 0.1-2.1-0.7-2.7l-12.4-9.9c-1.8-1.4-0.7-4.3 1.6-4.2l15.9 0.8c1 0 2-0.6 2.3-1.5l5.6-14.9C393.6 221.8 396.7 222 397.3 224.2z" class="b"/><circle cx="294.7" cy="269.9" r="7" class="d"/><path d="M568.5 153.2l-9.2-17c-0.6-1.1-1.9-1.7-3.3-1.5l-20.8 3.2c-3 0.5-4.8-2.8-2.6-4.8l15.1-13.7c1-0.9 1.2-2.2 0.6-3.3l-9.2-17c-1.3-2.5 1.6-5.1 4.3-3.9l18.6 8.5c1.2 0.5 2.7 0.3 3.7-0.6l15.1-13.7c2.2-2 5.8-0.3 5.3 2.4l-3.6 19c-0.2 1.2 0.4 2.4 1.6 3l18.6 8.5c2.7 1.2 2 4.9-1 5.4l-20.8 3.2c-1.4 0.2-2.4 1.2-2.7 2.4l-3.6 19C573.9 155 569.8 155.6 568.5 153.2z" class="e"/><path d="M494.7 270.5l15.7 12.3c1 0.8 2.4 0.9 3.5 0.1l16.6-11.1c2.4-1.6 5.5 0.8 4.5 3.5l-6.9 18.8c-0.4 1.2-0.1 2.6 1 3.4l15.7 12.3c2.3 1.8 0.9 5.4-2 5.3l-20-0.8c-1.3 0-2.5 0.7-2.9 2l-6.9 18.8c-1 2.7-4.9 2.6-5.7-0.2l-5.4-19.2c-0.4-1.3-1.5-2.1-2.8-2.2l-20-0.8c-2.9-0.1-4-3.9-1.5-5.5l16.6-11.1c1.1-0.7 1.6-2.1 1.2-3.3l-5.4-19.2C489.2 270.9 492.4 268.8 494.7 270.5z" class="a"/><circle cx="227.1" cy="160.8" r="9.2" class="d"/><circle cx="156.3" cy="363" r="9.2" class="d"/><path d="M20.1 310.8l15.3 3.1c1 0.2 2-0.3 2.5-1.1l7.7-13.6c1.1-2 4.1-1.4 4.4 0.9l1.8 15.5c0.1 1 0.9 1.8 1.9 2l15.3 3.1c2.2 0.4 2.6 3.5 0.5 4.4l-14.2 6.5c-0.9 0.4-1.5 1.4-1.3 2.4l1.8 15.5c0.3 2.3-2.5 3.5-4 1.9L41 339.8c-0.7-0.7-1.8-1-2.7-0.5l-14.2 6.5c-2.1 0.9-4.1-1.3-3-3.3l7.7-13.6c0.5-0.9 0.4-2-0.3-2.7l-10.6-11.5C16.3 313 17.8 310.3 20.1 310.8z" class="c"/><circle cx="97.5" cy="218" r="9.2" class="d"/><path d="M318 174.1l1.2-34c0.1-2.2-1.3-4.2-3.3-5l-32-11.7c-4.6-1.7-4.4-8.3 0.3-9.7l32.7-9.4c2.1-0.6 3.6-2.5 3.7-4.7l1.2-34c0.2-4.9 6.6-6.8 9.3-2.7l19 28.2c1.2 1.8 3.5 2.7 5.6 2.1l32.7-9.4c4.7-1.4 8.5 4.2 5.4 8l-21 26.8c-1.4 1.7-1.4 4.2-0.2 6l19 28.2c2.8 4.1-1.3 9.3-6 7.6l-32-11.7c-2.1-0.8-4.4-0.1-5.8 1.6l-21 26.8C324.1 181.3 317.8 179 318 174.1z" fill="#F0C419"/><path d="M665.2 297.3l-15.5-19.7c-1-1.3-2.7-1.8-4.2-1.2l-23.6 8.6c-3.4 1.3-6.4-2.6-4.4-5.6l14-20.8c0.9-1.3 0.8-3.1-0.2-4.4l-15.5-19.7c-2.2-2.9 0.5-6.9 4-5.9l24.1 6.9c1.6 0.4 3.2-0.2 4.1-1.5l14-20.8c2-3 6.7-1.7 6.9 2l0.9 25.1c0.1 1.6 1.2 3 2.7 3.5l24.1 6.9c3.5 1 3.7 5.9 0.3 7.1l-23.6 8.6c-1.5 0.6-2.5 2-2.5 3.7l0.9 25.1C672 298.5 667.4 300.1 665.2 297.3z" class="f"/><path d="M243.4 46.8c0-6.8 5.4-12.3 12.2-12.3 6.8 0 12.3 5.4 12.3 12.2 0 6.8-5.4 12.3-12.2 12.3C248.9 59 243.4 53.6 243.4 46.8z" class="b"/><path d="M330.5 372.3c0-6.7 5.4-12.2 12.1-12.2 6.7 0 12.2 5.4 12.2 12.1 0 6.7-5.4 12.2-12.1 12.2C336 384.4 330.6 379 330.5 372.3z" class="c"/><path d="M470.6 128l-7.8-11.3c-0.5-0.7-1.4-1.1-2.3-0.8l-13.1 4c-1.9 0.6-3.4-1.6-2.2-3.2l8.3-10.9c0.5-0.7 0.6-1.7 0.1-2.4l-7.8-11.3c-1.1-1.6 0.5-3.8 2.4-3.1l13 4.5c0.8 0.3 1.8 0 2.3-0.7l8.3-10.9c1.2-1.6 3.7-0.7 3.7 1.3l-0.3 13.7c0 0.9 0.5 1.7 1.4 2l13 4.5c1.9 0.7 1.8 3.3-0.1 3.9l-13.1 4c-0.9 0.3-1.4 1-1.5 1.9l-0.3 13.7C474.3 128.9 471.7 129.6 470.6 128z" class="b"/><circle cx="440.9" cy="148.4" r="6.1" class="d"/><path d="M9.8 146.2l15.3 6.7c1 0.4 2.2 0.1 3-0.7L40.6 139c1.8-1.9 4.8-0.6 4.4 1.9l-3 17.4c-0.2 1.1 0.3 2.2 1.3 2.6l15.3 6.7c2.2 1 1.6 4.4-0.9 4.9l-17.2 4c-1.1 0.3-2 1.2-2.2 2.3l-3 17.4c-0.4 2.5-3.8 3.3-4.9 1.1l-7.6-14.9c-0.5-1-1.6-1.4-2.7-1.2l-17.1 4c-2.5 0.6-4-2.3-2.2-4.2l12.5-13.2c0.8-0.9 1-2.1 0.5-3.1L6.2 150C5.1 147.8 7.6 145.3 9.8 146.2z" class="e"/><path d="M150.9 87.7l-13.6-10.6c-0.9-0.7-2.1-0.7-3-0.1L120 86.7c-2.1 1.4-4.7-0.7-3.9-3l5.8-16.2c0.4-1.1 0-2.2-0.8-2.9L107.5 54c-2-1.5-0.8-4.7 1.7-4.6l17.2 0.5c1.1 0 2.1-0.7 2.5-1.7l5.8-16.2c0.8-2.4 4.2-2.2 4.9 0.2l4.8 16.6c0.3 1.1 1.3 1.8 2.4 1.9l17.2 0.5c2.5 0.1 3.4 3.3 1.4 4.7l-14.3 9.7c-0.9 0.6-1.3 1.8-1 2.9L155 85C155.7 87.4 152.9 89.3 150.9 87.7z" class="a"/><path d="M135.9 206.2l-5.3-12.7c-0.3-0.8-1.2-1.3-2.1-1.3l-13.7 1.1c-2 0.2-3-2.3-1.5-3.6l10.4-8.9c0.7-0.6 0.9-1.5 0.6-2.4l-5.3-12.7c-0.8-1.8 1.3-3.6 3-2.5l11.7 7.2c0.8 0.5 1.7 0.4 2.4-0.2l10.4-8.9c1.5-1.3 3.8 0.1 3.3 2l-3.2 13.4c-0.2 0.9 0.2 1.8 0.9 2.2l11.7 7.2c1.7 1 1.1 3.6-0.9 3.8l-13.7 1.1c-0.9 0.1-1.6 0.7-1.8 1.6l-3.2 13.4C139.4 207.8 136.7 208 135.9 206.2z" class="f"/><circle cx="81.9" cy="121.6" r="8" class="d"/><circle cx="559.9" cy="67.3" r="8" class="d"/><path d="M654.8 35.5l-13.2-2.6c-0.9-0.2-1.7 0.2-2.2 1l-6.5 11.8c-0.9 1.7-3.5 1.2-3.8-0.7l-1.6-13.4c-0.1-0.9-0.8-1.6-1.6-1.7l-13.2-2.6c-1.9-0.4-2.2-3-0.5-3.8l12.2-5.7c0.8-0.4 1.3-1.2 1.1-2.1l-1.6-13.4c-0.2-1.9 2.2-3.1 3.5-1.6l9.2 9.9c0.6 0.6 1.5 0.8 2.3 0.5l12.2-5.7c1.8-0.8 3.6 1.1 2.6 2.8l-6.5 11.8c-0.4 0.8-0.3 1.7 0.3 2.4l9.2 9.9C658 33.5 656.7 35.8 654.8 35.5z" class="c"/><circle cx="611.5" cy="192.1" r="8" class="d"/></svg>