<svg xmlns="http://www.w3.org/2000/svg" width="1044" height="579" viewBox="0 0 1043.9 578.8"><style>.a{fill:#4E64AF;}.b{fill:#56C9EA;}.c{fill:#3CB44B;}.d{fill:#D1D3D4;}.e{fill:#863E97;}.f{fill:#FEE10F;}</style><path d="M252.3 118.2l23.6 23.3c1.5 1.5 3.9 1.9 5.8 0.9l29.4-15.3c4.3-2.2 8.9 2.3 6.7 6.6L303 163.4c-1 1.9-0.6 4.2 1 5.8l23.6 23.3c3.4 3.4 0.5 9.2-4.2 8.4l-32.8-4.9c-2.1-0.3-4.2 0.8-5.2 2.7l-14.8 29.7c-2.2 4.3-8.5 3.3-9.3-1.4l-5.4-32.7c-0.4-2.1-2-3.8-4.2-4.1l-32.8-4.9c-4.8-0.7-5.8-7.1-1.5-9.3l29.4-15.3c1.9-1 3-3.1 2.6-5.2l-5.4-32.7C243.2 117.8 248.9 114.9 252.3 118.2z" class="a"/><path d="M718.8 177.5c0 8.9-7.2 16.2-16.2 16.2 -8.9 0-16.2-7.2-16.2-16.2s7.2-16.2 16.2-16.2C711.6 161.3 718.8 168.6 718.8 177.5z" class="b"/><path d="M879 550.6c0 8.9-7.2 16.1-16.1 16.1 -8.9 0-16.1-7.2-16.1-16.1 0-8.9 7.2-16.1 16.1-16.1C871.8 534.6 879 541.7 879 550.6z" class="c"/><path d="M243.1 318.9l4.8 17.5c0.3 1.1 1.3 1.9 2.5 2l18.1 0.9c2.6 0.1 3.6 3.5 1.4 5l-15.2 10c-1 0.6-1.4 1.9-1.1 3l4.8 17.5c0.7 2.5-2.3 4.5-4.3 2.8l-14.1-11.3c-0.9-0.7-2.2-0.8-3.2-0.2l-15.2 10c-2.2 1.4-5-0.8-4-3.2l6.4-17c0.4-1.1 0.1-2.3-0.8-3.1l-14.2-11.3c-2.1-1.6-0.8-5 1.8-4.8l18.1 0.9c1.2 0.1 2.3-0.7 2.7-1.8l6.4-17C238.9 316.2 242.4 316.3 243.1 318.9z" class="b"/><circle cx="440.3" cy="8" r="8" class="d"/><path d="M529.4 247.7l-10.5-19.4c-0.7-1.3-2.2-1.9-3.7-1.7l-23.7 3.7c-3.4 0.5-5.5-3.2-3-5.5l17.2-15.7c1.1-1 1.4-2.6 0.7-3.8L495.8 186c-1.5-2.8 1.8-5.9 4.9-4.5l21.2 9.7c1.4 0.6 3.1 0.4 4.2-0.7l17.2-15.7c2.5-2.3 6.6-0.4 6 2.8l-4.1 21.6c-0.3 1.4 0.5 2.8 1.9 3.4l21.2 9.7c3.1 1.4 2.3 5.6-1.2 6.2l-23.7 3.7c-1.5 0.2-2.8 1.4-3 2.8l-4.1 21.6C535.5 249.8 530.9 250.5 529.4 247.7z" class="e"/><path d="M777.1 87.1l17.9 14.1c1.2 0.9 2.8 1 4 0.2l18.9-12.7c2.7-1.8 6.2 0.9 5.1 4l-7.9 21.4c-0.5 1.4-0.1 2.9 1.1 3.9l17.9 14.1c2.6 2 1.1 6.2-2.2 6.1l-22.8-0.9c-1.5-0.1-2.8 0.8-3.3 2.2l-7.9 21.4c-1.1 3.1-5.6 2.9-6.5-0.2l-6.2-21.9c-0.4-1.4-1.7-2.4-3.2-2.5l-22.8-0.9c-3.3-0.1-4.5-4.4-1.8-6.2l18.9-12.7c1.2-0.8 1.8-2.3 1.4-3.8l-6.2-21.9C770.8 87.6 774.5 85.1 777.1 87.1z" class="a"/><path d="M1008 550.6c0 5.8-4.7 10.5-10.5 10.5 -5.8 0-10.5-4.7-10.5-10.5 0-5.8 4.7-10.5 10.5-10.5C1003.3 540.1 1008 544.8 1008 550.6z" class="d"/><circle cx="293" cy="86.4" r="10.5" class="d"/><path d="M26.2 420.6l14.9-9.8c1-0.6 1.4-1.8 1.1-2.9l-4.7-17.2c-0.7-2.5 2.2-4.4 4.2-2.8l13.9 11.2c0.9 0.7 2.2 0.8 3.1 0.1l14.9-9.8c2.2-1.4 4.9 0.8 4 3.2l-6.3 16.7c-0.4 1.1-0.1 2.3 0.8 3l13.9 11.2c2 1.6 0.8 4.9-1.8 4.7l-17.8-0.9c-1.2-0.1-2.2 0.6-2.6 1.7l-6.3 16.7c-0.9 2.4-4.4 2.2-5.1-0.3l-4.7-17.2c-0.3-1.1-1.3-1.9-2.4-2l-17.8-0.9C25 425.3 24.1 422 26.2 420.6z" class="c"/><path d="M155.8 316.9c0 5.8-4.7 10.5-10.5 10.5 -5.8 0-10.5-4.7-10.5-10.5 0-5.8 4.7-10.5 10.5-10.5C151.1 306.3 155.8 311.1 155.8 316.9z" class="d"/><path d="M553.9 115.2L573.1 89c1.3-1.7 1.3-4 0-5.7l-19-26.4c-2.8-3.8 1-8.9 5.5-7.5l30.9 10.2c2 0.7 4.2 0 5.4-1.7l19.2-26.2c2.8-3.8 8.8-1.8 8.8 2.9l-0.2 32.5c0 2.1 1.3 4 3.3 4.6L658 82c4.5 1.5 4.4 7.8 0 9.3l-31 9.9c-2 0.6-3.4 2.5-3.4 4.6l-0.2 32.5c0 4.7-6.1 6.6-8.8 2.8l-19-26.4c-1.2-1.7-3.4-2.4-5.4-1.8l-31 9.9C554.8 124.2 551.1 119 553.9 115.2z" class="f"/><path d="M765.4 357.8l7.9-27.5c0.5-1.8-0.2-3.7-1.7-4.7l-23.7-16c-3.4-2.3-1.9-7.7 2.2-7.8l28.6-1c1.9-0.1 3.5-1.3 4-3.1l7.9-27.5c1.1-4 6.7-4.2 8.1-0.3l9.8 26.9c0.6 1.7 2.3 2.9 4.2 2.8l28.6-1c4.1-0.1 6.1 5.1 2.8 7.7l-22.5 17.6c-1.5 1.1-2 3.1-1.4 4.8l9.8 26.9c1.4 3.9-3 7.3-6.4 5l-23.7-16c-1.5-1-3.6-1-5 0.2l-22.5 17.6C768.9 364.9 764.3 361.8 765.4 357.8z" fill="#F58230"/><path d="M822.2 420.3c0-7.7 6.2-14 13.9-14 7.7 0 14 6.2 14 13.9 0 7.7-6.2 14-13.9 14C828.5 434.2 822.2 428 822.2 420.3z" class="b"/><path d="M243.4 434.8c0-7.7 6.1-13.9 13.8-14 7.7 0 13.9 6.1 14 13.8 0 7.7-6.1 13.9-13.8 13.9C249.6 448.6 243.4 442.5 243.4 434.8z" class="c"/><path d="M924.8 275.7l-8.9-12.8c-0.6-0.8-1.6-1.2-2.6-0.9l-15 4.5c-2.2 0.7-3.9-1.9-2.5-3.7l9.5-12.5c0.6-0.8 0.6-1.9 0.1-2.8l-8.9-12.8c-1.3-1.9 0.5-4.3 2.7-3.6l14.8 5.1c1 0.3 2 0 2.6-0.8l9.5-12.5c1.4-1.8 4.3-0.8 4.2 1.5l-0.3 15.7c0 1 0.6 1.9 1.6 2.3l14.8 5.1c2.1 0.7 2.1 3.8-0.1 4.5l-15 4.5c-1 0.3-1.6 1.2-1.7 2.2l-0.3 15.6C929 276.7 926.1 277.6 924.8 275.7z" class="b"/><circle cx="51.1" cy="500.3" r="6.9" class="d"/><path d="M11.2 251.5l17.4 7.6c1.1 0.5 2.5 0.2 3.4-0.8l14.2-15.1c2.1-2.2 5.5-0.7 5 2.2l-3.5 19.8c-0.2 1.3 0.4 2.5 1.5 3l17.4 7.6c2.5 1.1 1.9 5-1 5.6l-19.6 4.6c-1.3 0.3-2.3 1.4-2.5 2.7l-3.4 19.8c-0.5 2.9-4.3 3.8-5.6 1.3l-8.6-17c-0.6-1.1-1.8-1.6-3.1-1.3l-19.6 4.6c-2.8 0.7-4.5-2.6-2.5-4.8l14.2-15.1c0.9-1 1.2-2.4 0.6-3.5l-8.6-17C5.9 253.4 8.6 250.4 11.2 251.5z" class="e"/><path d="M172.2 578.2l-15.5-12.1c-1-0.8-2.4-0.8-3.5-0.1l-16.3 11.1c-2.4 1.6-5.4-0.7-4.4-3.4l6.7-18.5c0.4-1.2 0-2.5-1-3.3l-15.5-12.1c-2.3-1.7-1-5.4 1.9-5.3l19.7 0.6c1.3 0 2.4-0.7 2.9-1.9l6.7-18.5c1-2.7 4.8-2.6 5.6 0.2l5.5 18.9c0.4 1.2 1.5 2.1 2.7 2.1l19.7 0.6c2.9 0.1 3.9 3.8 1.6 5.4l-16.3 11.1c-1.1 0.7-1.5 2-1.2 3.3l5.5 18.9C177.6 577.8 174.4 580 172.2 578.2z" class="a"/><path d="M386.2 101l-6-14.5c-0.4-0.9-1.3-1.5-2.4-1.4l-15.6 1.3c-2.3 0.2-3.4-2.6-1.7-4.1l11.9-10.2c0.8-0.7 1-1.7 0.6-2.7L367 55c-0.9-2.1 1.4-4.1 3.4-2.9l13.4 8.2c0.9 0.5 2 0.4 2.7-0.2l11.9-10.2c1.7-1.5 4.3 0.1 3.8 2.3l-3.6 15.2c-0.2 1 0.2 2 1.1 2.5l13.4 8.2c1.9 1.2 1.2 4.2-1 4.3l-15.6 1.3c-1 0.1-1.9 0.8-2.1 1.8l-3.6 15.2C390.1 102.9 387.1 103.1 386.2 101z" fill="#F5812E"/><circle cx="895.9" cy="356.7" r="9.1" class="d"/><path d="M947.7 154c0-5 4-9.1 9-9.2 5 0 9.1 4 9.2 9 0 5-4 9.1-9 9.2C951.9 163.1 947.8 159.1 947.7 154z" class="d"/><path d="M1041.1 341.2l-15.1-2.9c-1-0.2-2 0.3-2.5 1.1l-7.5 13.5c-1.1 1.9-4 1.4-4.3-0.8l-1.9-15.3c-0.1-1-0.9-1.8-1.8-2l-15.1-2.9c-2.2-0.4-2.6-3.4-0.5-4.3l13.9-6.5c0.9-0.4 1.4-1.4 1.3-2.4l-1.9-15.3c-0.3-2.2 2.5-3.5 4-1.9l10.5 11.3c0.7 0.7 1.8 0.9 2.7 0.5l13.9-6.5c2-0.9 4.1 1.3 3 3.2l-7.5 13.5c-0.5 0.9-0.4 2 0.3 2.7l10.5 11.3C1044.8 339 1043.3 341.6 1041.1 341.2z" class="c"/><circle cx="155.8" cy="434.7" r="9.1" class="d"/><path d="M919.8 493.5l13-17.7c0.8-1.1 0.8-2.7 0-3.9L920 454.2c-1.9-2.6 0.7-6 3.7-5l20.8 6.9c1.4 0.4 2.8 0 3.7-1.2l13-17.7c1.9-2.6 5.9-1.2 5.9 2l-0.1 21.9c0 1.4 0.9 2.7 2.3 3.1l20.8 6.9c3 1 3 5.3 0 6.2l-20.9 6.7c-1.4 0.4-2.3 1.7-2.3 3.1l-0.1 21.9c0 3.2-4.1 4.5-6 1.9L948 493.1c-0.8-1.2-2.3-1.6-3.7-1.2l-20.9 6.7C920.4 499.6 917.9 496.1 919.8 493.5z" class="f"/></svg>
