<svg xmlns="http://www.w3.org/2000/svg" width="383" height="390" viewBox="0 0 383 389.7"><style>.a{fill:#E0DFD7;}.b{fill:#E0DFD7;stroke-width:3;stroke:#CCCCCB;}.c{fill:#424143;}.d{fill:#CECCC6;}.e{fill:#4D5055;}.f{fill:#FDD2B9;}</style><rect x="95.5" y="287" width="186" height="9.8" class="a"/><path d="M346.4 285.6H33.6c-9.7 0-17.6-8-17.6-18V19.5c0-9.9 7.9-18 17.6-18h312.8c9.7 0 17.6 8 17.6 18v248.2C364.1 277.6 356.2 285.6 346.4 285.6z" class="b"/><rect x="312.7" y="265.3" width="13.6" height="6.7" class="c"/><path d="M376.8 388.2H6.2c-2.6 0-4.7-2.1-4.7-4.7v-80.3c0-2.6 2.1-4.7 4.7-4.7h370.7c2.6 0 4.7 2.1 4.7 4.7v80.3C381.5 386.1 379.4 388.2 376.8 388.2z" class="b"/><path d="M335.1 361H196.8c-1.3 0-2.3-1-2.3-2.3v-52.1c0-1.3 1-2.3 2.3-2.3h138.3c1.2 0 2.3 1 2.3 2.3v52.1C337.4 360 336.3 361 335.1 361z" class="d"/><path d="M325.7 336.9H206.2c-0.5 0-0.8-0.4-0.8-0.8v-7c0-0.5 0.4-0.8 0.8-0.8h119.5c0.5 0 0.8 0.4 0.8 0.8v7C326.5 336.6 326.1 336.9 325.7 336.9z" class="c"/><path d="M286.4 319h-40.9c-0.3 0-0.5 0.2-0.5 0.6v9.9c0 0.3 0.2 0.6 0.5 0.6h40.9c0.3 0 0.5-0.2 0.5-0.6v-9.9C286.9 319.3 286.7 319 286.4 319z" class="c"/><path d="M323.5 352.4h-23.9c-1 0-1.8-0.8-1.8-1.9v-13.6h27.5v13.6C325.3 351.5 324.5 352.4 323.5 352.4z" class="a"/><path d="M318.4 348h-13.6c-0.6 0-1.1-0.5-1.1-1.1V343c0-0.6 0.5-1.1 1.1-1.1h13.6c0.6 0 1.1 0.5 1.1 1.1v3.9C319.4 347.5 319 348 318.4 348z" class="e"/><path d="M221.7 346.4h-10.1c-0.4 0-0.8-0.4-0.8-0.8v-2.9c0-0.4 0.4-0.8 0.8-0.8h10.1c0.4 0 0.8 0.4 0.8 0.8v2.9C222.5 346.1 222.1 346.4 221.7 346.4z" class="e"/><path d="M326.9 253.9H53.1c-4.6 0-8.3-3.8-8.3-8.4V36.9c0-4.7 3.7-8.4 8.3-8.4h273.8c4.6 0 8.3 3.8 8.3 8.4v208.6C335.2 250.1 331.5 253.9 326.9 253.9z" class="d"/><path d="M320.7 246.5H59.3c-4.3 0-7.8-3.6-7.8-8V42.3c0-4.4 3.5-8 7.8-8h261.4c4.3 0 7.8 3.6 7.8 8v196.3C328.6 243 325.1 246.5 320.7 246.5z" style="fill:#231F20;stroke-linejoin:round;stroke-width:4;stroke:#CCCCCB"/><path d="M171 111.1c0 3.3-2.5 6-5.5 6h-12.6v-16.5l-31.8-0.2v16.6H101 76.7c-3.1 0-5.5-2.7-5.5-6V74.9c0-3.3 2.5-6 5.5-6h88.7c3.1 0 5.5 2.7 5.5 6V111.1z" fill="#488FCC"/><path d="M307 145.9c0 3.3-2.5 6-5.5 6h-88.7c-3.1 0-5.5-2.7-5.5-6v-36.2c0-3.3 2.5-6 5.5-6h88.7c3.1 0 5.5 2.7 5.5 6V145.9z" fill="#8BC249"/><rect x="70.7" y="237.4" width="99.8" height="31.2" fill="#FFF"/><path d="M156.8 252.4c-2.3 0-4.1 1.8-4.1 3.9 0 2.2 1.8 3.9 4.1 3.9 2.3 0 4.1-1.8 4.1-3.9C161 254.2 159.1 252.4 156.8 252.4z" fill="#231F20"/><rect x="65.3" y="268.6" width="110.6" height="119.6" fill="#E81F64"/><text transform="matrix(0.8899 0 0 1 304.8545 237.8662)" style="font-family:'BloggerSans';font-size:200;letter-spacing:-20"/><path d="M159.4 166.6c-6 0-10.9 4.6-11.1 10.3 0 0.1 0 0.2 0 0.3v-62.6c0-5.9-5-10.7-11.1-10.7 -6.1 0-11.1 4.8-11.1 10.7v43.4H81.6c-6 0-11 4.8-11 10.8v68.5h77.7 22.2v-60.1C170.5 171.4 165.5 166.6 159.4 166.6z" class="f"/></svg>