<svg xmlns="http://www.w3.org/2000/svg" width="423" height="430" viewBox="0 0 423 430.4"><style>.a{fill:#CECCC6;}.b{fill:#E0DFD7;}.c{fill:#424143;}.d{fill:#4D5055;}.e{fill:#FDD2B9;}</style><path d="M382.7 315.6H37c-10.7 0-19.5-9-19.5-19.9V21.4c0-10.9 8.8-19.9 19.5-19.9h345.7c10.8 0 19.5 8.9 19.5 19.9v274.3C402.3 306.6 393.5 315.6 382.7 315.6z" style="fill:#E0DFD7;stroke-width:3;stroke:#CCC"/><path d="M361.2 280.5H58.6c-5.1 0-9.2-4.2-9.2-9.3V40.7c0-5.2 4.1-9.3 9.2-9.3h302.6c5.1 0 9.2 4.1 9.2 9.3v230.5C370.4 276.3 366.3 280.5 361.2 280.5z" class="a"/><rect x="105.4" y="316.3" width="205.6" height="13.3" class="b"/><rect x="345.4" y="293.1" width="15" height="7.4" class="c"/><path d="M416.4 428.9H6.6c-2.9 0-5.1-2.3-5.1-5.2v-88.8c0-2.9 2.3-5.3 5.1-5.3h409.7c2.9 0 5.1 2.4 5.1 5.3v88.8C421.5 426.6 419.2 428.9 416.4 428.9z" style="fill:#E0DFD7;stroke-width:3;stroke:#CCCCCB"/><path d="M370.2 398.9H217.4c-1.4 0-2.5-1.2-2.5-2.6v-57.6c0-1.4 1.1-2.6 2.5-2.6h152.8c1.4 0 2.5 1.2 2.5 2.6v57.6C372.7 397.7 371.6 398.9 370.2 398.9z" class="a"/><path d="M359.8 372.2H227.7c-0.4 0-0.8-0.4-0.8-0.9v-7.8c0-0.5 0.4-0.9 0.8-0.9h132.1c0.5 0 0.9 0.4 0.9 0.9v7.8C360.7 371.8 360.3 372.2 359.8 372.2z" class="c"/><path d="M316.3 352.5h-45.2c-0.3 0-0.5 0.2-0.5 0.5v11c0 0.4 0.2 0.6 0.5 0.6h45.2c0.4 0 0.7-0.2 0.7-0.6v-11C317 352.7 316.7 352.5 316.3 352.5z" class="c"/><path d="M357.4 389.4H331c-1.2 0-2-1-2-2.1v-15.1h30.4v15.1C359.4 388.4 358.6 389.4 357.4 389.4z" class="b"/><path d="M351.7 384.5h-15c-0.7 0-1.2-0.6-1.2-1.2V379c0-0.6 0.4-1.2 1.2-1.2h15c0.6 0 1.2 0.5 1.2 1.2v4.3C352.9 384 352.4 384.5 351.7 384.5z" class="d"/><path d="M244.9 382.8h-11.1c-0.5 0-0.9-0.4-0.9-0.9v-3.1c0-0.5 0.4-0.9 0.9-0.9h11.1c0.5 0 0.8 0.4 0.8 0.9v3.1C245.7 382.4 245.4 382.8 244.9 382.8z" class="d"/><path d="M354.4 272.4h-289c-4.7 0-8.7-3.9-8.7-8.8v-217c0-4.9 3.9-8.8 8.7-8.8h289c4.7 0 8.7 3.9 8.7 8.8v217C363 268.5 359.1 272.4 354.4 272.4z" style="fill:#231F20;opacity:0.8"/><path d="M199.8 112.6c0 3.7-2.8 6.7-6.1 6.7h-13.9v-18.2l-35.1-0.1v18.3h-22.2H95.6c-3.4 0-6.1-3-6.1-6.7v-40c0-3.7 2.7-6.7 6.1-6.7h98.1c3.4 0 6.1 3 6.1 6.7V112.6z" fill="#56C9EA"/><path d="M335.3 205.7c0 3.7-2.7 6.7-6.1 6.7h-98.1c-3.4 0-6.1-3-6.1-6.7v-40c0-3.7 2.7-6.7 6.1-6.7h98.1c3.4 0 6.1 3 6.1 6.7V205.7z" fill="#3CB44B"/><text transform="matrix(0.8899 0 0 1 336.7852 262.7725)" style="font-family:'BloggerSans';font-size:200;letter-spacing:-30"/><path d="M354.4 272.4h-244l186-234.6h57.9c4.7 0 8.7 3.9 8.7 8.8v217C363 268.5 359.1 272.4 354.4 272.4z" opacity="0.1"/><path d="M239.1 211.3c0-7.4-6-13.4-13.4-13.4 -2.1 0-4 0.4-5.7 1.3 -1.1-6.2-6.6-11.1-13.1-11.1 -2.1 0-4.1 0.5-5.8 1.3 -0.3-0.1-0.6-0.2-0.8-0.3 -0.4-7.1-6.2-12.8-13.4-12.8 -4.6 0-8.7 2.4-11.2 6 -0.1 0-0.3 0-0.5 0v-63.2c0-7.4-5.7-13.4-12.7-13.4 -7 0-12.7 6-12.7 13.4v84.2c-0.3 0.9-0.5 1.8-0.8 2.7 -3.1 3.9-14.3 18.8-13.4 25.1 1.1 6.9 21.3 50.3 24.5 57 0.6 11.4 1 20.5 1 20.5h12.8c5.4 4.6 12 7.1 20.9 7.1 7.9 0 13.7-2.6 18.7-7.1H229l0.7-22c6.7-11.1 9.3-18.7 9.3-35.5V211.3z" fill="#FDD1AA"/><rect x="149.4" y="319.6" width="91" height="109.6" fill="#E81F64"/><path d="M242.1 327.6c0 1.1-0.9 2-2 2h-90.3c-1.1 0-2-0.9-2-2v-31.8c0-1.1 0.9-2 2-2h90.3c1.1 0 2 0.9 2 2V327.6z" fill="#FFF"/></svg>
