<?xml version="1.0" encoding="utf-8"?>
<!-- Generator: Adobe Illustrator 16.0.0, SVG Export Plug-In . SVG Version: 6.00 Build 0)  -->
<!DOCTYPE svg PUBLIC "-//W3C//DTD SVG 1.1//EN" "http://www.w3.org/Graphics/SVG/1.1/DTD/svg11.dtd">
<svg version="1.1" id="Layer_1" xmlns="http://www.w3.org/2000/svg" xmlns:xlink="http://www.w3.org/1999/xlink" x="0px" y="0px"
	 width="812px" height="383px" viewBox="0 0 812 383" style="enable-background:new 0 0 812 383;" xml:space="preserve">
<g>
	<rect x="587.46" y="35.07" style="fill:#FFFFFF;" width="133.2" height="20.93"/>
	<g>
		<path style="fill:#404C59;" d="M718.75,60.72c2.13,0,4.05-1.37,4.7-3.41c2.51-7.84,2.51-15.69,0-23.53
			c-0.65-2.04-2.56-3.41-4.7-3.41H575.3v5.65h4.47h138.47c0.08,0.24,0.13,0.47,0.19,0.71c0.13,0.44,0.24,0.88,0.35,1.31
			c0.12,0.47,0.2,0.95,0.3,1.42c0.09,0.43,0.18,0.87,0.25,1.31c0.08,0.47,0.12,0.95,0.16,1.42c0.05,0.43,0.1,0.87,0.13,1.31
			c0.03,0.47,0.05,0.94,0.06,1.41c0.01,0.43,0.01,0.87,0,1.31c-0.01,0.47-0.03,0.94-0.06,1.42c-0.03,0.44-0.08,0.87-0.13,1.31
			c-0.05,0.47-0.09,0.94-0.16,1.41c-0.07,0.44-0.16,0.88-0.25,1.31c-0.1,0.47-0.18,0.94-0.3,1.42c-0.11,0.43-0.23,0.87-0.35,1.31
			c-0.06,0.23-0.11,0.47-0.19,0.71H579.77h-4.47v5.65h133.5h9.96V60.72z"/>
	</g>
	<rect x="563.33" y="65.44" style="fill:#FFFFFF;" width="133.2" height="20.93"/>
	<path style="fill:#BBB269;" d="M708.8,85.43h-4.47H565.86c-0.08-0.24-0.13-0.47-0.19-0.71c-0.12-0.43-0.24-0.88-0.35-1.31
		c-0.12-0.47-0.2-0.94-0.3-1.42c-0.09-0.44-0.18-0.87-0.25-1.31c-0.08-0.47-0.12-0.95-0.16-1.41c-0.05-0.44-0.09-0.87-0.13-1.31
		c-0.03-0.47-0.05-0.94-0.06-1.42c-0.01-0.43-0.01-0.87,0-1.31c0.01-0.47,0.02-0.94,0.06-1.42c0.03-0.43,0.08-0.87,0.13-1.31
		c0.05-0.47,0.1-0.94,0.16-1.42c0.07-0.44,0.16-0.87,0.25-1.31c0.09-0.47,0.18-0.94,0.3-1.41c0.11-0.44,0.23-0.88,0.35-1.31
		c0.07-0.23,0.12-0.47,0.19-0.71h138.47h4.47V60.7H575.3h-9.96c-2.13,0-4.05,1.37-4.7,3.41c-2.5,7.84-2.5,15.69,0,23.53
		c0.65,2.04,2.57,3.41,4.7,3.41H708.8V85.43L708.8,85.43z"/>
	<rect x="563.33" y="4.71" style="fill:#FFFFFF;" width="133.2" height="20.93"/>
	<g>
		<path style="fill:#CB1F3D;" d="M565.34,30.36h135.77v-5.65h-4.47H565.86c-0.08-0.23-0.13-0.47-0.19-0.71
			c-0.12-0.43-0.24-0.87-0.35-1.31c-0.12-0.47-0.2-0.94-0.3-1.42c-0.09-0.43-0.18-0.87-0.25-1.31c-0.08-0.47-0.12-0.94-0.16-1.41
			c-0.05-0.44-0.09-0.87-0.13-1.31c-0.03-0.47-0.05-0.94-0.06-1.42c-0.01-0.43-0.01-0.87,0-1.31c0.01-0.47,0.02-0.94,0.06-1.41
			c0.03-0.44,0.08-0.88,0.13-1.31c0.05-0.47,0.1-0.94,0.16-1.42c0.07-0.43,0.16-0.87,0.25-1.31c0.09-0.47,0.18-0.94,0.3-1.41
			c0.11-0.44,0.23-0.87,0.35-1.31c0.07-0.23,0.12-0.47,0.19-0.7h130.78h4.47V0H565.34c-2.13,0-4.05,1.37-4.7,3.41
			c-2.5,7.84-2.5,15.69,0,23.53C561.29,28.98,563.21,30.36,565.34,30.36z"/>
	</g>
</g>
<defs>
	<filter id="Adobe_OpacityMaskFilter" filterUnits="userSpaceOnUse" x="0" y="89.49" width="812" height="293.51">
		<feFlood  style="flood-color:white;flood-opacity:1" result="back"/>
		<feBlend  in="SourceGraphic" in2="back" mode="normal"/>
	</filter>
</defs>
<mask maskUnits="userSpaceOnUse" x="0" y="89.49" width="812" height="293.51" id="SVGID_1_">
	<g style="filter:url(#Adobe_OpacityMaskFilter);">
	</g>
</mask>
<g style="mask:url(#SVGID_1_);">
	<path style="fill:#49BFD7;stroke:#F2F2F2;stroke-width:12;stroke-miterlimit:10;" d="M51.35,95.49h709.31
		c25.04,0,45.34,19.05,45.34,42.56v139.17c0,23.51-20.3,42.56-45.34,42.56H510.33c-5.1,39.56-23.93,57.22-67.45,57.22h-7.07v-57.22
		H51.34C26.3,319.78,6,300.73,6,277.22V138.05C6,114.54,26.3,95.49,51.35,95.49z"/>
	<g>
		<path style="fill:#F2F2F2;" d="M250.44,129.78v105.93c0,34.63-18.04,49.25-43.16,49.25c-25.11,0-43.16-14.63-43.16-49.25V131.97
			l28.77,0.49v88.61c0,30.72,1.71,41.21,14.39,41.21c12.68,0,14.39-10.49,14.39-41.21v-91.05L250.44,129.78z"/>
		<path style="fill:#F2F2F2;" d="M304.69,130.26l-0.73,150.55l-28.04,0.73l-0.73-151.77L304.69,130.26z"/>
		<path style="fill:#F2F2F2;" d="M417.17,258.62l-0.49,22.68l-88.27-1.22l0.49-18.16l56.81-104.46l-57.55-3.54l-0.73-22.19l89-1.95
			l0.25,22.68L359.14,257.9L417.17,258.62z"/>
		<path style="fill:#4E6875;" d="M468.18,129.9c48.97-1.95,65.79,18.62,67.69,72.96c1.9,54.34-13.24,75.05-61.97,76.99l-28.02,0.98
			l-5.97-149.94L468.18,129.9z M473.05,255.24c31.43-1.34,34.15-14.3,32.86-51.33c-1.29-37.04-5.43-50.74-36.86-49.4L473.05,255.24z
			"/>
		<path style="fill:#5EA646;" d="M592.81,131.29l-5.99,150.43l-28.05-0.25l4.56-151.7L592.81,131.29z"/>
		<path style="fill:#C92727;" d="M710.74,281.48l-2.92,0.1l-23.4,0.57c-0.27-0.72-22.12-46.49-41.09-93.64l3.03,93.75l-26.83,0.21
			l-3.97-148.55l26.34-0.43l40.61,93.91l-2.65-96.94l26.33-0.67L710.74,281.48z"/>
		<path style="fill:#CB972E;" d="M770.14,131.81l-8.61,150.3l-28.04-0.74l7.21-151.6L770.14,131.81z"/>
		<path style="fill:#F2F2F2;" d="M125.06,265.97l18.32,18.09l-18.58,14l-19.09-20.25c-4.58,1.29-9.42,1.94-14.76,1.94
			c-35.88,0-52.42-29.94-52.42-77.99c0-48.04,16.54-77.99,52.42-77.99c35.88,0,52.42,29.95,52.42,77.99
			C143.38,230.42,137.53,252.83,125.06,265.97z M91.47,258.43c16.29,0,21.12-26.93,21.12-57.95c0-31.02-5.09-57.95-21.12-57.95
			c-16.03,0-21.12,26.93-21.12,57.95C70.35,231.5,75.18,258.43,91.47,258.43z"/>
	</g>
</g>
</svg>