<svg class="scale" enable-background="new 0 0 417.1 157.1" version="1.1" viewBox="0 0 417.1 157.1" xml:space="preserve" xmlns="http://www.w3.org/2000/svg">
	<g fill="none" stroke="#F1F2F2" stroke-miterlimit="10" stroke-width="28">
		<path d="m50.3 110c-14.9-2.9-22.3-14.6-22.3-29v-22.2c0-15.9 8.2-29.3 29.1-29.3s29.1 13.5 29.1 29.4v22.2c0 13.7-6.8 25.2-20.5 28.4 0.9 4 2.5 5.7 4.9 5.7h3.2c4.6 0 7.7 2.6 7.7 6.8 0 6.6-5.4 6.8-12.4 6.8-10.2 0.1-16.8-7.4-18.8-18.8zm-6.6-51.1v22.2c0 9 4.2 15.2 13.4 15.2s13.4-6.3 13.4-15.2v-22.2c0-9.1-3.6-15.1-13.4-15.1s-13.4 6-13.4 15.1z"/>
		<path d="m115.9 110.3c-13.6 0-20.8-8.9-20.8-22v-29.2c0-3.8 2.8-6.7 7.7-6.7s7.7 2.9 7.7 6.7v29.2c0 5.7 2.3 9 7.3 9 2.4 0 5.2-0.8 8.6-2.3-0.1-0.8-0.2-1.5-0.2-2.1v-33.7c0-3.8 2.6-6.7 7.7-6.7 5.2 0 7.7 2.9 7.7 6.7v36c0 1.7 0.7 2.5 2.1 3.9 1.1 1.1 1.6 2.2 1.6 3.8 0 4.5-3.8 6.8-7.2 6.8-2.9 0-5.2-1.8-6.8-4.3-5.2 3.7-10.3 4.9-15.4 4.9z"/>
		<path d="m162.1 45.3c-4.9 0-8.7-3.6-8.7-7.8 0-4.4 3.8-7.8 8.7-7.8s8.7 3.6 8.7 7.8c0.1 4.3-3.7 7.8-8.7 7.8zm7.7 58.1c0 3.9-3.4 6.9-7.7 6.9-4.4 0-7.7-3-7.7-6.9v-44.1c0-3.7 3.4-6.8 7.7-6.8 4.4 0 7.7 3.1 7.7 6.8v44.1z"/>
		<path d="m220.8 64.6l-24.2 31.8h18.5c4.3 0 7.5 2.9 7.5 6.6s-3.3 6.6-7.5 6.6h-31c-4.1 0-7.8-3.1-7.8-7.2 0-1.3 0.2-2.7 1.3-4.1l24.3-32h-17.1c-4.1 0-7.4-2.9-7.4-6.6 0-3.8 3.3-6.6 7.4-6.6h29.7c4.3 0 7.9 2.6 7.9 6.9 0 1.5-0.5 3.1-1.6 4.6z"/>
		<path d="m256.7 54.8v-19.2c0-3.8 2.8-6.8 7.7-6.8s7.7 3.1 7.7 6.8v59.6c0 1.7 0.7 2.5 2.1 3.9 1.1 1.1 1.6 2.2 1.6 3.8 0 4.5-3.8 6.8-7.3 6.8-2.8 0-5-1.8-6.7-4.3-5.5 3-10.1 4.9-15.8 4.9-13 0-20.5-8.9-20.5-22v-12.7c0-13.3 5.3-23.2 21.3-23.2 3.5 0.2 5.8 0.7 9.9 2.4zm-0.1 12.1c-3.5-1-6.3-1.5-8.2-1.5-5.5 0-7.5 3.5-7.5 10.4v12.7c0 5.8 2.5 9 7.3 9 2.4 0 5.2-0.8 8.6-2.3-0.1-0.8-0.2-1.5-0.2-2.1v-26.2z"/>
		<path d="m293.4 45.4c-4.9 0-8.7-3.6-8.7-7.8 0-4.4 3.8-7.8 8.7-7.8s8.7 3.6 8.7 7.8c0 4.3-3.8 7.8-8.7 7.8zm7.7 58.1c0 3.9-3.4 6.9-7.7 6.9-4.4 0-7.7-3-7.7-6.9v-44.1c0-3.7 3.4-6.8 7.7-6.8 4.4 0 7.7 3.1 7.7 6.8v44.1z"/>
		<path d="m329.1 103.5c0 3.8-2.6 6.8-7.7 6.8-5.2 0-7.7-3-7.7-6.8v-33.9c0-3.7-0.4-4-0.9-4.7-1.6-2.1-1.9-2.9-1.9-4.4 0-3.7 3.3-6.5 7.5-6.5 2.4 0 4.4 1.2 5.9 3.3 5-3.4 10.3-4.8 14.8-4.8 14.1 0 21.2 8.7 21.2 21.9v29.2c0 3.8-2.8 6.8-7.7 6.8s-7.7-3-7.7-6.8v-29.2c0-5.6-2.8-9.1-7.3-9.1-2.4 0-5.2 0.8-8.6 2.3 0.1 0.8 0.2 1.5 0.2 2.1l-0.1 33.8z"/>
		<path d="m380.3 45.4c-4.9 0-8.7-3.6-8.7-7.8 0-4.4 3.8-7.8 8.7-7.8s8.7 3.6 8.7 7.8c0 4.4-3.8 7.8-8.7 7.8zm7.7 58.2c0 3.9-3.4 6.9-7.7 6.9s-7.7-3-7.7-6.9v-44.1c0-3.7 3.4-6.8 7.7-6.8 4.4 0 7.7 3.1 7.7 6.8v44.1z"/>
	</g>
	<g fill="#414042">
		<path d="m50.3 110c-14.9-2.9-22.3-14.6-22.3-29v-22.2c0-15.9 8.2-29.3 29.1-29.3s29.1 13.5 29.1 29.4v22.2c0 13.7-6.8 25.2-20.5 28.4 0.9 4 2.5 5.7 4.9 5.7h3.2c4.6 0 7.7 2.6 7.7 6.8 0 6.6-5.4 6.8-12.4 6.8-10.2 0.1-16.8-7.4-18.8-18.8zm-6.6-51.1v22.2c0 9 4.2 15.2 13.4 15.2s13.4-6.3 13.4-15.2v-22.2c0-9.1-3.6-15.1-13.4-15.1s-13.4 6-13.4 15.1z"/>
		<path d="m115.9 110.3c-13.6 0-20.8-8.9-20.8-22v-29.2c0-3.8 2.8-6.7 7.7-6.7s7.7 2.9 7.7 6.7v29.2c0 5.7 2.3 9 7.3 9 2.4 0 5.2-0.8 8.6-2.3-0.1-0.8-0.2-1.5-0.2-2.1v-33.7c0-3.8 2.6-6.7 7.7-6.7 5.2 0 7.7 2.9 7.7 6.7v36c0 1.7 0.7 2.5 2.1 3.9 1.1 1.1 1.6 2.2 1.6 3.8 0 4.5-3.8 6.8-7.2 6.8-2.9 0-5.2-1.8-6.8-4.3-5.2 3.7-10.3 4.9-15.4 4.9z"/>
		<path d="m162.1 45.3c-4.9 0-8.7-3.6-8.7-7.8 0-4.4 3.8-7.8 8.7-7.8s8.7 3.6 8.7 7.8c0.1 4.3-3.7 7.8-8.7 7.8zm7.7 58.1c0 3.9-3.4 6.9-7.7 6.9-4.4 0-7.7-3-7.7-6.9v-44.1c0-3.7 3.4-6.8 7.7-6.8 4.4 0 7.7 3.1 7.7 6.8v44.1z"/>
		<path d="m220.8 64.6l-24.2 31.8h18.5c4.3 0 7.5 2.9 7.5 6.6s-3.3 6.6-7.5 6.6h-31c-4.1 0-7.8-3.1-7.8-7.2 0-1.3 0.2-2.7 1.3-4.1l24.3-32h-17.1c-4.1 0-7.4-2.9-7.4-6.6 0-3.8 3.3-6.6 7.4-6.6h29.7c4.3 0 7.9 2.6 7.9 6.9 0 1.5-0.5 3.1-1.6 4.6z"/>
		<path d="m256.7 54.8v-19.2c0-3.8 2.8-6.8 7.7-6.8s7.7 3.1 7.7 6.8v59.6c0 1.7 0.7 2.5 2.1 3.9 1.1 1.1 1.6 2.2 1.6 3.8 0 4.5-3.8 6.8-7.3 6.8-2.8 0-5-1.8-6.7-4.3-5.5 3-10.1 4.9-15.8 4.9-13 0-20.5-8.9-20.5-22v-12.7c0-13.3 5.3-23.2 21.3-23.2 3.5 0.2 5.8 0.7 9.9 2.4zm-0.1 12.1c-3.5-1-6.3-1.5-8.2-1.5-5.5 0-7.5 3.5-7.5 10.4v12.7c0 5.8 2.5 9 7.3 9 2.4 0 5.2-0.8 8.6-2.3-0.1-0.8-0.2-1.5-0.2-2.1v-26.2z"/>
		<path d="m293.4 45.4c-4.9 0-8.7-3.6-8.7-7.8 0-4.4 3.8-7.8 8.7-7.8s8.7 3.6 8.7 7.8c0 4.3-3.8 7.8-8.7 7.8zm7.7 58.1c0 3.9-3.4 6.9-7.7 6.9-4.4 0-7.7-3-7.7-6.9v-44.1c0-3.7 3.4-6.8 7.7-6.8 4.4 0 7.7 3.1 7.7 6.8v44.1z"/>
		<path d="m329.1 103.5c0 3.8-2.6 6.8-7.7 6.8-5.2 0-7.7-3-7.7-6.8v-33.9c0-3.7-0.4-4-0.9-4.7-1.6-2.1-1.9-2.9-1.9-4.4 0-3.7 3.3-6.5 7.5-6.5 2.4 0 4.4 1.2 5.9 3.3 5-3.4 10.3-4.8 14.8-4.8 14.1 0 21.2 8.7 21.2 21.9v29.2c0 3.8-2.8 6.8-7.7 6.8s-7.7-3-7.7-6.8v-29.2c0-5.6-2.8-9.1-7.3-9.1-2.4 0-5.2 0.8-8.6 2.3 0.1 0.8 0.2 1.5 0.2 2.1l-0.1 33.8z"/>
		<path d="m380.3 45.4c-4.9 0-8.7-3.6-8.7-7.8 0-4.4 3.8-7.8 8.7-7.8s8.7 3.6 8.7 7.8c0 4.4-3.8 7.8-8.7 7.8zm7.7 58.2c0 3.9-3.4 6.9-7.7 6.9s-7.7-3-7.7-6.9v-44.1c0-3.7 3.4-6.8 7.7-6.8 4.4 0 7.7 3.1 7.7 6.8v44.1z"/>
	</g>
</svg>