<svg xmlns="http://www.w3.org/2000/svg" width="453" height="286" viewBox="0 0 453.3 286"><style>.a{fill:#F1F1F2;}</style><rect width="453.3" height="286" fill="none"/><path d="M88.9 209.3c-0.5 2-1.5 4.6-2.9 7.8 1.2 1.4 2.4 2.7 2.4 3.8 0 2.4-1.5 3.5-3.5 4.9 -1.4 0.9-3.6 2.3-5.5 2.3 -1 0-3.7-2.7-4.7-4.1 -2 2.4-8.7 4.2-14 3.8 -8.4-0.6-13.1-2.9-18-7.7 -8.6-8.2-7.7-19.8-7.7-32.4 0-11.9-0.6-27.5 2.8-39.8 2.4-7.2 12.7-12.3 25.7-12.3 11.9 0 18 0.6 23.8 14.3 2.9 9.2 3.7 19.7 3.7 30 0 5.2 0 8.2-0.4 13.3 -0.4 4.2-0.1 8.6-1.2 12.7C89.4 207 89.3 208.1 88.9 209.3zM73.9 203.8c0.4-1.7 0.6-6.4 1-8.1 0.4-3.7 0.1-11 0.1-14.8 0-6-0.3-9.6-0.9-15.7 -0.5-6.1-2.9-10.4-11-10.4 -9.7 0-10.9 1.2-11.5 9.9 -0.6 7.2-0.9 11.4-0.9 18.6 0 4.7-0.6 16.9 1 22 1.9 5.1 6.4 7.2 11.5 7.2 0.9 0 1.4 0 2.3-0.1 -1-1-1.9-2-2.8-2.9 -1.4-1.7-2.7-3.6-2.7-5.1 0-2.4 2.3-2.7 4.2-4.1 1.4-0.9 2.6-2.7 4.5-2.7C71 197.4 71.7 201.6 73.9 203.8z" class="a"/><path d="M130.5 222.1c-7 5.1-18.7 6.4-25.7 0.4 -5.4-4.9-1.7-41.5-2.7-59.1 6-0.9 10-0.5 16-0.5 0.6 7.8-0.1 20.5 0.5 29.7 0.4 4.2 0.5 10.4 3.2 12.4 0.1 0.1 0.4 0.1 0.5 0.3 2.8 1.4 11.5 2.3 12.2-6.9 0.6-11.6-1.5-23.2 0.1-34.3v-0.5c5.9-1.7 7.7-0.1 15.9-0.8 0 21 0.8 41.6 0.1 64.1 -4.1-0.4-4.9-0.4-9 0 -1.4 0-7.7 1.3-7.7 0.1 -0.4-2.9-0.1-4.4-0.3-6.8C132.8 220.7 131.4 221.4 130.5 222.1z" class="a"/><path d="M179.1 162.7v0.4c-0.1 20.6-1.3 42.6-0.1 63.2 -1.7 1.9-15.7 0.1-18 0.8 1.7-21.6-1.3-44.5 0.8-64.6v-0.1c0.6-0.1 2.7 0.1 3.6 0.1 2.2 0.1 6.1 0.4 11.6 0.3H179.1zM178.6 135.2c0 2.2 0.4 11.3 0.4 16.4 -1.5 2.3-10.6 0.5-17.3 0.9 0-5-0.6-9.9-0.5-17.7L178.6 135.2z" class="a"/><path d="M241.2 180.6c-8.7 9.3-19.7 18.8-28.4 28.5 8.6-0.6 18.6 0.6 27.8-0.8 0 5.5 0.3 11.8 0.3 17.8 -15.7 0.4-35.8 0.8-52.1 0.8 0.4-9.9-0.6-11.3-0.3-16.4 8.2-10.6 20.7-19.7 29.3-30 -9 0.4-21.1 1-28.5 2 -0.6-9.3 0.4-11.6 0-19.2 13.8 0 26.4-0.1 35.6-0.1 2.7 0.6 15-0.5 16.4 0.1C241.2 170 240.6 175 241.2 180.6z" class="a"/><path d="M283.6 137.1c0-0.4 10.5-1.2 16.1-0.1v8.4c0 28.5 1.4 57 0.8 81.5 -5.2 0-12.2 0.5-17.3-0.1 -0.1-0.1-0.1-0.5-0.1-0.9 0-1.7-0.1-2.3-0.1-4.2 -0.4-0.9-0.8-1.5-1.3-0.5 -2.6 5.1-7.2 6.1-11.9 5.5 -19.3-1.4-21.1-18.9-21.5-36.1 0-11.9 2.8-23.3 10.4-26 9.2-3.5 23.9-1.4 24.6 1.7 -0.5-24.1-0.1-17.7 0.4-27.8V137.1zM262.8 194.2c0 8.6 4.4 16.8 11.6 16.8 8.7 0 9.2-7.8 9.2-18.6 0-13.2-0.5-14.7-7.8-14.7 -7 0-11.3 3.1-12.2 9.1C262.8 189.2 262.8 191.7 262.8 194.2z" class="a"/><path d="M329.1 162.7v0.4c-0.1 20.6-1.3 42.6-0.1 63.2 -1.7 1.9-15.7 0.1-18 0.8 1.7-21.6-1.3-44.5 0.8-64.6v-0.1c0.6-0.1 2.7 0.1 3.6 0.1 2.2 0.1 6.1 0.4 11.6 0.3H329.1zM328.6 135.2c0 2.2 0.4 11.3 0.4 16.4 -1.5 2.3-10.6 0.5-17.3 0.9 0-5-0.6-9.9-0.5-17.7L328.6 135.2z" class="a"/><path d="M359 168.1c7-5.1 18.7-6.4 25.7-0.4 5.4 4.9 1.7 41.5 2.7 59.1 -6 0.9-10 0.5-16 0.5 -0.6-7.8 0.1-20.5-0.5-29.7 -0.4-4.2-0.5-10.4-3.2-12.4 -0.1-0.1-0.4-0.1-0.5-0.3 -2.8-1.4-11.5-2.3-12.2 6.9 -0.6 11.8 1.3 23-0.1 34.3v0.5c-5.9 1.7-7.7 0.1-15.9 0.8 0-21-0.8-41.6-0.1-64.1 4.1 0.4 4.9 0.4 9 0 1.4 0 7.7-1.3 7.7-0.1 0.4 2.9 0.1 4.4 0.3 6.8C356.7 169.5 358.1 168.7 359 168.1z" class="a"/><path d="M417.2 162.7v0.4c-0.1 20.6-1.3 42.6-0.1 63.2 -1.7 1.9-15.7 0.1-18 0.8 1.7-21.6-1.3-44.5 0.8-64.6v-0.1c0.6-0.1 2.7 0.1 3.6 0.1 2.2 0.1 6.1 0.4 11.6 0.3H417.2zM416.7 135.2c0 2.2 0.4 11.3 0.4 16.4 -1.5 2.3-10.6 0.5-17.3 0.9 0-5-0.6-9.9-0.5-17.7L416.7 135.2z" class="a"/><path d="M189.6 86.5c13.9 0 27.4-1.4 40.4 0.6 6.5 1 12.1 8.1 20.2 13.9 3.4-5.1 7.4-11.2 11.4-17.3 7.1 7.3 11.8 12 17.5 17.9 -8.7 8.5-17.7 17.8-27.4 26.4 -1.9 1.6-6.4 0.2-10.9 0.2 0 7 0 14.7 0 23.3 -17.6 0-34 0-51.1 0C189.6 129.9 189.6 108.8 189.6 86.5z" class="a"/><path d="M213.8 39.9c10.4-0.2 19.3 8.6 19.5 19.2 0.2 11.1-7.6 19.5-18.6 19.8 -11.4 0.3-22.3-8.8-22.6-18.8C191.9 50.4 202.9 40.1 213.8 39.9z" class="a"/><path d="M339.3 125c-22.8 3.5-59.1 1.7-64.4-4.3 19.8 0 38.5 0 58.2 0 0-33.7 0-66.2 0-99.3 -51.1 0-130.4 0-182.2 0 0 32.5 0 64.7 0 97.5 3.1 0.7 26.9 1.5 30.1 2.2 0.1 1.2 0.2 2.3 0.3 3.5 -4.9 0.7-30.3 1.3-36.3 2.1 0-37.6 0-74 0-111.4 54.9 0 138.2 0 194.3 0C339.3 51.5 339.3 87.9 339.3 125z" class="a"/><path d="M307.2 46c-19.9 0-37.7 0-56.2 0C256.1 39.1 298.4 38.5 307.2 46z" class="a"/><path d="M318.2 59c-17.8 0-35.6 0-53.7 0C268.3 52.4 309.8 51.3 318.2 59z" class="a"/><path d="M256.3 71.7c8.1-6.4 35.8-6.5 44.2 0C285.3 71.7 271.8 71.7 256.3 71.7z" class="a"/><path d="M124.2 240.9c6.4 0 8.5 4.1 8.5 11.2 0 7.1-2.1 11.2-8.5 11.2h-3.7l-0.1-22.4H124.2zM124.3 260.1c4.1 0 4.5-3.1 4.5-8 0-4.9-0.5-8-4.6-8L124.3 260.1z" class="a"/><path d="M152.7 263.4l-3.8-0.1c0-4.9-2.1-7.9-4.7-7.9v7.9l-3.7 0.1 -0.1-22.5h3.8c6.4 0 8.5 3.3 8.5 7.4 0 2.6-0.8 4.9-3.4 6.1C151.8 256.8 152.7 260.6 152.7 263.4zM144.2 243.9v8.5c2.6 0 4.7-1 4.7-4.2C148.9 244.5 146.7 243.9 144.2 243.9z" class="a"/><path d="M167.6 259.5l-4.7-0.2 -0.7 3.6 -3.8-0.3 5-22.1h3.7l5 22.9 -3.8 0.2L167.6 259.5zM167 256.6l-1.7-9.2 -1.8 9.2L167 256.6z" class="a"/><path d="M190.9 252.4c0 4.6-1.1 11.3-6.6 11.3 -4.5 0-6.6-4.4-6.6-11.6 0-7.1 2.1-11.6 6.6-11.6 3.8 0 5.5 3.1 6.1 8.3l-3.9-0.1c-0.3-3-0.7-5.2-2.2-5.2 -2 0-2.7 4-2.7 8.6 0 4.6 0.6 8.6 2.7 8.6 1.5 0 2.2-2.2 2.5-5.2l-3.2 0.1 -0.2-3L190.9 252.4z" class="a"/><path d="M223.9 257h-1.5c0 3.6-2.1 6.4-5.5 6.6 -0.2 0-0.4 0-0.5 0h-0.1 -0.1c-0.4 0-0.7 0-1.1-0.1 -3-0.5-5-2.8-5-6.1 0-2.3 1-4.9 3.4-6.2 -2-1.7-3-2.9-3-5.2 0-3.4 2.2-5.4 5.6-5.4h0.1 0.1c3.4 0 5.6 2 5.6 5.4l-3.8-0.1c0-1.3-0.5-2.3-2-2.4 -1.5 0-2 1.2-2 2.4 0 1.9 0.4 3.8 4.2 3.8l0.1 3c-3.8 0-4.6 1.6-4.6 4.7 0 2.1 1 3.2 2.4 3.3 1.4-0.1 2.3-1.6 2.4-3.7l-1.9 0 0.1-2.9 7.1 0L223.9 257z" class="a"/><path d="M253.6 260.2l-0.1 3.3 -9.7-0.2 0.4-22.4 3.8 0.1 -0.4 19.4L253.6 260.2z" class="a"/><path d="M270 260.3l-0.1 3.1 -9.3-0.1 -0.2-22.4 9.5-0.2 -0.1 3.1 -5.6 0 0 8.5 5.2-0.1 0 3.2 -5.3-0.1 0 4.9H270z" class="a"/><path d="M285.5 259.5l-4.7-0.2 -0.7 3.6 -3.8-0.3 5-22.1h3.7l5 22.9 -3.8 0.2L285.5 259.5zM284.9 256.6l-1.7-9.2 -1.8 9.2L284.9 256.6z" class="a"/><path d="M308.8 263.4l-3.8-0.1c0-4.9-2.1-7.9-4.7-7.9v7.9l-3.7 0.1 -0.1-22.5h3.8c6.4 0 8.5 3.3 8.5 7.4 0 2.6-0.8 4.9-3.4 6.1C307.9 256.8 308.8 260.6 308.8 263.4zM300.3 243.9v8.5c2.6 0 4.7-1 4.7-4.2C305 244.5 302.9 243.9 300.3 243.9z" class="a"/><path d="M328 263.3h-0.4l-3.1 0c0-0.1-2.7-7.6-5-13.9l0 13.7 -3.5-0.1 0.2-22.2 3.5 0.1 4.9 13.8 0.1-14 3.5 0L328 263.3z" class="a"/></svg>
