<svg xmlns="http://www.w3.org/2000/svg" width="450" height="313" viewBox="0 0 450 313.1"><style>.a{fill:#066;stroke-width:7;stroke:#F4F4F0;}.b{fill:#F4F4F0;}</style><path d="M145.2 33.1c0 0 0 66.2 0 99.3 51 0 130 0 181.8 0 0.1 0 0.1 0 0.1 0s0-66.2 0-99.3c-51 0-130 0-181.8 0C145.2 33.1 145.2 33.1 145.2 33.1z" class="a"/><path d="M328 27.1c-1.7 0-3.5 0-5.3 0 -55.6 0-132.1 0-183.6 0v1.8 109.6h5.3c1.8 0 3.5 0 5.3 0 55.6 0 132.1 0 183.6 0v-1.7V27.1H328z" class="a"/><path d="M87.8 228.2c-0.5 2.1-1.5 4.6-2.9 7.8 1.2 1.4 2.4 2.7 2.4 3.8 0 2.4-1.5 3.5-3.5 4.9 -1.4 0.9-3.6 2.3-5.5 2.3 -1 0-3.7-2.7-4.7-4.1 -2 2.4-8.7 4.2-13.9 3.8 -8.4-0.6-13.1-2.9-18-7.7 -8.6-8.2-7.7-19.8-7.7-32.4 0-11.9-0.6-27.5 2.8-39.8 2.4-7.2 12.7-12.3 25.7-12.3 11.9 0 18.1 0.6 23.8 14.3 2.9 9.2 3.7 19.7 3.7 30 0 5.3 0 8.2-0.4 13.3 -0.4 4.2-0.1 8.6-1.1 12.7C88.3 225.9 88.2 227 87.8 228.2zM72.8 222.7c0.4-1.7 0.6-6.4 1-8.1 0.4-3.7 0.1-11 0.1-14.8 0-6-0.3-9.6-0.9-15.7 -0.5-6.1-2.9-10.4-11-10.4 -9.7 0-10.9 1.2-11.5 9.9 -0.6 7.2-0.9 11.4-0.9 18.6 0 4.7-0.6 16.9 1 22 1.9 5.1 6.4 7.2 11.5 7.2 0.9 0 1.4 0 2.3-0.1 -1-1-1.9-2-2.8-2.9 -1.4-1.7-2.7-3.6-2.7-5.1 0-2.4 2.3-2.7 4.2-4.1 1.4-0.9 2.6-2.7 4.5-2.7C69.9 216.3 70.7 220.5 72.8 222.7z" class="b"/><path d="M129.4 241c-7 5.1-18.7 6.4-25.7 0.4 -5.4-4.9-1.7-41.5-2.7-59.1 6-0.9 10-0.5 16-0.5 0.6 7.8-0.1 20.5 0.5 29.7 0.4 4.2 0.5 10.4 3.2 12.4 0.1 0.1 0.4 0.1 0.5 0.3 2.8 1.4 11.5 2.3 12.2-6.9 0.6-11.6-1.5-23.2 0.1-34.3v-0.5c5.9-1.7 7.7-0.1 15.9-0.8 0 21 0.8 41.6 0.1 64.1 -4.1-0.4-4.9-0.4-9 0 -1.4 0-7.7 1.3-7.7 0.1 -0.4-2.9-0.1-4.3-0.3-6.8C131.7 239.6 130.3 240.3 129.4 241z" class="b"/><path d="M178.1 181.6v0.4c-0.1 20.6-1.3 42.6-0.1 63.2 -1.7 1.9-15.7 0.1-18 0.8 1.7-21.6-1.3-44.5 0.8-64.6v-0.1c0.6-0.1 2.7 0.1 3.6 0.1 2.2 0.1 6.1 0.4 11.7 0.3H178.1zM177.5 154.1c0 2.2 0.4 11.3 0.4 16.4 -1.5 2.3-10.6 0.5-17.3 0.9 0-5-0.6-9.9-0.5-17.7L177.5 154.1z" class="b"/><path d="M240.1 199.5c-8.7 9.3-19.7 18.8-28.4 28.6 8.6-0.6 18.6 0.6 27.8-0.8 0 5.5 0.3 11.8 0.3 17.8 -15.7 0.4-35.8 0.8-52.1 0.8 0.4-9.9-0.6-11.3-0.3-16.4 8.2-10.6 20.7-19.7 29.3-29.9 -9 0.4-21.1 1-28.5 2.1 -0.6-9.3 0.4-11.6 0-19.2 13.8 0 26.4-0.1 35.6-0.1 2.7 0.6 15-0.5 16.4 0.1C240.1 188.9 239.5 193.9 240.1 199.5z" class="b"/><path d="M282.5 156c0-0.4 10.5-1.1 16.1-0.1v8.5c0 28.6 1.4 57 0.8 81.5 -5.2 0-12.2 0.5-17.3-0.1 -0.1-0.1-0.1-0.5-0.1-0.9 0-1.7-0.1-2.3-0.1-4.2 -0.4-0.9-0.8-1.5-1.3-0.5 -2.6 5.1-7.2 6.1-11.9 5.5 -19.3-1.4-21.1-18.9-21.5-36.1 0-11.9 2.8-23.3 10.4-26 9.2-3.5 23.9-1.4 24.6 1.7 -0.5-24.1-0.1-17.7 0.4-27.8V156zM261.8 213.1c0 8.6 4.4 16.8 11.7 16.8 8.7 0 9.2-7.8 9.2-18.6 0-13.2-0.5-14.7-7.8-14.7 -7 0-11.3 3.1-12.2 9.1C261.8 208.1 261.8 210.6 261.8 213.1z" class="b"/><path d="M328.1 181.6v0.4c-0.1 20.6-1.3 42.6-0.1 63.2 -1.7 1.9-15.7 0.1-18 0.8 1.7-21.6-1.3-44.5 0.8-64.6v-0.1c0.6-0.1 2.7 0.1 3.6 0.1 2.2 0.1 6.1 0.4 11.7 0.3H328.1zM327.6 154.1c0 2.2 0.4 11.3 0.4 16.4 -1.5 2.3-10.6 0.5-17.3 0.9 0-5-0.6-9.9-0.5-17.7L327.6 154.1z" class="b"/><path d="M357.9 187c7-5.1 18.7-6.4 25.7-0.4 5.4 4.9 1.7 41.5 2.7 59.1 -6 0.9-10 0.5-16 0.5 -0.6-7.8 0.1-20.5-0.5-29.7 -0.4-4.2-0.5-10.4-3.2-12.4 -0.1-0.1-0.4-0.1-0.5-0.3 -2.8-1.4-11.5-2.3-12.2 6.9 -0.6 11.8 1.3 23-0.1 34.3v0.5c-5.9 1.7-7.7 0.1-15.9 0.8 0-21-0.8-41.6-0.1-64.1 4.1 0.4 4.9 0.4 9 0 1.4 0 7.7-1.3 7.7-0.1 0.4 3 0.1 4.4 0.3 6.8C355.6 188.4 357 187.6 357.9 187z" class="b"/><path d="M416.1 181.6v0.4c-0.1 20.6-1.3 42.6-0.1 63.2 -1.7 1.9-15.7 0.1-18 0.8 1.7-21.6-1.3-44.5 0.8-64.6v-0.1c0.6-0.1 2.7 0.1 3.6 0.1 2.2 0.1 6.1 0.4 11.7 0.3H416.1zM415.6 154.1c0 2.2 0.4 11.3 0.4 16.4 -1.5 2.3-10.6 0.5-17.3 0.9 0-5-0.6-9.9-0.5-17.7L415.6 154.1z" class="b"/><path d="M188.5 105.4c13.9 0 27.4-1.4 40.4 0.6 6.5 1 12.1 8.1 20.2 14 3.4-5.1 7.4-11.2 11.4-17.3 7.1 7.3 11.8 12 17.5 17.9 -8.7 8.5-17.7 17.8-27.4 26.4 -1.9 1.6-6.4 0.2-10.9 0.2 0 7 0 14.7 0 23.3 -17.6 0-34 0-51.1 0C188.5 148.8 188.5 127.7 188.5 105.4z" class="b"/><path d="M212.7 58.8c10.4-0.2 19.3 8.6 19.5 19.2 0.2 11.1-7.6 19.5-18.6 19.8 -11.4 0.3-22.3-8.8-22.5-18.8C190.8 69.3 201.9 59 212.7 58.8z" class="b"/><path d="M306.1 64.9c-19.9 0-37.7 0-56.2 0C255 58 297.3 57.4 306.1 64.9z" fill="#ED7777"/><path d="M317.1 77.9c-17.8 0-35.6 0-53.7 0C267.2 71.3 308.7 70.2 317.1 77.9z" fill="#BDDB8B"/><path d="M255.3 90.6c8.1-6.4 35.8-6.5 44.2 0C284.2 90.6 270.7 90.6 255.3 90.6z" fill="#95C0CC"/><path d="M123.2 259.8c6.4 0 8.5 4.1 8.5 11.2 0 7.1-2.1 11.2-8.5 11.2h-3.7l-0.1-22.4H123.2zM123.2 279c4.1 0 4.5-3.1 4.5-8 0-4.9-0.5-8-4.6-8L123.2 279z" class="b"/><path d="M151.6 282.3l-3.8-0.1c0-4.9-2.1-7.9-4.7-7.9v7.9l-3.7 0.1 -0.1-22.5h3.8c6.4 0 8.5 3.3 8.5 7.4 0 2.6-0.8 4.9-3.4 6.1C150.7 275.7 151.6 279.5 151.6 282.3zM143.1 262.8v8.5c2.6 0 4.7-1 4.7-4.2C147.8 263.4 145.7 262.8 143.1 262.8z" class="b"/><path d="M166.5 278.4l-4.7-0.2 -0.7 3.7 -3.8-0.3 5-22.1h3.7l5 22.9 -3.8 0.2L166.5 278.4zM165.9 275.5l-1.7-9.2 -1.8 9.2L165.9 275.5z" class="b"/><path d="M189.9 271.3c0 4.6-1.1 11.3-6.6 11.3 -4.5 0-6.6-4.4-6.6-11.6 0-7.1 2.1-11.6 6.6-11.6 3.8 0 5.5 3.1 6.1 8.3l-3.9-0.1c-0.3-3-0.7-5.2-2.2-5.2 -2 0-2.7 4-2.7 8.6 0 4.6 0.6 8.6 2.7 8.6 1.5 0 2.2-2.2 2.5-5.2l-3.2 0.1 -0.2-3L189.9 271.3z" class="b"/><path d="M222.9 275.9h-1.5c0 3.7-2.1 6.4-5.5 6.6 -0.2 0-0.3 0-0.5 0h-0.1 -0.1c-0.3 0-0.7 0-1.1-0.1 -3-0.5-5-2.7-5-6.1 0-2.3 1-4.9 3.4-6.2 -2-1.7-3-2.9-3-5.2 0-3.4 2.2-5.4 5.6-5.4h0.1 0.1c3.4 0 5.6 2 5.6 5.4l-3.8-0.1c0-1.3-0.5-2.3-1.9-2.4 -1.5 0-1.9 1.2-1.9 2.4 0 1.9 0.4 3.8 4.2 3.8l0.1 3c-3.8 0-4.6 1.6-4.6 4.7 0 2.1 1 3.2 2.4 3.3 1.4-0.1 2.3-1.6 2.4-3.7l-1.9 0 0.1-2.9 7.1 0L222.9 275.9z" class="b"/><path d="M252.5 279.1l-0.1 3.3 -9.7-0.2 0.4-22.4 3.8 0.1 -0.4 19.4L252.5 279.1z" class="b"/><path d="M268.9 279.2l-0.1 3.1 -9.3-0.1 -0.2-22.4 9.5-0.2 -0.1 3.1 -5.6 0 0 8.5 5.3-0.1 0 3.2 -5.3-0.1 0 4.9H268.9z" class="b"/><path d="M284.4 278.4l-4.7-0.2 -0.7 3.7 -3.8-0.3 5-22.1h3.7l5 22.9 -3.8 0.2L284.4 278.4zM283.8 275.5l-1.7-9.2 -1.8 9.2L283.8 275.5z" class="b"/><path d="M307.8 282.3l-3.8-0.1c0-4.9-2.1-7.9-4.7-7.9v7.9l-3.7 0.1 -0.1-22.5h3.8c6.4 0 8.5 3.3 8.5 7.4 0 2.6-0.8 4.9-3.4 6.1C306.9 275.7 307.8 279.5 307.8 282.3zM299.3 262.8v8.5c2.6 0 4.7-1 4.7-4.2C304 263.4 301.8 262.8 299.3 262.8z" class="b"/><path d="M327 282.2h-0.4l-3.1 0c0-0.1-2.7-7.6-5-13.8l0 13.7 -3.5-0.1 0.2-22.2 3.5 0.1 4.9 13.8 0.1-14 3.5 0L327 282.2z" class="b"/></svg>
