<svg xmlns="http://www.w3.org/2000/svg" width="812" height="418" viewBox="0 0 812 418.1"><style>.a{fill:#FFF;}.b{fill:#F1F1F2;}</style><path d="M51.4 100.7h709.3c25 0 45.3 19.1 45.3 42.6v169.1c0 23.5-20.3 42.6-45.3 42.6H510.3c-5.1 39.6-23.9 57.2-67.4 57.2h-7.1v-57.2H51.3C26.3 354.9 6 335.9 6 312.4l0-169.1C6 119.7 26.3 100.7 51.4 100.7z" style="fill:#47BFD7;stroke-width:10;stroke:#F1F1F2"/><rect x="596.9" y="36.6" width="139.1" height="21.9" class="a"/><path d="M734 63.4c2.2 0 4.2-1.4 4.9-3.6 2.6-8.2 2.6-16.4 0-24.6 -0.7-2.1-2.7-3.6-4.9-3.6H584.1v5.9h4.7 144.6c0.1 0.3 0.1 0.5 0.2 0.7 0.1 0.5 0.3 0.9 0.4 1.4 0.1 0.5 0.2 1 0.3 1.5 0.1 0.5 0.2 0.9 0.3 1.4 0.1 0.5 0.1 1 0.2 1.5 0.1 0.5 0.1 0.9 0.1 1.4 0 0.5 0.1 1 0.1 1.5 0 0.5 0 0.9 0 1.4 0 0.5 0 1-0.1 1.5 0 0.5-0.1 0.9-0.1 1.4 0 0.5-0.1 1-0.2 1.5 -0.1 0.5-0.2 0.9-0.3 1.4 -0.1 0.5-0.2 1-0.3 1.5 -0.1 0.5-0.2 0.9-0.4 1.4 -0.1 0.2-0.1 0.5-0.2 0.7H588.8h-4.7v5.9h139.4H734z" fill="#424143"/><rect x="571.6" y="68.4" width="139.1" height="21.9" class="a"/><path d="M723.6 89.2h-4.7H574.3c-0.1-0.2-0.1-0.5-0.2-0.7 -0.1-0.4-0.2-0.9-0.4-1.4 -0.1-0.5-0.2-1-0.3-1.5 -0.1-0.5-0.2-0.9-0.3-1.4 -0.1-0.5-0.1-1-0.2-1.5 0-0.5-0.1-0.9-0.1-1.4 0-0.5 0-1-0.1-1.5 0-0.4 0-0.9 0-1.4 0-0.5 0-1 0.1-1.5 0-0.4 0.1-0.9 0.1-1.4 0.1-0.5 0.1-1 0.2-1.5 0.1-0.5 0.2-0.9 0.3-1.4 0.1-0.5 0.2-1 0.3-1.5 0.1-0.5 0.2-0.9 0.4-1.4 0.1-0.2 0.1-0.5 0.2-0.7h144.6 4.7v-5.9H584.1h-10.4c-2.2 0-4.2 1.4-4.9 3.6 -2.6 8.2-2.6 16.4 0 24.6 0.7 2.1 2.7 3.6 4.9 3.6h149.8V89.2z" fill="#F58230"/><rect x="571.6" y="4.9" width="139.1" height="21.9" class="a"/><path d="M573.7 31.7h141.8v-5.9h-4.7 -136.6c-0.1-0.2-0.1-0.5-0.2-0.7 -0.1-0.4-0.2-0.9-0.4-1.4 -0.1-0.5-0.2-1-0.3-1.5 -0.1-0.4-0.2-0.9-0.3-1.4 -0.1-0.5-0.1-1-0.2-1.5 0-0.5-0.1-0.9-0.1-1.4 0-0.5 0-1-0.1-1.5 0-0.4 0-0.9 0-1.4 0-0.5 0-1 0.1-1.5 0-0.5 0.1-0.9 0.1-1.4 0.1-0.5 0.1-1 0.2-1.5 0.1-0.4 0.2-0.9 0.3-1.4 0.1-0.5 0.2-1 0.3-1.5 0.1-0.5 0.2-0.9 0.4-1.4 0.1-0.2 0.1-0.5 0.2-0.7h136.6 4.7V0H573.7c-2.2 0-4.2 1.4-4.9 3.6 -2.6 8.2-2.6 16.4 0 24.6C569.5 30.3 571.5 31.7 573.7 31.7z" fill="#E41F64"/><path d="M251.4 151.9v105.9c0 34.6-18 49.3-43.2 49.3 -25.1 0-43.2-14.6-43.2-49.2V154.1l28.8 0.5v88.6c0 30.7 1.7 41.2 14.4 41.2 12.7 0 14.4-10.5 14.4-41.2v-91L251.4 151.9z" class="b"/><path d="M305.7 152.4l-0.7 150.6 -28 0.7 -0.7-151.8L305.7 152.4z" class="b"/><path d="M418.2 280.8l-0.5 22.7 -88.3-1.2 0.5-18.2 56.8-104.5 -57.5-3.5 -0.7-22.2 89-1.9 0.3 22.7 -57.5 105.4L418.2 280.8z" class="b"/><path d="M469.2 152c49-1.9 65.8 18.6 67.7 73 1.9 54.3-13.2 75.1-62 77l-28 1 -6-149.9L469.2 152zM474.1 277.4c31.4-1.3 34.2-14.3 32.9-51.3 -1.3-37-5.4-50.7-36.9-49.4L474.1 277.4z" fill="#5074B9"/><path d="M593.8 153.4l-6 150.4 -28-0.2 4.6-151.7L593.8 153.4z" fill="#C0D848"/><path d="M711.7 303.6l-2.9 0.1 -23.4 0.6c-0.3-0.7-22.1-46.5-41.1-93.6l3 93.8 -26.8 0.2 -4-148.5 26.3-0.4 40.6 93.9 -2.6-96.9 26.3-0.7L711.7 303.6z" fill="#BF549F"/><path d="M771.1 153.9l-8.6 150.3 -28-0.7 7.2-151.6L771.1 153.9z" fill="#FEE10F"/><path d="M126.1 289.1l18.3 18.1 -18.6 14 -19.1-20.2c-4.6 1.3-9.4 1.9-14.8 1.9 -35.9 0-52.4-29.9-52.4-78 0-48 16.5-78 52.4-78s52.4 30 52.4 78C144.4 253.6 138.5 276 126.1 289.1zM92.5 281.6c16.3 0 21.1-26.9 21.1-57.9 0-31-5.1-57.9-21.1-57.9 -16 0-21.1 26.9-21.1 58C71.4 254.6 76.2 281.6 92.5 281.6z" class="b"/></svg>
