<svg xmlns="http://www.w3.org/2000/svg" width="1500" height="750" viewBox="0 0 1500 750"><style>.a{fill:#56C9EA;}.b{fill:#D1D3D4;}.c{fill:#3CB44B;}.d{fill:#FEE10F;}.e{fill:#F58230;opacity:0.9;}</style><path d="M287.6 137l38.3 17.6c2.5 1.2 5.4 0.6 7.3-1.4l28.6-31c4.2-4.5 11.6-1 10.9 5l-4.9 41.9c-0.3 2.7 1.2 5.3 3.6 6.5l38.3 17.6c5.6 2.6 4.6 10.7-1.4 11.9l-41.3 8.3c-2.7 0.5-4.7 2.7-5 5.5l-4.9 41.9c-0.7 6.1-8.8 7.7-11.8 2.4l-20.6-36.8c-1.3-2.4-4.1-3.6-6.7-3.1l-41.4 8.2c-6 1.2-10-6-5.9-10.5l28.6-31c1.9-2 2.2-5 0.9-7.4l-20.6-36.8C276.5 140.5 282 134.5 287.6 137z" style="fill:#4E64AF;opacity:0.9"/><circle cx="939.6" cy="413.5" r="10.4" class="a"/><circle cx="1264.1" cy="614.4" r="8" class="b"/><path d="M87.1 226c0 5.8-4.7 10.5-10.5 10.5 -5.8 0-10.5-4.7-10.5-10.5 0-5.8 4.7-10.5 10.5-10.5C82.4 215.4 87.1 220.1 87.1 226z" class="b"/><path d="M352.2 592.7l12-7.9c0.8-0.5 1.1-1.5 0.9-2.4l-3.8-13.8c-0.5-2 1.8-3.5 3.4-2.2l11.2 9c0.7 0.6 1.7 0.6 2.5 0.1l12-7.8c1.7-1.1 3.9 0.6 3.2 2.6l-5.1 13.4c-0.3 0.9-0.1 1.9 0.7 2.4l11.2 9c1.6 1.3 0.6 3.9-1.4 3.8l-14.3-0.7c-0.9 0-1.8 0.5-2.1 1.4L377.4 613c-0.7 1.9-3.5 1.8-4.1-0.2l-3.8-13.8c-0.2-0.9-1-1.5-2-1.6l-14.3-0.7C351.2 596.6 350.4 593.9 352.2 592.7z" class="c"/><path d="M1111.1 701.1c0 5.8-4.7 10.5-10.5 10.5 -5.8 0-10.5-4.7-10.5-10.5 0-5.8 4.7-10.5 10.5-10.5C1106.4 690.6 1111.1 695.3 1111.1 701.1z" class="b"/><path d="M956.8 558.3l-20.9-5.9c-1.3-0.4-2.8 0.1-3.6 1.3l-12 18c-1.7 2.6-5.8 1.5-5.9-1.7l-0.8-21.6c0-1.4-1-2.6-2.4-3l-20.8-5.9c-3-0.9-3.2-5.1-0.2-6.2l20.3-7.4c1.3-0.5 2.2-1.8 2.1-3.2l-0.8-21.6c-0.1-3.1 3.8-4.6 5.8-2.1l13.4 17c0.9 1.1 2.4 1.5 3.7 1l20.3-7.4c3-1.1 5.6 2.2 3.8 4.9l-12 18c-0.8 1.2-0.7 2.7 0.2 3.8l13.4 17C962.1 555.7 959.8 559.2 956.8 558.3z" class="d"/><path d="M797.3 365.1l18.9-18.8c1.2-1.2 1.5-3.1 0.7-4.6l-12-23.7c-1.7-3.4 1.9-7.1 5.4-5.3l23.7 12.1c1.5 0.8 3.4 0.5 4.6-0.7l18.9-18.8c2.7-2.7 7.4-0.3 6.8 3.5l-4.2 26.3c-0.3 1.7 0.6 3.4 2.1 4.2l23.7 12.1c3.4 1.8 2.6 6.9-1.2 7.5l-26.3 4.1c-1.7 0.3-3 1.6-3.3 3.3l-4.2 26.3c-0.6 3.8-5.7 4.6-7.5 1.2l-12-23.7c-0.8-1.5-2.5-2.4-4.2-2.1l-26.3 4.1C796.9 372.5 794.5 367.8 797.3 365.1z" class="e"/><path d="M1160.4 628.4c0-7.7 6.2-14 13.9-14 7.7 0 14 6.2 14 13.9 0.1 7.7-6.2 14-13.9 14C1166.8 642.3 1160.5 636.1 1160.4 628.4z" class="a"/><circle cx="358" cy="308.1" r="6.9" class="b"/><path d="M1078.3 644.4l-12.2-15.4c-0.8-1-2.1-1.4-3.3-0.9l-18.4 6.9c-2.7 1-5.1-2-3.5-4.4l10.9-16.4c0.7-1.1 0.7-2.5-0.1-3.5l-12.2-15.4c-1.8-2.2 0.4-5.4 3.1-4.7l18.9 5.3c1.2 0.4 2.5-0.1 3.3-1.2l10.9-16.4c1.6-2.4 5.3-1.3 5.4 1.5l0.8 19.7c0.1 1.3 0.9 2.4 2.2 2.7l18.9 5.3c2.8 0.8 2.9 4.6 0.2 5.6l-18.4 6.9c-1.2 0.5-2 1.6-1.9 2.9l0.8 19.7C1083.7 645.3 1080.1 646.6 1078.3 644.4z" fill="#4E64AF"/><circle cx="867.1" cy="215.4" r="9.1" class="b"/><circle cx="482.9" cy="497.7" r="9.1" class="b"/><circle cx="796.1" cy="481.1" r="10.5" class="b"/><circle cx="447.1" cy="356.9" r="6.9" class="b"/><circle cx="955.2" cy="600.7" r="10.5" class="b"/><path d="M657.1 418.1l1.2-13.1c0.1-0.8-0.4-1.6-1.2-2l-12.1-5.1c-1.7-0.7-1.5-3.3 0.3-3.7l12.8-2.9c0.8-0.2 1.5-0.9 1.5-1.7l1.2-13.1c0.2-1.9 2.7-2.5 3.7-0.8l6.8 11.3c0.4 0.7 1.3 1.1 2.1 0.9l12.8-2.9c1.9-0.4 3.2 1.8 1.9 3.2l-8.6 9.9c-0.6 0.6-0.6 1.6-0.2 2.3l6.8 11.3c1 1.6-0.7 3.6-2.5 2.8l-12.1-5.1c-0.8-0.3-1.7-0.1-2.2 0.5l-8.6 9.9C659.3 421 656.9 420 657.1 418.1z" fill="#F5812E"/><path d="M232.4 375.1c0-7.7 6.2-14 13.9-14 7.7 0 14 6.2 14 13.9 0.1 7.7-6.2 14-13.9 14C238.7 389 232.5 382.8 232.4 375.1z" class="a"/><path d="M633.6 246.8l12.9-23.8c0.8-1.5 0.6-3.4-0.6-4.7l-18.6-19.6c-2.7-2.8-0.2-7.5 3.7-6.8l26.6 4.9c1.7 0.3 3.5-0.5 4.3-2.1l12.9-23.8c1.9-3.4 7.1-2.5 7.6 1.4l3.6 26.8c0.2 1.7 1.6 3.1 3.3 3.4l26.6 4.9c3.9 0.7 4.6 5.9 1 7.6l-24.4 11.7c-1.6 0.8-2.5 2.5-2.3 4.2l3.6 26.8c0.5 3.9-4.2 6.2-6.9 3.3l-18.6-19.6c-1.2-1.3-3.1-1.6-4.7-0.9l-24.4 11.7C635.3 254.1 631.7 250.3 633.6 246.8z" class="d"/><circle cx="723.7" cy="318.7" r="10.5" class="c"/><path d="M555.8 265.2l-4.3 20.1c-0.3 1.3 0.3 2.6 1.5 3.3l17.8 10.3c2.6 1.5 1.7 5.4-1.2 5.7l-20.5 2.1c-1.3 0.1-2.4 1.1-2.7 2.4l-4.3 20.1c-0.6 2.9-4.6 3.3-5.8 0.6l-8.3-18.8c-0.5-1.2-1.8-1.9-3.1-1.8l-20.5 2.1c-3 0.3-4.6-3.4-2.4-5.3l15.3-13.8c1-0.9 1.3-2.3 0.8-3.5l-8.4-18.8c-1.2-2.7 1.8-5.4 4.4-3.9l17.8 10.3c1.2 0.7 2.6 0.5 3.6-0.4l15.3-13.7C553 260.3 556.4 262.3 555.8 265.2z" class="a"/><path d="M410.9 120.3c0-5 4-9.1 9-9.1 5 0 9.1 4 9.2 9 0 5-4 9.1-9 9.2C415.1 129.3 411 125.3 410.9 120.3z" class="b"/><path d="M547.6 389c0-5 4-9.1 9-9.1 5 0 9.1 4 9.2 9 0 5-4 9.1-9 9.2C551.7 398.1 547.6 394 547.6 389z" class="b"/><path d="M1343.7 660.5l-6.4 19.2c-0.4 1.2 0 2.6 1.1 3.4l16.3 12c2.4 1.7 1.1 5.5-1.8 5.5l-20.2-0.2c-1.3 0-2.5 0.8-2.9 2.1l-6.4 19.2c-0.9 2.8-4.9 2.8-5.8 0l-6.1-19.3c-0.4-1.2-1.5-2.1-2.9-2.1l-20.2-0.2c-2.9 0-4.1-3.8-1.7-5.5l16.5-11.7c1.1-0.8 1.5-2.1 1.1-3.4l-6.1-19.3c-0.9-2.8 2.3-5.1 4.7-3.3l16.3 12c1.1 0.8 2.5 0.8 3.6 0l16.5-11.7C1341.5 655.3 1344.6 657.7 1343.7 660.5z" class="a"/><circle cx="1209.7" cy="566" r="9.9" class="c"/><circle cx="1031.8" cy="474.1" r="6.9" class="b"/><path d="M1141.4 453.5l6.7 24.4c0.4 1.6 1.9 2.7 3.7 2.9l27.4 2c4 0.3 5.3 5 1.9 6.9l-23.3 13c-1.5 0.8-2.2 2.5-1.8 4.1l6.7 24.3c1 3.5-3.6 6.1-6.6 3.7l-21.1-16.3c-1.4-1-3.3-1.2-4.8-0.3l-23.3 13c-3.4 1.9-7.5-1.3-6-4.6l10.2-23.1c0.7-1.5 0.2-3.2-1.2-4.3l-21.1-16.3c-3.1-2.4-1.1-6.9 2.9-6.6l27.4 2c1.8 0.1 3.4-0.8 4.1-2.3l10.2-23.1C1135 449.5 1140.4 449.9 1141.4 453.5z" style="fill:#863E97;opacity:0.9"/><path d="M499.8 57.6l21.3 22.8c1.4 1.5 3.6 1.9 5.4 1.1l28.3-13.2c4.1-1.9 8.3 2.5 6.1 6.5L545.7 102c-1 1.8-0.7 4 0.7 5.4l21.3 22.8c3.1 3.3 0.1 8.6-4.3 7.8l-30.6-5.9c-2-0.4-4 0.6-5 2.3l-15.1 27.3c-2.2 4-8.2 2.8-8.7-1.7l-3.8-30.9c-0.2-2-1.8-3.6-3.7-4l-30.6-5.9c-4.4-0.9-5.2-6.9-1.1-8.8l28.3-13.2c1.8-0.9 2.9-2.8 2.7-4.8l-3.8-30.9C491.2 56.9 496.7 54.3 499.8 57.6z" style="fill:#3CB44B;opacity:0.8"/><path d="M177.4 74.6l-20.7 27.8c-1.3 1.8-1.4 4.3-0.1 6.1l20 28.3c2.9 4.1-1.1 9.5-5.9 7.9l-32.8-11.1c-2.1-0.7-4.5 0-5.8 1.8l-20.7 27.8c-3 4-9.4 1.9-9.3-3.2l0.5-34.6c0-2.2-1.4-4.3-3.5-5l-32.8-11.1c-4.8-1.6-4.7-8.4 0.1-9.9l33.1-10.3c2.1-0.7 3.6-2.6 3.7-4.9l0.5-34.6c0.1-5 6.5-7 9.4-2.9l20 28.3c1.3 1.8 3.6 2.6 5.8 2l33.1-10.3C176.5 65 180.4 70.5 177.4 74.6z" class="a"/><path d="M118.1 313.5l13.4-29.4c0.9-1.9 0.4-4.1-1.1-5.6l-23.8-21.8c-3.4-3.2-0.8-8.9 3.8-8.4l32.1 3.6c2.1 0.2 4.1-0.9 4.9-2.8l13.4-29.4c1.9-4.3 8.2-3.5 9.1 1l6.5 31.6c0.4 2.1 2.1 3.6 4.2 3.8l32.1 3.6c4.7 0.5 5.9 6.7 1.8 9l-28.1 15.9c-1.8 1-2.8 3.1-2.3 5.2l6.5 31.6c0.9 4.6-4.5 7.7-8 4.5l-23.8-21.8c-1.5-1.4-3.8-1.7-5.6-0.6l-28.1 15.9C120.8 322 116.1 317.7 118.1 313.5z" class="e"/><path d="M1406.1 642.4c0-5 4-9.1 9-9.1 5 0 9.1 4 9.2 9 0 5-4 9.1-9 9.2C1410.2 651.4 1406.1 647.4 1406.1 642.4z" class="b"/><path d="M259.8 544.6c0-5 4-9.1 9-9.1 5 0 9.1 4 9.2 9 0 5-4 9.1-9 9.2C263.9 553.6 259.8 549.6 259.8 544.6z" class="b"/><path d="M1425.2 709.3l12-7.9c0.8-0.5 1.1-1.5 0.9-2.4l-3.8-13.8c-0.5-2 1.8-3.5 3.4-2.2l11.2 9c0.7 0.6 1.7 0.6 2.5 0.1l12-7.8c1.7-1.1 3.9 0.6 3.2 2.6l-5.1 13.4c-0.3 0.9-0.1 1.9 0.7 2.4l11.2 9c1.6 1.3 0.6 3.9-1.4 3.8l-14.3-0.7c-0.9 0-1.8 0.5-2.1 1.4l-5.1 13.4c-0.7 1.9-3.5 1.8-4.1-0.2l-3.8-13.8c-0.2-0.9-1-1.5-2-1.6l-14.3-0.7C1424.2 713.2 1423.5 710.5 1425.2 709.3z" class="c"/><path d="M352.4 500.5l-0.4-31.2c0-2-1.3-3.8-3.3-4.4l-29.8-9.2c-4.3-1.3-4.4-7.4-0.1-8.9l29.6-10.1c1.9-0.6 3.2-2.5 3.2-4.5l-0.4-31.3c-0.1-4.5 5.7-6.5 8.4-2.9L378.1 423c1.2 1.6 3.3 2.3 5.3 1.6l29.6-10.1c4.3-1.5 7.9 3.4 5.3 7.1l-18 25.5c-1.2 1.7-1.1 3.9 0.1 5.5l18.7 25c2.7 3.6-0.8 8.6-5.1 7.3l-29.8-9.2c-1.9-0.6-4 0.1-5.2 1.8l-18 25.5C358.2 506.8 352.4 505 352.4 500.5z" class="d"/></svg>